<svg xmlns="http://www.w3.org/2000/svg" xmlns:xlink="http://www.w3.org/1999/xlink" width="70" zoomAndPan="magnify" viewBox="0 0 52.5 52.499999" height="70" preserveAspectRatio="xMidYMid meet" version="1.0"><defs><clipPath id="87a185a731"><path d="M 0 0 L 52.003906 0 L 52.003906 52.003906 L 0 52.003906 Z M 0 0 " clip-rule="nonzero"/></clipPath><clipPath id="b1d9ca98bd"><path d="M 11.203125 32 L 25 32 L 25 42 L 11.203125 42 Z M 11.203125 32 " clip-rule="nonzero"/></clipPath><clipPath id="c43776a017"><path d="M 11.203125 23 L 26 23 L 26 32 L 11.203125 32 Z M 11.203125 23 " clip-rule="nonzero"/></clipPath><clipPath id="fae58f0c22"><path d="M 26 20 L 50.578125 20 L 50.578125 50.875 L 26 50.875 Z M 26 20 " clip-rule="nonzero"/></clipPath><clipPath id="dabf23c8c0"><path d="M 11.203125 13.730469 L 39 13.730469 L 39 22 L 11.203125 22 Z M 11.203125 13.730469 " clip-rule="nonzero"/></clipPath><clipPath id="837a92eb16"><path d="M 3.269531 2.675781 L 24.070312 2.675781 L 24.070312 11.589844 L 3.269531 11.589844 Z M 3.269531 2.675781 " clip-rule="nonzero"/></clipPath></defs><g clip-path="url(#87a185a731)"><path fill="#ffffff" d="M 0 0 L 52.003906 0 L 52.003906 52.003906 L 0 52.003906 Z M 0 0 " fill-opacity="1" fill-rule="nonzero"/><path fill="#ffffff" d="M 0 0 L 52.003906 0 L 52.003906 52.003906 L 0 52.003906 Z M 0 0 " fill-opacity="1" fill-rule="nonzero"/></g><g clip-path="url(#b1d9ca98bd)"><path fill="#9614d0" d="M 24.417969 41.054688 L 24.417969 39.089844 C 24.417969 39.070312 24.417969 39.046875 24.417969 39.023438 C 24.417969 38.996094 24.417969 38.972656 24.417969 38.945312 L 24.417969 32.894531 L 12.519531 32.894531 C 11.792969 32.894531 11.203125 33.480469 11.203125 34.207031 L 11.203125 40.789062 C 11.203125 40.933594 11.320312 41.054688 11.46875 41.054688 Z M 18.914062 35.613281 C 19.660156 35.613281 20.261719 36.214844 20.261719 36.960938 C 20.261719 37.703125 19.660156 38.304688 18.914062 38.304688 C 18.171875 38.304688 17.566406 37.703125 17.566406 36.960938 C 17.566406 36.214844 18.171875 35.613281 18.914062 35.613281 Z M 15.007812 35.613281 C 15.75 35.613281 16.351562 36.214844 16.351562 36.960938 C 16.351562 37.703125 15.75 38.304688 15.007812 38.304688 C 14.261719 38.304688 13.660156 37.703125 13.660156 36.960938 C 13.660156 36.214844 14.261719 35.613281 15.007812 35.613281 Z M 15.007812 35.613281 " fill-opacity="1" fill-rule="nonzero"/></g><g clip-path="url(#c43776a017)"><path fill="#9614d0" d="M 12.519531 23.3125 C 11.792969 23.3125 11.203125 23.898438 11.203125 24.628906 L 11.203125 31.207031 C 11.203125 31.351562 11.320312 31.472656 11.46875 31.472656 L 24.417969 31.472656 L 24.417969 25.828125 C 24.417969 25.804688 24.417969 25.78125 24.417969 25.761719 C 24.417969 25.734375 24.417969 25.707031 24.417969 25.679688 C 24.417969 24.863281 24.640625 24.054688 25.058594 23.3125 Z M 15.007812 28.726562 C 14.261719 28.726562 13.660156 28.121094 13.660156 27.378906 C 13.660156 26.632812 14.261719 26.03125 15.007812 26.03125 C 15.75 26.03125 16.351562 26.632812 16.351562 27.378906 C 16.351562 28.121094 15.75 28.726562 15.007812 28.726562 Z M 18.914062 28.726562 C 18.171875 28.726562 17.570312 28.121094 17.570312 27.378906 C 17.570312 26.632812 18.171875 26.03125 18.914062 26.03125 C 19.660156 26.03125 20.261719 26.632812 20.261719 27.378906 C 20.261719 28.121094 19.660156 28.726562 18.914062 28.726562 Z M 18.914062 28.726562 " fill-opacity="1" fill-rule="nonzero"/></g><g clip-path="url(#fae58f0c22)"><path fill="#9614d0" d="M 27.628906 48.183594 C 28.277344 48.769531 29.179688 49.285156 30.3125 49.714844 C 32.511719 50.554688 35.414062 51.015625 38.484375 51.015625 C 41.554688 51.015625 44.457031 50.554688 46.65625 49.714844 C 47.789062 49.285156 48.691406 48.769531 49.339844 48.183594 C 50.332031 47.289062 50.539062 46.390625 50.539062 45.796875 L 50.539062 39.089844 C 50.539062 39.070312 50.539062 39.050781 50.539062 39.035156 C 50.539062 39.003906 50.539062 38.972656 50.539062 38.945312 L 50.539062 25.828125 C 50.539062 25.808594 50.539062 25.789062 50.539062 25.769531 C 50.539062 25.738281 50.539062 25.710938 50.539062 25.679688 C 50.539062 25.085938 50.332031 24.1875 49.339844 23.292969 C 48.691406 22.707031 47.789062 22.191406 46.65625 21.761719 C 44.457031 20.921875 41.554688 20.460938 38.484375 20.460938 C 35.414062 20.460938 32.511719 20.921875 30.3125 21.761719 C 29.179688 22.191406 28.277344 22.707031 27.628906 23.292969 C 26.636719 24.1875 26.429688 25.085938 26.429688 25.679688 C 26.429688 25.710938 26.429688 25.738281 26.429688 25.769531 C 26.429688 25.789062 26.429688 25.808594 26.429688 25.828125 L 26.429688 38.945312 C 26.429688 38.972656 26.429688 39.003906 26.429688 39.035156 C 26.429688 39.050781 26.429688 39.070312 26.429688 39.089844 L 26.429688 45.796875 C 26.429688 46.390625 26.636719 47.289062 27.628906 48.183594 Z M 31.027344 23.640625 C 33.003906 22.886719 35.652344 22.472656 38.484375 22.472656 C 41.316406 22.472656 43.964844 22.886719 45.941406 23.640625 C 47.515625 24.238281 48.53125 25.042969 48.53125 25.679688 C 48.53125 26.320312 47.515625 27.125 45.941406 27.722656 C 43.964844 28.476562 41.316406 28.890625 38.484375 28.890625 C 35.652344 28.890625 33.003906 28.476562 31.027344 27.722656 C 29.453125 27.125 28.4375 26.320312 28.4375 25.679688 C 28.4375 25.042969 29.453125 24.238281 31.027344 23.640625 Z M 28.4375 32.242188 L 28.4375 28.679688 C 28.964844 29.019531 29.59375 29.328125 30.3125 29.601562 C 32.511719 30.441406 35.414062 30.902344 38.484375 30.902344 C 41.554688 30.902344 44.457031 30.441406 46.65625 29.601562 C 47.375 29.328125 48.003906 29.019531 48.53125 28.679688 L 48.53125 32.53125 C 48.53125 33.171875 47.515625 33.972656 45.941406 34.574219 C 43.964844 35.328125 41.316406 35.742188 38.484375 35.742188 C 35.652344 35.742188 33.003906 35.328125 31.027344 34.574219 C 29.453125 33.972656 28.4375 33.171875 28.4375 32.53125 Z M 28.4375 35.53125 C 28.964844 35.867188 29.59375 36.175781 30.3125 36.449219 C 32.511719 37.289062 35.414062 37.75 38.484375 37.75 C 41.554688 37.75 44.457031 37.289062 46.65625 36.449219 C 47.375 36.175781 48.003906 35.867188 48.53125 35.53125 L 48.53125 38.945312 C 48.53125 39.585938 47.515625 40.386719 45.941406 40.988281 C 43.964844 41.742188 41.316406 42.15625 38.484375 42.15625 C 35.652344 42.15625 33.003906 41.742188 31.027344 40.988281 C 29.453125 40.386719 28.4375 39.585938 28.4375 38.945312 Z M 28.4375 41.945312 C 28.964844 42.28125 29.59375 42.589844 30.3125 42.863281 C 32.511719 43.703125 35.414062 44.164062 38.484375 44.164062 C 41.554688 44.164062 44.457031 43.703125 46.65625 42.863281 C 47.375 42.589844 48.003906 42.28125 48.53125 41.945312 L 48.53125 45.796875 C 48.53125 46.433594 47.515625 47.238281 45.941406 47.835938 C 43.964844 48.589844 41.316406 49.003906 38.484375 49.003906 C 35.652344 49.003906 33.003906 48.589844 31.027344 47.835938 C 29.453125 47.238281 28.4375 46.433594 28.4375 45.796875 Z M 28.4375 41.945312 " fill-opacity="1" fill-rule="nonzero"/></g><g clip-path="url(#dabf23c8c0)"><path fill="#9614d0" d="M 27.074219 20.464844 C 26.929688 20.464844 26.8125 20.34375 26.8125 20.199219 L 26.8125 15.867188 C 26.8125 15.722656 26.929688 15.605469 27.074219 15.605469 L 36.6875 15.605469 C 36.835938 15.605469 36.953125 15.722656 36.953125 15.867188 L 36.953125 18.488281 C 37.457031 18.464844 37.96875 18.453125 38.484375 18.453125 L 38.484375 15.046875 C 38.484375 14.320312 37.894531 13.730469 37.167969 13.730469 L 12.519531 13.730469 C 11.792969 13.730469 11.203125 14.320312 11.203125 15.046875 L 11.203125 21.625 C 11.203125 21.773438 11.320312 21.890625 11.46875 21.890625 L 26.1875 21.890625 C 26.21875 21.859375 26.25 21.832031 26.28125 21.800781 C 26.832031 21.308594 27.5 20.859375 28.28125 20.464844 Z M 15.007812 19.144531 C 14.261719 19.144531 13.660156 18.539062 13.660156 17.796875 C 13.660156 17.050781 14.261719 16.449219 15.007812 16.449219 C 15.75 16.449219 16.351562 17.054688 16.351562 17.796875 C 16.351562 18.539062 15.75 19.144531 15.007812 19.144531 Z M 18.914062 19.144531 C 18.171875 19.144531 17.570312 18.539062 17.570312 17.796875 C 17.570312 17.050781 18.171875 16.449219 18.914062 16.449219 C 19.660156 16.449219 20.261719 17.054688 20.261719 17.796875 C 20.261719 18.539062 19.660156 19.144531 18.914062 19.144531 Z M 18.914062 19.144531 " fill-opacity="1" fill-rule="nonzero"/></g><g clip-path="url(#837a92eb16)"><path fill="#040606" d="M 22.875 11.390625 L 4.464844 11.390625 C 3.796875 11.390625 3.269531 10.851562 3.269531 10.195312 L 3.269531 3.882812 C 3.269531 3.214844 3.796875 2.6875 4.464844 2.6875 L 22.875 2.6875 C 23.53125 2.6875 24.070312 3.214844 24.070312 3.882812 L 24.070312 10.207031 C 24.070312 10.851562 23.53125 11.390625 22.875 11.390625 Z M 22.875 11.390625 " fill-opacity="1" fill-rule="nonzero"/></g><path fill="#ffffff" d="M 8.210938 6.941406 C 8.210938 7.152344 8.167969 7.355469 8.089844 7.550781 C 8.007812 7.742188 7.894531 7.914062 7.746094 8.0625 C 7.59375 8.214844 7.421875 8.328125 7.230469 8.410156 C 7.035156 8.488281 6.832031 8.527344 6.621094 8.527344 C 6.410156 8.527344 6.207031 8.488281 6.015625 8.410156 C 5.820312 8.328125 5.648438 8.214844 5.5 8.0625 C 5.351562 7.914062 5.234375 7.742188 5.152344 7.550781 C 5.074219 7.355469 5.035156 7.152344 5.035156 6.941406 C 5.035156 6.730469 5.074219 6.527344 5.152344 6.332031 C 5.234375 6.140625 5.351562 5.96875 5.5 5.816406 C 5.648438 5.667969 5.820312 5.554688 6.015625 5.472656 C 6.207031 5.394531 6.410156 5.351562 6.621094 5.351562 C 6.832031 5.351562 7.035156 5.394531 7.230469 5.472656 C 7.421875 5.554688 7.59375 5.667969 7.746094 5.816406 C 7.894531 5.96875 8.007812 6.140625 8.089844 6.332031 C 8.167969 6.527344 8.210938 6.730469 8.210938 6.941406 Z M 8.210938 6.941406 " fill-opacity="1" fill-rule="nonzero"/><path fill="#ffffff" d="M 10.691406 8.410156 L 12.257812 8.410156 L 12.257812 8.941406 L 9.925781 8.941406 L 9.925781 4.960938 L 10.691406 4.960938 Z M 10.691406 8.410156 " fill-opacity="1" fill-rule="nonzero"/><path fill="#ffffff" d="M 12.894531 4.960938 L 13.660156 4.960938 L 13.660156 8.941406 L 12.894531 8.941406 Z M 12.894531 4.960938 " fill-opacity="1" fill-rule="nonzero"/><path fill="#ffffff" d="M 18.667969 4.960938 L 16.925781 8.941406 L 16.042969 8.941406 L 14.289062 4.960938 L 15.101562 4.960938 L 16.484375 8.265625 L 17.867188 4.960938 Z M 18.667969 4.960938 " fill-opacity="1" fill-rule="nonzero"/><path fill="#ffffff" d="M 20.0625 5.492188 L 20.0625 6.65625 L 21.667969 6.65625 L 21.667969 7.1875 L 20.0625 7.1875 L 20.0625 8.402344 L 21.863281 8.402344 L 21.863281 8.929688 L 19.296875 8.929688 L 19.296875 4.953125 L 21.863281 4.953125 L 21.863281 5.480469 L 20.0625 5.480469 Z M 20.0625 5.492188 " fill-opacity="1" fill-rule="nonzero"/></svg>