<svg xmlns="http://www.w3.org/2000/svg" xmlns:xlink="http://www.w3.org/1999/xlink" width="70" zoomAndPan="magnify" viewBox="0 0 52.5 52.499999" height="70" preserveAspectRatio="xMidYMid meet" version="1.0"><defs><clipPath id="5c3cb8d273"><path d="M 17.617188 16.121094 L 51.050781 16.121094 L 51.050781 51.039062 L 17.617188 51.039062 Z M 17.617188 16.121094 " clip-rule="nonzero"/></clipPath><clipPath id="af4a6ebdf8"><path d="M 0 0.0429688 L 37.890625 0.0429688 L 37.890625 37.8125 L 0 37.8125 Z M 0 0.0429688 " clip-rule="nonzero"/></clipPath></defs><g clip-path="url(#5c3cb8d273)"><path fill="#9614d0" d="M 49.429688 42.015625 L 19.339844 42.015625 C 18.394531 42.015625 17.617188 42.789062 17.617188 43.734375 L 17.617188 49.324219 C 17.617188 50.273438 18.394531 51.046875 19.339844 51.046875 L 49.429688 51.046875 C 50.378906 51.046875 51.152344 50.273438 51.152344 49.324219 L 51.152344 43.734375 C 51.152344 42.789062 50.378906 42.015625 49.429688 42.015625 Z M 21.832031 47.628906 C 21.226562 47.628906 20.734375 47.136719 20.734375 46.53125 C 20.734375 45.925781 21.226562 45.433594 21.832031 45.433594 C 22.4375 45.433594 22.929688 45.925781 22.929688 46.53125 C 22.929688 47.136719 22.4375 47.628906 21.832031 47.628906 Z M 25.675781 47.628906 C 25.066406 47.628906 24.578125 47.136719 24.578125 46.53125 C 24.578125 45.925781 25.066406 45.433594 25.675781 45.433594 C 26.28125 45.433594 26.773438 45.925781 26.773438 46.53125 C 26.773438 47.136719 26.28125 47.628906 25.675781 47.628906 Z M 29.515625 47.628906 C 28.910156 47.628906 28.417969 47.136719 28.417969 46.53125 C 28.417969 45.925781 28.910156 45.433594 29.515625 45.433594 C 30.121094 45.433594 30.613281 45.925781 30.613281 46.53125 C 30.613281 47.136719 30.121094 47.628906 29.515625 47.628906 Z M 46.617188 47.09375 L 36.925781 47.09375 C 36.613281 47.09375 36.363281 46.84375 36.363281 46.53125 C 36.363281 46.21875 36.613281 45.964844 36.925781 45.964844 L 46.617188 45.964844 C 46.929688 45.964844 47.183594 46.21875 47.183594 46.53125 C 47.183594 46.84375 46.929688 47.09375 46.617188 47.09375 Z M 46.617188 26.289062 L 46.617188 27.941406 L 22.152344 27.941406 L 22.152344 26.289062 Z M 49.429688 16.128906 L 19.339844 16.128906 C 18.394531 16.128906 17.617188 16.902344 17.617188 17.851562 L 17.617188 23.4375 C 17.617188 24.386719 18.394531 25.160156 19.339844 25.160156 L 49.429688 25.160156 C 50.378906 25.160156 51.152344 24.386719 51.152344 23.4375 L 51.152344 17.851562 C 51.152344 16.902344 50.378906 16.128906 49.429688 16.128906 Z M 21.832031 21.742188 C 21.226562 21.742188 20.734375 21.25 20.734375 20.644531 C 20.734375 20.039062 21.226562 19.546875 21.832031 19.546875 C 22.4375 19.546875 22.929688 20.039062 22.929688 20.644531 C 22.929688 21.25 22.4375 21.742188 21.832031 21.742188 Z M 25.675781 21.742188 C 25.066406 21.742188 24.578125 21.25 24.578125 20.644531 C 24.578125 20.039062 25.066406 19.546875 25.675781 19.546875 C 26.28125 19.546875 26.773438 20.039062 26.773438 20.644531 C 26.773438 21.25 26.28125 21.742188 25.675781 21.742188 Z M 29.515625 21.742188 C 28.910156 21.742188 28.417969 21.25 28.417969 20.644531 C 28.417969 20.039062 28.910156 19.546875 29.515625 19.546875 C 30.121094 19.546875 30.613281 20.039062 30.613281 20.644531 C 30.613281 21.25 30.121094 21.742188 29.515625 21.742188 Z M 46.617188 21.207031 L 36.925781 21.207031 C 36.613281 21.207031 36.363281 20.957031 36.363281 20.644531 C 36.363281 20.332031 36.613281 20.082031 36.925781 20.082031 L 46.617188 20.082031 C 46.929688 20.082031 47.183594 20.332031 47.183594 20.644531 C 47.183594 20.957031 46.929688 21.207031 46.617188 21.207031 Z M 49.429688 29.070312 L 19.339844 29.070312 C 18.394531 29.070312 17.617188 29.847656 17.617188 30.792969 L 17.617188 36.382812 C 17.617188 37.328125 18.394531 38.105469 19.339844 38.105469 L 49.429688 38.105469 C 50.378906 38.105469 51.152344 37.328125 51.152344 36.382812 L 51.152344 30.792969 C 51.152344 29.847656 50.378906 29.070312 49.429688 29.070312 Z M 21.832031 34.683594 C 21.226562 34.683594 20.734375 34.195312 20.734375 33.585938 C 20.734375 32.980469 21.226562 32.488281 21.832031 32.488281 C 22.4375 32.488281 22.929688 32.980469 22.929688 33.585938 C 22.929688 34.195312 22.4375 34.683594 21.832031 34.683594 Z M 25.675781 34.683594 C 25.066406 34.683594 24.578125 34.195312 24.578125 33.585938 C 24.578125 32.980469 25.066406 32.488281 25.675781 32.488281 C 26.28125 32.488281 26.773438 32.980469 26.773438 33.585938 C 26.773438 34.195312 26.28125 34.683594 25.675781 34.683594 Z M 29.515625 34.683594 C 28.910156 34.683594 28.417969 34.195312 28.417969 33.585938 C 28.417969 32.980469 28.910156 32.488281 29.515625 32.488281 C 30.121094 32.488281 30.613281 32.980469 30.613281 33.585938 C 30.613281 34.195312 30.121094 34.683594 29.515625 34.683594 Z M 46.617188 34.152344 L 36.925781 34.152344 C 36.613281 34.152344 36.363281 33.898438 36.363281 33.585938 C 36.363281 33.277344 36.613281 33.023438 36.925781 33.023438 L 46.617188 33.023438 C 46.929688 33.023438 47.183594 33.277344 47.183594 33.585938 C 47.183594 33.898438 46.929688 34.152344 46.617188 34.152344 Z M 46.617188 39.234375 L 46.617188 40.886719 L 22.152344 40.886719 L 22.152344 39.234375 Z M 46.617188 39.234375 " fill-opacity="1" fill-rule="nonzero"/></g><path fill="#040606" d="M 22.859375 4.25 C 28.828125 4.25 33.679688 9.101562 33.679688 15.066406 C 33.679688 21.03125 28.828125 25.886719 22.859375 25.886719 C 16.902344 25.886719 12.058594 21.03125 12.058594 15.066406 C 12.058594 9.101562 16.90625 4.25 22.859375 4.25 Z M 22.859375 26.480469 C 29.15625 26.480469 34.28125 21.363281 34.28125 15.066406 C 34.28125 8.773438 29.15625 3.65625 22.859375 3.65625 C 16.578125 3.65625 11.460938 8.773438 11.460938 15.066406 C 11.460938 21.363281 16.578125 26.480469 22.859375 26.480469 " fill-opacity="1" fill-rule="nonzero"/><g clip-path="url(#af4a6ebdf8)"><path fill="#040606" d="M 1.898438 32.535156 L 8.347656 26.085938 L 11.730469 29.464844 L 5.285156 35.914062 C 4.371094 36.820312 2.800781 36.816406 1.898438 35.917969 C 0.964844 34.988281 0.957031 33.472656 1.898438 32.535156 Z M 9.832031 22.519531 C 11.132812 24.789062 13.007812 26.6875 15.257812 28.015625 L 13.621094 29.660156 L 8.15625 24.199219 Z M 22.859375 1.238281 C 30.488281 1.238281 36.695312 7.441406 36.695312 15.066406 C 36.695312 22.691406 30.488281 28.898438 22.859375 28.898438 C 15.242188 28.898438 9.042969 22.691406 9.042969 15.066406 C 9.042969 7.441406 15.242188 1.238281 22.859375 1.238281 Z M 1.054688 36.765625 C 2.457031 38.15625 4.714844 38.164062 6.128906 36.761719 L 12.578125 30.308594 L 13.195312 30.929688 C 13.429688 31.160156 13.808594 31.164062 14.039062 30.929688 L 16.355469 28.609375 C 18.324219 29.558594 20.53125 30.09375 22.859375 30.09375 C 31.148438 30.09375 37.890625 23.351562 37.890625 15.066406 C 37.890625 6.78125 31.148438 0.0429688 22.859375 0.0429688 C 14.582031 0.0429688 7.84375 6.785156 7.84375 15.066406 C 7.84375 17.328125 8.351562 19.480469 9.253906 21.40625 L 6.890625 23.777344 C 6.65625 24.007812 6.65625 24.390625 6.890625 24.621094 L 7.503906 25.238281 L 1.050781 31.691406 C -0.347656 33.089844 -0.351562 35.359375 1.054688 36.765625 " fill-opacity="1" fill-rule="nonzero"/></g><path fill="#040606" d="M 19.027344 19.039062 C 19.082031 19.132812 19.183594 19.191406 19.292969 19.191406 C 19.421875 19.191406 19.542969 19.101562 19.578125 18.972656 L 21.421875 12.359375 L 23.261719 18.972656 C 23.296875 19.101562 23.414062 19.191406 23.550781 19.191406 C 23.683594 19.191406 23.800781 19.101562 23.835938 18.972656 L 25.746094 12.128906 L 27.535156 16.191406 C 27.582031 16.300781 27.691406 16.371094 27.808594 16.371094 L 30.765625 16.371094 C 30.929688 16.371094 31.0625 16.234375 31.0625 16.070312 C 31.0625 15.90625 30.929688 15.773438 30.765625 15.773438 L 28.007812 15.773438 L 25.957031 11.125 C 25.90625 11.007812 25.796875 10.933594 25.660156 10.945312 C 25.539062 10.953125 25.429688 11.042969 25.394531 11.164062 L 23.550781 17.777344 L 21.714844 11.164062 C 21.675781 11.035156 21.558594 10.945312 21.421875 10.945312 C 21.289062 10.945312 21.171875 11.035156 21.132812 11.164062 L 19.195312 18.125 L 17.9375 15.921875 C 17.886719 15.828125 17.785156 15.773438 17.679688 15.773438 L 14.972656 15.773438 C 14.804688 15.773438 14.671875 15.90625 14.671875 16.070312 C 14.671875 16.234375 14.804688 16.371094 14.972656 16.371094 L 17.503906 16.371094 L 19.027344 19.039062 " fill-opacity="1" fill-rule="nonzero"/></svg>