<svg xmlns="http://www.w3.org/2000/svg" xmlns:xlink="http://www.w3.org/1999/xlink" width="70" zoomAndPan="magnify" viewBox="0 0 52.5 52.499999" height="70" preserveAspectRatio="xMidYMid meet" version="1.0"><defs><clipPath id="a5c03e697b"><path d="M 19.554688 9.792969 L 50.757812 9.792969 L 50.757812 50.652344 L 19.554688 50.652344 Z M 19.554688 9.792969 " clip-rule="nonzero"/></clipPath><clipPath id="09163037cb"><path d="M 9 0.0351562 L 19 0.0351562 L 19 10 L 9 10 Z M 9 0.0351562 " clip-rule="nonzero"/></clipPath><clipPath id="95206c0503"><path d="M 13 24 L 28 24 L 28 37.179688 L 13 37.179688 Z M 13 24 " clip-rule="nonzero"/></clipPath><clipPath id="2fdcc53b75"><path d="M 26 19 L 41.007812 19 L 41.007812 33 L 26 33 Z M 26 19 " clip-rule="nonzero"/></clipPath><clipPath id="ceebf2e11b"><path d="M 0.148438 19 L 15 19 L 15 33 L 0.148438 33 Z M 0.148438 19 " clip-rule="nonzero"/></clipPath><clipPath id="64750d06bb"><path d="M 22 0.0351562 L 32 0.0351562 L 32 10 L 22 10 Z M 22 0.0351562 " clip-rule="nonzero"/></clipPath></defs><g clip-path="url(#a5c03e697b)"><path fill="#9614d0" d="M 19.757812 49.949219 L 19.757812 13.851562 C 19.757812 13.457031 20 12.902344 20.28125 12.613281 L 22.578125 10.316406 C 22.867188 10.027344 23.429688 9.792969 23.832031 9.792969 L 49.683594 9.792969 C 50.085938 9.792969 50.414062 10.117188 50.414062 10.507812 L 50.414062 46.605469 C 50.414062 47 50.167969 47.554688 49.886719 47.84375 L 47.589844 50.140625 C 47.300781 50.429688 46.738281 50.664062 46.335938 50.664062 L 20.488281 50.664062 C 20.085938 50.664062 19.757812 50.335938 19.757812 49.949219 Z M 19.757812 49.949219 " fill-opacity="1" fill-rule="evenodd"/></g><path fill="#ffffff" d="M 47.492188 13.449219 L 47.492188 48.171875 L 48.953125 46.710938 L 48.953125 11.25 L 23.710938 11.25 L 22.25 12.710938 L 46.761719 12.710938 C 47.164062 12.710938 47.492188 13.039062 47.492188 13.449219 Z M 47.492188 13.449219 " fill-opacity="1" fill-rule="evenodd"/><g clip-path="url(#09163037cb)"><path stroke-linecap="round" transform="matrix(0.817034, 0, 0, 0.807527, 0.153165, -1.581473)" fill="none" stroke-linejoin="round" d="M 22.001222 8.000207 C 22.001222 8.329143 21.967755 8.653242 21.905602 8.977342 C 21.838668 9.296604 21.743048 9.611028 21.618741 9.915778 C 21.494435 10.215691 21.341442 10.505929 21.154983 10.776818 C 20.973304 11.052544 20.767721 11.304084 20.533451 11.536274 C 20.303962 11.768465 20.050568 11.976469 19.778051 12.155449 C 19.505533 12.339267 19.218672 12.49406 18.912687 12.61983 C 18.611483 12.7456 18.295936 12.837509 17.975608 12.905231 C 17.65528 12.968116 17.330171 13.001977 17.000281 13.001977 C 16.670391 13.001977 16.345282 12.968116 16.024954 12.905231 C 15.704626 12.837509 15.389079 12.7456 15.087876 12.61983 C 14.781891 12.49406 14.49503 12.339267 14.222512 12.155449 C 13.949994 11.976469 13.6966 11.768465 13.462331 11.536274 C 13.232842 11.304084 13.027258 11.052544 12.840799 10.776818 C 12.65912 10.505929 12.506128 10.215691 12.381821 9.915778 C 12.252734 9.611028 12.161895 9.296604 12.094961 8.977342 C 12.032807 8.653242 11.99934 8.329143 11.99934 8.000207 C 11.99934 7.67127 12.032807 7.347171 12.094961 7.023072 C 12.161895 6.70381 12.252734 6.389385 12.381821 6.084635 C 12.506128 5.784722 12.65912 5.494484 12.840799 5.223595 C 13.027258 4.947869 13.232842 4.696329 13.462331 4.464139 C 13.6966 4.231948 13.949994 4.023944 14.222512 3.844964 C 14.49503 3.661147 14.781891 3.506353 15.087876 3.380583 C 15.389079 3.254813 15.704626 3.158067 16.024954 3.095182 C 16.345282 3.032297 16.670391 2.998436 17.000281 2.998436 C 17.330171 2.998436 17.65528 3.032297 17.975608 3.095182 C 18.295936 3.158067 18.611483 3.254813 18.912687 3.380583 C 19.218672 3.506353 19.505533 3.661147 19.778051 3.844964 C 20.050568 4.023944 20.303962 4.231948 20.533451 4.464139 C 20.767721 4.696329 20.973304 4.947869 21.154983 5.223595 C 21.341442 5.494484 21.494435 5.784722 21.618741 6.084635 C 21.743048 6.389385 21.838668 6.70381 21.905602 7.023072 C 21.967755 7.347171 22.001222 7.67127 22.001222 8.000207 Z M 22.001222 8.000207 " stroke="#000000" stroke-width="2" stroke-opacity="1" stroke-miterlimit="10"/></g><path stroke-linecap="round" transform="matrix(0.817034, 0, 0, 0.807527, 0.153165, -1.581473)" fill="none" stroke-linejoin="round" d="M 30.999091 27.001129 C 30.999091 27.392951 30.960843 27.784772 30.884347 28.171756 C 30.807851 28.55874 30.693106 28.931213 30.544895 29.29401 C 30.391903 29.661645 30.205443 30.005094 29.990297 30.33403 C 29.770371 30.662967 29.521758 30.962879 29.244459 31.243443 C 28.962379 31.519169 28.661175 31.770709 28.331285 31.988388 C 28.006176 32.206066 27.661943 32.394721 27.293805 32.544677 C 26.930448 32.694634 26.557529 32.805892 26.170267 32.883288 C 25.783005 32.960685 25.395743 32.999384 24.998918 32.999384 C 24.606875 32.999384 24.214832 32.960685 23.82757 32.883288 C 23.445089 32.805892 23.067389 32.694634 22.704031 32.544677 C 22.340674 32.394721 21.996441 32.206066 21.666551 31.988388 C 21.336661 31.770709 21.035457 31.519169 20.758159 31.243443 C 20.48086 30.962879 20.232247 30.662967 20.01232 30.33403 C 19.792394 30.005094 19.605934 29.661645 19.457723 29.29401 C 19.30473 28.931213 19.189986 28.55874 19.11349 28.171756 C 19.036993 27.784772 18.998745 27.392951 18.998745 27.001129 C 18.998745 26.60447 19.036993 26.217486 19.11349 25.830502 C 19.189986 25.443518 19.30473 25.066208 19.457723 24.703411 C 19.605934 24.340613 19.792394 23.992327 20.01232 23.668228 C 20.232247 23.339291 20.48086 23.034541 20.758159 22.758815 C 21.035457 22.478252 21.336661 22.231549 21.666551 22.009033 C 21.996441 21.791355 22.340674 21.607537 22.704031 21.457581 C 23.067389 21.307625 23.445089 21.191529 23.82757 21.114132 C 24.214832 21.036736 24.606875 20.998037 24.998918 20.998037 C 25.395743 20.998037 25.783005 21.036736 26.170267 21.114132 C 26.557529 21.191529 26.930448 21.307625 27.293805 21.457581 C 27.661943 21.607537 28.006176 21.791355 28.331285 22.009033 C 28.661175 22.231549 28.962379 22.478252 29.244459 22.758815 C 29.521758 23.034541 29.770371 23.339291 29.990297 23.668228 C 30.205443 23.992327 30.391903 24.340613 30.544895 24.703411 C 30.693106 25.066208 30.807851 25.443518 30.884347 25.830502 C 30.960843 26.217486 30.999091 26.60447 30.999091 27.001129 Z M 30.999091 27.001129 " stroke="#000000" stroke-width="2" stroke-opacity="1" stroke-miterlimit="10"/><g clip-path="url(#95206c0503)"><path stroke-linecap="round" transform="matrix(0.817034, 0, 0, 0.807527, 0.153165, -1.581473)" fill="none" stroke-linejoin="round" d="M 33.002336 41.000281 C 33.002336 36.598336 29.402233 32.999384 24.998918 32.999384 C 20.600385 32.999384 17.000281 36.598336 17.000281 41.000281 C 17.000281 41.900019 17.000281 45.498972 17.000281 45.498972 C 17.000281 45.498972 18.998745 46.998536 24.998918 46.998536 C 30.999091 46.998536 33.002336 45.498972 33.002336 45.498972 C 33.002336 45.498972 33.002336 41.900019 33.002336 41.000281 Z M 33.002336 41.000281 " stroke="#000000" stroke-width="2" stroke-opacity="1" stroke-miterlimit="10"/></g><path stroke-linecap="round" transform="matrix(0.817034, 0, 0, 0.807527, 0.153165, -1.581473)" fill="none" stroke-linejoin="round" d="M 47.001146 20.998037 C 47.001146 21.394696 46.962898 21.786517 46.886402 22.168664 C 46.809906 22.555648 46.695161 22.932958 46.542169 23.295756 C 46.393958 23.658553 46.207498 24.006839 45.987571 24.335776 C 45.767645 24.659875 45.519032 24.964625 45.241733 25.240351 C 44.964434 25.520915 44.66323 25.767617 44.33334 25.990133 C 44.008231 26.207812 43.659217 26.391629 43.29586 26.541585 C 42.932503 26.696379 42.554803 26.807637 42.172322 26.885034 C 41.78506 26.962431 41.393017 27.001129 41.000973 27.001129 C 40.604149 27.001129 40.216887 26.962431 39.829625 26.885034 C 39.442363 26.807637 39.069444 26.696379 38.706086 26.541585 C 38.337948 26.391629 37.993715 26.207812 37.668606 25.990133 C 37.338716 25.767617 37.037512 25.520915 36.755433 25.240351 C 36.478134 24.964625 36.229521 24.659875 36.009594 24.335776 C 35.794449 24.006839 35.607989 23.658553 35.454997 23.295756 C 35.306785 22.932958 35.192041 22.555648 35.115545 22.168664 C 35.039048 21.786517 35.0008 21.394696 35.0008 20.998037 C 35.0008 20.606216 35.039048 20.214394 35.115545 19.82741 C 35.192041 19.445263 35.306785 19.067954 35.454997 18.705156 C 35.607989 18.337521 35.794449 17.994073 36.009594 17.665136 C 36.229521 17.341037 36.478134 17.036287 36.755433 16.755723 C 37.037512 16.479997 37.338716 16.228457 37.668606 16.010779 C 37.993715 15.7931 38.337948 15.609283 38.706086 15.454489 C 39.069444 15.304533 39.442363 15.193275 39.829625 15.115878 C 40.216887 15.038481 40.604149 14.999783 41.000973 14.999783 C 41.393017 14.999783 41.78506 15.038481 42.172322 15.115878 C 42.554803 15.193275 42.932503 15.304533 43.29586 15.454489 C 43.659217 15.609283 44.008231 15.7931 44.33334 16.010779 C 44.66323 16.228457 44.964434 16.479997 45.241733 16.755723 C 45.519032 17.036287 45.767645 17.341037 45.987571 17.665136 C 46.207498 17.994073 46.393958 18.337521 46.542169 18.705156 C 46.695161 19.067954 46.809906 19.445263 46.886402 19.82741 C 46.962898 20.214394 47.001146 20.606216 47.001146 20.998037 Z M 47.001146 20.998037 " stroke="#000000" stroke-width="2" stroke-opacity="1" stroke-miterlimit="10"/><g clip-path="url(#2fdcc53b75)"><path stroke-linecap="round" transform="matrix(0.817034, 0, 0, 0.807527, 0.153165, -1.581473)" fill="none" stroke-linejoin="round" d="M 48.99961 35.002027 C 48.99961 30.600082 45.399507 27.001129 41.000973 27.001129 C 36.597659 27.001129 33.002336 30.600082 33.002336 35.002027 C 33.002336 35.901765 33.002336 39.500718 33.002336 39.500718 C 33.002336 39.500718 35.0008 41.000281 41.000973 41.000281 C 47.001146 41.000281 48.99961 39.500718 48.99961 39.500718 C 48.99961 39.500718 48.99961 35.901765 48.99961 35.002027 Z M 48.99961 35.002027 " stroke="#000000" stroke-width="2" stroke-opacity="1" stroke-miterlimit="10"/></g><path stroke-linecap="round" transform="matrix(0.817034, 0, 0, 0.807527, 0.153165, -1.581473)" fill="none" stroke-linejoin="round" d="M 15.001817 20.998037 C 15.001817 21.394696 14.963569 21.786517 14.887073 22.168664 C 14.805796 22.555648 14.695832 22.932958 14.54284 23.295756 C 14.394628 23.658553 14.208169 24.006839 13.988242 24.335776 C 13.768316 24.659875 13.519703 24.964625 13.242404 25.240351 C 12.965105 25.520915 12.65912 25.767617 12.334011 25.990133 C 12.004121 26.207812 11.659888 26.391629 11.296531 26.541585 C 10.933174 26.696379 10.555474 26.807637 10.168212 26.885034 C 9.785731 26.962431 9.393687 27.001129 9.001644 27.001129 C 8.60482 27.001129 8.217558 26.962431 7.830296 26.885034 C 7.443034 26.807637 7.070115 26.696379 6.701976 26.541585 C 6.338619 26.391629 5.994386 26.207812 5.664496 25.990133 C 5.339387 25.767617 5.038183 25.520915 4.756104 25.240351 C 4.478805 24.964625 4.230192 24.659875 4.010265 24.335776 C 3.790339 24.006839 3.60866 23.658553 3.455668 23.295756 C 3.307456 22.932958 3.192712 22.555648 3.116216 22.168664 C 3.039719 21.786517 3.001471 21.394696 3.001471 20.998037 C 3.001471 20.606216 3.039719 20.214394 3.116216 19.82741 C 3.192712 19.445263 3.307456 19.067954 3.455668 18.705156 C 3.60866 18.337521 3.790339 17.994073 4.010265 17.665136 C 4.230192 17.341037 4.478805 17.036287 4.756104 16.755723 C 5.038183 16.479997 5.339387 16.228457 5.664496 16.010779 C 5.994386 15.7931 6.338619 15.609283 6.701976 15.454489 C 7.070115 15.304533 7.443034 15.193275 7.830296 15.115878 C 8.217558 15.038481 8.60482 14.999783 9.001644 14.999783 C 9.393687 14.999783 9.785731 15.038481 10.168212 15.115878 C 10.555474 15.193275 10.933174 15.304533 11.296531 15.454489 C 11.659888 15.609283 12.004121 15.7931 12.334011 16.010779 C 12.65912 16.228457 12.965105 16.479997 13.242404 16.755723 C 13.519703 17.036287 13.768316 17.341037 13.988242 17.665136 C 14.208169 17.994073 14.394628 18.337521 14.54284 18.705156 C 14.695832 19.067954 14.805796 19.445263 14.887073 19.82741 C 14.963569 20.214394 15.001817 20.606216 15.001817 20.998037 Z M 15.001817 20.998037 " stroke="#000000" stroke-width="2" stroke-opacity="1" stroke-miterlimit="10"/><g clip-path="url(#ceebf2e11b)"><path stroke-linecap="round" transform="matrix(0.817034, 0, 0, 0.807527, 0.153165, -1.581473)" fill="none" stroke-linejoin="round" d="M 17.000281 35.002027 C 17.000281 30.600082 13.400178 27.001129 9.001644 27.001129 C 4.59833 27.001129 0.998226 30.600082 0.998226 35.002027 C 0.998226 35.901765 0.998226 39.500718 0.998226 39.500718 C 0.998226 39.500718 3.001471 41.000281 9.001644 41.000281 C 15.001817 41.000281 17.000281 39.500718 17.000281 39.500718 C 17.000281 39.500718 17.000281 35.901765 17.000281 35.002027 Z M 17.000281 35.002027 " stroke="#000000" stroke-width="2" stroke-opacity="1" stroke-miterlimit="10"/></g><path stroke-linecap="round" transform="matrix(0.817034, 0, 0, 0.807527, 0.153165, -1.581473)" fill="none" stroke-linejoin="round" d="M 23.999686 20.799708 C 23.999686 20.799708 23.999686 20.301466 23.999686 20.001553 C 23.999686 16.09785 20.901589 13.001977 17.000281 13.001977 C 14.801015 13.001977 12.898171 13.998461 11.597735 15.599608 " stroke="#000000" stroke-width="2" stroke-opacity="1" stroke-miterlimit="10"/><g clip-path="url(#64750d06bb)"><path stroke-linecap="round" transform="matrix(0.817034, 0, 0, 0.807527, 0.153165, -1.581473)" fill="none" stroke-linejoin="round" d="M 37.797694 8.000207 C 37.797694 8.329143 37.769008 8.653242 37.702073 8.977342 C 37.63992 9.296604 37.5443 9.611028 37.419994 9.915778 C 37.295687 10.215691 37.137914 10.505929 36.956235 10.776818 C 36.774557 11.052544 36.568973 11.304084 36.334703 11.536274 C 36.105215 11.768465 35.851821 11.976469 35.579303 12.155449 C 35.306785 12.339267 35.015143 12.49406 34.713939 12.61983 C 34.407955 12.7456 34.097189 12.837509 33.776861 12.905231 C 33.451752 12.968116 33.126643 13.001977 32.801534 13.001977 C 32.471644 13.001977 32.146535 12.968116 31.826207 12.905231 C 31.501098 12.837509 31.190332 12.7456 30.884347 12.61983 C 30.583143 12.49406 30.296282 12.339267 30.023764 12.155449 C 29.751247 11.976469 29.497853 11.768465 29.263583 11.536274 C 29.034094 11.304084 28.82373 11.052544 28.642051 10.776818 C 28.460373 10.505929 28.30738 10.215691 28.178293 9.915778 C 28.053986 9.611028 27.958366 9.296604 27.896213 8.977342 C 27.83406 8.653242 27.800593 8.329143 27.800593 8.000207 C 27.800593 7.67127 27.83406 7.347171 27.896213 7.023072 C 27.958366 6.70381 28.053986 6.389385 28.178293 6.084635 C 28.30738 5.784722 28.460373 5.494484 28.642051 5.223595 C 28.82373 4.947869 29.034094 4.696329 29.263583 4.464139 C 29.497853 4.231948 29.751247 4.023944 30.023764 3.844964 C 30.296282 3.661147 30.583143 3.506353 30.884347 3.380583 C 31.190332 3.254813 31.501098 3.158067 31.826207 3.095182 C 32.146535 3.032297 32.471644 2.998436 32.801534 2.998436 C 33.126643 2.998436 33.451752 3.032297 33.776861 3.095182 C 34.097189 3.158067 34.407955 3.254813 34.713939 3.380583 C 35.015143 3.506353 35.306785 3.661147 35.579303 3.844964 C 35.851821 4.023944 36.105215 4.231948 36.334703 4.464139 C 36.568973 4.696329 36.774557 4.947869 36.956235 5.223595 C 37.137914 5.494484 37.295687 5.784722 37.419994 6.084635 C 37.5443 6.389385 37.63992 6.70381 37.702073 7.023072 C 37.769008 7.347171 37.797694 7.67127 37.797694 8.000207 Z M 37.797694 8.000207 " stroke="#000000" stroke-width="2" stroke-opacity="1" stroke-miterlimit="10"/></g><path stroke-linecap="round" transform="matrix(0.817034, 0, 0, 0.807527, 0.153165, -1.581473)" fill="none" stroke-linejoin="round" d="M 25.802129 20.799708 C 25.802129 20.799708 25.802129 20.301466 25.802129 20.001553 C 25.802129 16.09785 28.900226 13.001977 32.801534 13.001977 C 35.0008 13.001977 36.898863 13.998461 38.199299 15.599608 " stroke="#000000" stroke-width="2" stroke-opacity="1" stroke-miterlimit="10"/></svg>