<svg xmlns="http://www.w3.org/2000/svg" xmlns:xlink="http://www.w3.org/1999/xlink" width="70" zoomAndPan="magnify" viewBox="0 0 52.5 52.499999" height="70" preserveAspectRatio="xMidYMid meet" version="1.0"><defs><clipPath id="4d72affd9f"><path d="M 14.105469 14.742188 L 51 14.742188 L 51 50.402344 L 14.105469 50.402344 Z M 14.105469 14.742188 " clip-rule="nonzero"/></clipPath><clipPath id="639b28cd0d"><path d="M 1.039062 0 L 41.15625 0 L 41.15625 40.117188 L 1.039062 40.117188 Z M 1.039062 0 " clip-rule="nonzero"/></clipPath></defs><g clip-path="url(#4d72affd9f)"><path fill="#9614d0" d="M 31.566406 41.234375 L 31.640625 50.273438 C 28.507812 48.46875 26.078125 45.980469 24.351562 42.808594 C 26.660156 41.855469 29.066406 41.328125 31.566406 41.234375 Z M 40.578125 42.808594 C 38.160156 41.796875 35.636719 41.265625 33.015625 41.21875 L 33.015625 50.273438 C 34.609375 49.417969 36.046875 48.359375 37.335938 47.085938 C 38.621094 45.816406 39.703125 44.390625 40.578125 42.808594 Z M 35.921875 50.171875 C 37.648438 49.835938 39.289062 49.257812 40.84375 48.441406 C 42.402344 47.625 43.808594 46.601562 45.0625 45.371094 C 44.070312 44.617188 43.011719 43.96875 41.894531 43.417969 C 40.425781 46.128906 38.433594 48.378906 35.921875 50.171875 Z M 44.714844 32.335938 C 44.734375 35.761719 44.015625 39.027344 42.5625 42.128906 C 43.796875 42.742188 44.957031 43.46875 46.046875 44.3125 C 47.5 42.660156 48.609375 40.800781 49.378906 38.734375 C 50.144531 36.671875 50.519531 34.539062 50.503906 32.335938 Z M 41.257812 41.492188 C 42.625 38.59375 43.292969 35.542969 43.269531 32.335938 L 33.015625 32.335938 L 33.015625 39.773438 C 35.871094 39.820312 38.613281 40.402344 41.246094 41.523438 C 41.246094 41.507812 41.257812 41.507812 41.257812 41.492188 Z M 41.257812 23.425781 C 38.617188 24.507812 35.867188 25.085938 33.015625 25.164062 L 33.015625 30.890625 L 43.210938 30.890625 C 43.027344 28.28125 42.378906 25.792969 41.257812 23.425781 Z M 42.574219 22.820312 C 43.78125 25.378906 44.476562 28.066406 44.660156 30.890625 L 50.429688 30.890625 C 50.269531 28.988281 49.816406 27.160156 49.070312 25.40625 C 48.320312 23.648438 47.320312 22.054688 46.0625 20.621094 C 44.960938 21.453125 43.796875 22.175781 42.5625 22.789062 C 42.5625 22.804688 42.574219 22.804688 42.574219 22.820312 Z M 41.894531 21.515625 C 43.011719 20.957031 44.066406 20.300781 45.0625 19.550781 C 43.804688 18.324219 42.402344 17.304688 40.847656 16.488281 C 39.292969 15.667969 37.65625 15.089844 35.9375 14.746094 C 38.441406 16.546875 40.429688 18.800781 41.894531 21.515625 Z M 33.015625 14.835938 L 33.015625 23.714844 C 35.632812 23.65625 38.15625 23.125 40.578125 22.125 C 39.710938 20.558594 38.632812 19.15625 37.34375 17.914062 C 36.054688 16.671875 34.609375 15.644531 33.015625 14.835938 Z M 31.566406 14.835938 C 28.46875 16.574219 26.058594 19 24.335938 22.109375 C 26.652344 23.070312 29.0625 23.597656 31.566406 23.703125 Z M 31.566406 25.148438 C 28.828125 25.046875 26.195312 24.460938 23.667969 23.398438 C 22.558594 25.777344 21.910156 28.273438 21.71875 30.890625 L 31.566406 30.890625 Z M 31.566406 39.785156 L 31.566406 32.335938 L 21.660156 32.335938 C 21.636719 35.550781 22.308594 38.613281 23.667969 41.523438 C 26.195312 40.457031 28.828125 39.875 31.566406 39.785156 Z M 23.035156 43.417969 C 21.914062 43.96875 20.859375 44.617188 19.867188 45.371094 C 21.117188 46.59375 22.515625 47.617188 24.066406 48.433594 C 25.613281 49.25 27.246094 49.828125 28.964844 50.171875 C 26.476562 48.367188 24.5 46.117188 23.035156 43.417969 Z M 20.210938 32.335938 L 14.425781 32.335938 C 14.414062 34.539062 14.789062 36.671875 15.558594 38.734375 C 16.324219 40.796875 17.433594 42.65625 18.882812 44.3125 C 19.96875 43.46875 21.132812 42.742188 22.367188 42.128906 C 20.914062 39.027344 20.195312 35.761719 20.210938 32.335938 Z M 22.367188 22.789062 C 21.132812 22.175781 19.96875 21.453125 18.867188 20.621094 C 18.859375 20.621094 18.851562 20.625 18.851562 20.636719 C 17.601562 22.070312 16.601562 23.664062 15.859375 25.414062 C 15.117188 27.167969 14.660156 28.992188 14.5 30.890625 L 20.269531 30.890625 C 20.449219 28.054688 21.148438 25.355469 22.367188 22.789062 Z M 29.035156 14.746094 C 27.304688 15.082031 25.660156 15.660156 24.097656 16.476562 C 22.539062 17.296875 21.125 18.320312 19.867188 19.550781 C 20.863281 20.300781 21.917969 20.957031 23.035156 21.515625 C 24.507812 18.792969 26.507812 16.535156 29.035156 14.746094 Z M 29.035156 14.746094 " fill-opacity="1" fill-rule="nonzero"/></g><g clip-path="url(#639b28cd0d)"><path fill="#000000" d="M 31.679688 12.949219 C 30.136719 12.949219 28.882812 14.207031 28.882812 15.746094 C 28.882812 15.777344 28.882812 15.808594 28.882812 15.839844 C 26.839844 16.855469 25.398438 18.84375 25.089844 21.109375 C 25.085938 21.132812 25.085938 21.15625 25.085938 21.179688 L 25.085938 27.632812 C 25.085938 30.449219 22.792969 32.738281 19.976562 32.738281 C 17.484375 32.738281 15.371094 30.925781 14.945312 28.519531 L 15.292969 28.519531 C 15.570312 28.519531 15.792969 28.296875 15.792969 28.019531 L 15.792969 26.371094 C 16.503906 26.148438 17.160156 25.765625 17.710938 25.238281 C 18.507812 24.488281 19.078125 23.457031 19.363281 22.257812 L 20.140625 18.992188 C 20.171875 18.863281 20.152344 18.726562 20.082031 18.617188 C 20.011719 18.503906 19.902344 18.421875 19.773438 18.390625 L 19.394531 18.300781 L 20.820312 13.304688 C 21.253906 11.789062 20.953125 10.195312 20.003906 8.9375 C 19.3125 8.019531 18.34375 7.382812 17.246094 7.105469 C 17.105469 6.585938 16.632812 6.199219 16.066406 6.199219 C 15.394531 6.199219 14.84375 6.75 14.84375 7.425781 C 14.84375 8.097656 15.394531 8.648438 16.066406 8.648438 C 16.492188 8.648438 16.871094 8.429688 17.089844 8.097656 C 17.929688 8.328125 18.671875 8.828125 19.207031 9.539062 C 19.96875 10.542969 20.203125 11.816406 19.859375 13.03125 L 18.421875 18.070312 L 17.96875 17.960938 C 17.839844 17.929688 17.703125 17.953125 17.59375 18.023438 C 17.480469 18.089844 17.398438 18.203125 17.367188 18.332031 L 16.589844 21.597656 C 16.277344 22.902344 15.40625 23.742188 14.367188 23.742188 C 13.328125 23.742188 12.457031 22.902344 12.148438 21.597656 L 11.367188 18.332031 C 11.304688 18.0625 11.035156 17.898438 10.765625 17.960938 L 10.3125 18.070312 L 8.875 13.03125 C 8.53125 11.820312 8.769531 10.546875 9.527344 9.539062 C 10.09375 8.789062 10.882812 8.277344 11.777344 8.0625 C 11.992188 8.414062 12.378906 8.648438 12.816406 8.648438 C 13.492188 8.648438 14.042969 8.097656 14.042969 7.425781 C 14.042969 6.75 13.492188 6.199219 12.816406 6.199219 C 12.265625 6.199219 11.800781 6.566406 11.648438 7.070312 C 10.484375 7.320312 9.460938 7.972656 8.730469 8.9375 C 7.78125 10.195312 7.484375 11.789062 7.914062 13.304688 L 9.339844 18.300781 L 8.964844 18.390625 C 8.835938 18.421875 8.722656 18.503906 8.65625 18.617188 C 8.585938 18.726562 8.5625 18.863281 8.59375 18.992188 L 9.375 22.257812 C 9.660156 23.457031 10.230469 24.488281 11.023438 25.238281 C 11.578125 25.765625 12.234375 26.148438 12.941406 26.371094 L 12.941406 28.019531 C 12.941406 28.292969 13.167969 28.519531 13.441406 28.519531 L 13.933594 28.519531 C 14.371094 31.480469 16.9375 33.738281 19.976562 33.738281 C 23.34375 33.738281 26.082031 31 26.082031 27.628906 L 26.082031 21.210938 C 26.347656 19.367188 27.484375 17.742188 29.109375 16.847656 C 29.535156 17.84375 30.527344 18.542969 31.679688 18.542969 C 33.222656 18.542969 34.476562 17.289062 34.476562 15.746094 C 34.476562 14.207031 33.222656 12.949219 31.679688 12.949219 Z M 16.066406 7.648438 C 15.945312 7.648438 15.84375 7.546875 15.84375 7.425781 C 15.84375 7.300781 15.945312 7.199219 16.066406 7.199219 C 16.191406 7.199219 16.292969 7.300781 16.292969 7.425781 C 16.292969 7.546875 16.191406 7.648438 16.066406 7.648438 Z M 12.816406 7.199219 C 12.941406 7.199219 13.042969 7.300781 13.042969 7.425781 C 13.042969 7.550781 12.941406 7.648438 12.816406 7.648438 C 12.695312 7.648438 12.59375 7.550781 12.59375 7.425781 C 12.59375 7.300781 12.695312 7.199219 12.816406 7.199219 Z M 13.550781 25.5 C 12.867188 25.351562 12.230469 25.007812 11.710938 24.515625 C 11.058594 23.894531 10.585938 23.035156 10.34375 22.027344 L 9.683594 19.246094 L 10.511719 19.050781 L 11.175781 21.832031 C 11.597656 23.601562 12.851562 24.742188 14.367188 24.742188 C 15.886719 24.742188 17.140625 23.597656 17.5625 21.832031 L 18.226562 19.050781 L 19.054688 19.246094 L 18.390625 22.027344 C 18.152344 23.035156 17.679688 23.894531 17.027344 24.515625 C 16.503906 25.007812 15.871094 25.351562 15.1875 25.5 C 14.960938 25.550781 14.796875 25.753906 14.796875 25.988281 L 14.796875 27.519531 L 13.941406 27.519531 L 13.941406 25.988281 C 13.941406 25.753906 13.777344 25.550781 13.550781 25.5 Z M 31.679688 17.546875 C 30.6875 17.546875 29.882812 16.738281 29.882812 15.746094 C 29.882812 14.757812 30.6875 13.949219 31.679688 13.949219 C 32.671875 13.949219 33.476562 14.757812 33.476562 15.746094 C 33.476562 16.738281 32.671875 17.546875 31.679688 17.546875 Z M 31.679688 14.351562 C 30.910156 14.351562 30.285156 14.976562 30.285156 15.746094 C 30.285156 16.515625 30.910156 17.140625 31.679688 17.140625 C 32.449219 17.140625 33.074219 16.515625 33.074219 15.746094 C 33.074219 14.976562 32.449219 14.351562 31.679688 14.351562 Z M 31.679688 16.144531 C 31.460938 16.144531 31.285156 15.964844 31.285156 15.746094 C 31.285156 15.53125 31.460938 15.351562 31.679688 15.351562 C 31.898438 15.351562 32.074219 15.53125 32.074219 15.746094 C 32.074219 15.964844 31.898438 16.144531 31.679688 16.144531 Z M 41.15625 20.058594 C 41.15625 14.703125 39.070312 9.664062 35.28125 5.875 C 31.492188 2.085938 26.457031 0 21.097656 0 C 15.742188 0 10.703125 2.085938 6.914062 5.875 C 3.125 9.664062 1.039062 14.703125 1.039062 20.058594 C 1.039062 25.417969 3.125 30.453125 6.914062 34.242188 C 10.703125 38.03125 15.742188 40.117188 21.097656 40.117188 C 24.113281 40.117188 27 39.46875 29.695312 38.183594 C 30.410156 38.886719 31.289062 39.4375 32.285156 39.773438 C 32.335938 39.789062 32.390625 39.796875 32.441406 39.796875 C 32.652344 39.796875 32.84375 39.664062 32.914062 39.457031 C 33.003906 39.195312 32.863281 38.910156 32.601562 38.824219 C 30.257812 38.042969 28.683594 35.855469 28.683594 33.382812 C 28.683594 30.21875 31.257812 27.644531 34.421875 27.644531 C 37.585938 27.644531 40.160156 30.21875 40.160156 33.382812 C 40.160156 33.847656 40.101562 34.3125 39.992188 34.761719 C 39.925781 35.027344 40.089844 35.296875 40.359375 35.363281 C 40.625 35.429688 40.898438 35.265625 40.960938 35 C 41.09375 34.472656 41.15625 33.929688 41.15625 33.378906 C 41.15625 31.542969 40.417969 29.878906 39.222656 28.660156 C 40.503906 25.964844 41.15625 23.074219 41.15625 20.058594 Z M 27.683594 33.382812 C 27.683594 34.867188 28.171875 36.269531 29.015625 37.402344 C 26.527344 38.542969 23.867188 39.117188 21.097656 39.117188 C 10.589844 39.117188 2.039062 30.570312 2.039062 20.058594 C 2.039062 9.550781 10.589844 1 21.097656 1 C 31.609375 1 40.160156 9.550781 40.160156 20.058594 C 40.160156 22.828125 39.582031 25.488281 38.441406 27.976562 C 37.316406 27.140625 35.925781 26.644531 34.421875 26.644531 C 30.707031 26.644531 27.683594 29.667969 27.683594 33.382812 Z M 38.816406 36.121094 L 35.863281 36.121094 C 35.585938 36.121094 35.363281 35.898438 35.363281 35.625 C 35.363281 35.347656 35.585938 35.125 35.863281 35.125 L 38.816406 35.125 C 39.089844 35.125 39.316406 35.347656 39.316406 35.625 C 39.316406 35.898438 39.09375 36.121094 38.816406 36.121094 Z M 38.109375 36.457031 C 38.386719 36.457031 38.609375 36.679688 38.609375 36.957031 C 38.609375 37.230469 38.386719 37.453125 38.109375 37.453125 L 35.15625 37.453125 C 34.878906 37.453125 34.65625 37.230469 34.65625 36.957031 C 34.65625 36.679688 34.878906 36.457031 35.15625 36.457031 Z M 39.964844 38.285156 C 39.964844 38.5625 39.742188 38.785156 39.464844 38.785156 L 36.511719 38.785156 C 36.238281 38.785156 36.011719 38.5625 36.011719 38.285156 C 36.011719 38.011719 36.238281 37.789062 36.511719 37.789062 L 39.464844 37.789062 C 39.742188 37.789062 39.964844 38.011719 39.964844 38.285156 Z M 38.585938 39.617188 C 38.585938 39.894531 38.363281 40.117188 38.085938 40.117188 L 35.132812 40.117188 C 34.859375 40.117188 34.632812 39.894531 34.632812 39.617188 C 34.632812 39.34375 34.859375 39.117188 35.132812 39.117188 L 38.085938 39.117188 C 38.363281 39.117188 38.585938 39.34375 38.585938 39.617188 Z M 35.496094 33.648438 C 35.515625 33.558594 35.527344 33.472656 35.527344 33.382812 C 35.527344 33.15625 35.460938 32.945312 35.34375 32.769531 L 37.089844 29.699219 C 37.226562 29.460938 37.144531 29.15625 36.902344 29.019531 C 36.664062 28.882812 36.359375 28.964844 36.222656 29.207031 L 34.476562 32.277344 C 34.457031 32.277344 34.441406 32.277344 34.421875 32.277344 C 34.199219 32.277344 33.992188 32.34375 33.816406 32.457031 L 31.808594 31.296875 C 31.566406 31.15625 31.261719 31.238281 31.125 31.476562 C 30.984375 31.71875 31.070312 32.023438 31.308594 32.160156 L 33.320312 33.320312 C 33.316406 33.34375 33.316406 33.363281 33.316406 33.382812 C 33.316406 33.992188 33.8125 34.488281 34.421875 34.488281 C 34.929688 34.488281 35.375 34.140625 35.496094 33.648438 Z M 34.527344 33.40625 C 34.515625 33.449219 34.476562 33.488281 34.421875 33.488281 C 34.363281 33.488281 34.3125 33.441406 34.3125 33.382812 C 34.3125 33.320312 34.363281 33.273438 34.421875 33.273438 C 34.480469 33.273438 34.527344 33.320312 34.527344 33.382812 C 34.527344 33.390625 34.527344 33.398438 34.527344 33.40625 Z M 34.527344 33.40625 " fill-opacity="1" fill-rule="nonzero"/></g></svg>