<svg xmlns="http://www.w3.org/2000/svg" xmlns:xlink="http://www.w3.org/1999/xlink" width="70" zoomAndPan="magnify" viewBox="0 0 52.5 52.499999" height="70" preserveAspectRatio="xMidYMid meet" version="1.0"><defs><clipPath id="da6a76ffd5"><path d="M 15 24.671875 L 50 24.671875 L 50 39 L 15 39 Z M 15 24.671875 " clip-rule="nonzero"/></clipPath><clipPath id="52b315bdf7"><path d="M 14.859375 28 L 50.519531 28 L 50.519531 49.929688 L 14.859375 49.929688 Z M 14.859375 28 " clip-rule="nonzero"/></clipPath><clipPath id="1378402e3d"><path d="M 1.929688 2.085938 L 30.164062 2.085938 L 30.164062 23.628906 L 1.929688 23.628906 Z M 1.929688 2.085938 " clip-rule="nonzero"/></clipPath></defs><g clip-path="url(#da6a76ffd5)"><path fill="#9614d0" d="M 30.234375 37.714844 C 30.566406 37.96875 30.929688 38.164062 31.324219 38.296875 C 31.722656 38.433594 32.128906 38.5 32.546875 38.5 C 32.964844 38.5 33.371094 38.433594 33.769531 38.296875 C 34.164062 38.164062 34.527344 37.96875 34.859375 37.714844 L 49.535156 26.28125 C 49.179688 25.777344 48.730469 25.382812 48.183594 25.097656 C 47.640625 24.8125 47.058594 24.671875 46.441406 24.671875 L 18.65625 24.671875 C 18.003906 24.671875 17.390625 24.832031 16.820312 25.152344 C 16.25 25.46875 15.792969 25.90625 15.449219 26.464844 Z M 30.234375 37.714844 " fill-opacity="1" fill-rule="nonzero"/></g><g clip-path="url(#52b315bdf7)"><path fill="#9614d0" d="M 36.40625 39.714844 C 35.855469 40.140625 35.25 40.464844 34.589844 40.6875 C 33.929688 40.914062 33.25 41.023438 32.554688 41.023438 C 31.859375 41.023438 31.179688 40.914062 30.519531 40.6875 C 29.859375 40.464844 29.253906 40.140625 28.703125 39.714844 L 14.867188 29.195312 L 14.867188 46.140625 C 14.867188 46.644531 14.964844 47.125 15.15625 47.589844 C 15.347656 48.054688 15.621094 48.464844 15.976562 48.820312 C 16.332031 49.175781 16.742188 49.449219 17.207031 49.640625 C 17.671875 49.832031 18.152344 49.929688 18.65625 49.929688 L 46.441406 49.929688 C 46.945312 49.929688 47.429688 49.832031 47.890625 49.640625 C 48.355469 49.449219 48.765625 49.175781 49.121094 48.820312 C 49.476562 48.464844 49.75 48.054688 49.941406 47.589844 C 50.136719 47.125 50.230469 46.644531 50.230469 46.140625 L 50.230469 28.945312 Z M 36.40625 39.714844 " fill-opacity="1" fill-rule="nonzero"/></g><g clip-path="url(#1378402e3d)"><path fill="#000000" d="M 22.636719 16.777344 C 22.605469 16.746094 22.605469 16.683594 22.605469 16.621094 L 22.605469 10.679688 C 22.605469 7.289062 20.011719 4.519531 16.671875 4.179688 L 16.671875 2.75 C 16.671875 2.40625 16.390625 2.125 16.046875 2.125 C 15.703125 2.125 15.421875 2.40625 15.421875 2.75 L 15.421875 4.179688 C 12.113281 4.488281 9.488281 7.289062 9.488281 10.679688 L 9.488281 16.652344 C 9.488281 16.714844 9.457031 16.746094 9.425781 16.777344 L 7.863281 18.332031 C 7.585938 18.613281 7.460938 18.957031 7.460938 19.359375 L 7.460938 19.828125 C 7.460938 20.605469 8.113281 21.257812 8.894531 21.257812 L 13.269531 21.257812 C 13.488281 22.5625 14.640625 23.589844 16.046875 23.589844 C 17.453125 23.589844 18.609375 22.59375 18.828125 21.257812 L 23.199219 21.257812 C 23.980469 21.257812 24.636719 20.605469 24.636719 19.828125 L 24.636719 19.359375 C 24.636719 18.988281 24.480469 18.613281 24.230469 18.332031 Z M 16.046875 22.347656 C 15.359375 22.347656 14.765625 21.878906 14.578125 21.257812 L 17.546875 21.257812 C 17.328125 21.878906 16.734375 22.347656 16.046875 22.347656 Z M 23.386719 19.828125 C 23.386719 19.917969 23.292969 20.011719 23.199219 20.011719 L 8.894531 20.011719 C 8.800781 20.011719 8.707031 19.917969 8.707031 19.828125 L 8.707031 19.359375 C 8.707031 19.296875 8.738281 19.265625 8.769531 19.234375 L 10.332031 17.679688 C 10.613281 17.398438 10.738281 17.058594 10.738281 16.652344 L 10.738281 10.679688 C 10.738281 7.789062 13.113281 5.390625 16.046875 5.390625 C 18.984375 5.390625 21.355469 7.757812 21.355469 10.679688 L 21.355469 16.652344 C 21.355469 17.027344 21.511719 17.398438 21.761719 17.679688 L 23.324219 19.234375 C 23.355469 19.265625 23.386719 19.328125 23.386719 19.359375 Z M 7.492188 16.125 C 7.367188 16.25 7.210938 16.3125 7.054688 16.3125 C 6.898438 16.3125 6.742188 16.25 6.617188 16.125 C 5.617188 15.128906 5.054688 13.792969 5.054688 12.390625 C 5.054688 10.992188 5.617188 9.652344 6.617188 8.660156 C 6.867188 8.410156 7.242188 8.410156 7.492188 8.660156 C 7.738281 8.90625 7.738281 9.28125 7.492188 9.53125 C 6.710938 10.308594 6.304688 11.304688 6.304688 12.390625 C 6.304688 13.480469 6.742188 14.476562 7.492188 15.253906 C 7.738281 15.503906 7.738281 15.875 7.492188 16.125 Z M 5.273438 17.460938 C 5.523438 17.710938 5.523438 18.085938 5.273438 18.332031 C 5.148438 18.457031 4.992188 18.519531 4.835938 18.519531 C 4.679688 18.519531 4.523438 18.457031 4.398438 18.332031 C 2.804688 16.746094 1.929688 14.632812 1.929688 12.390625 C 1.929688 10.152344 2.804688 8.035156 4.398438 6.449219 C 4.648438 6.199219 5.023438 6.199219 5.273438 6.449219 C 5.523438 6.699219 5.523438 7.070312 5.273438 7.320312 C 3.929688 8.660156 3.179688 10.460938 3.179688 12.390625 C 3.179688 14.320312 3.929688 16.09375 5.273438 17.460938 Z M 25.476562 16.125 C 25.351562 16.25 25.199219 16.3125 25.042969 16.3125 C 24.886719 16.3125 24.730469 16.25 24.605469 16.125 C 24.355469 15.875 24.355469 15.503906 24.605469 15.253906 C 26.195312 13.667969 26.195312 11.117188 24.605469 9.53125 C 24.355469 9.28125 24.355469 8.90625 24.605469 8.660156 C 24.855469 8.410156 25.230469 8.410156 25.476562 8.660156 C 27.539062 10.710938 27.539062 14.070312 25.476562 16.125 Z M 30.164062 12.390625 C 30.164062 14.632812 29.289062 16.746094 27.695312 18.332031 C 27.570312 18.457031 27.414062 18.519531 27.257812 18.519531 C 27.101562 18.519531 26.945312 18.457031 26.820312 18.332031 C 26.570312 18.085938 26.570312 17.710938 26.820312 17.460938 C 28.164062 16.125 28.914062 14.320312 28.914062 12.390625 C 28.914062 10.460938 28.164062 8.691406 26.820312 7.320312 C 26.570312 7.070312 26.570312 6.699219 26.820312 6.449219 C 27.070312 6.199219 27.445312 6.199219 27.695312 6.449219 C 29.289062 8.035156 30.164062 10.152344 30.164062 12.390625 Z M 30.164062 12.390625 " fill-opacity="1" fill-rule="nonzero"/></g></svg>