<?xml version="1.0" encoding="UTF-8" standalone="no" ?>
<!DOCTYPE svg PUBLIC "-//W3C//DTD SVG 1.1//EN" "http://www.w3.org/Graphics/SVG/1.1/DTD/svg11.dtd">
<svg xmlns="http://www.w3.org/2000/svg" xmlns:xlink="http://www.w3.org/1999/xlink" version="1.1" width="270" height="40" viewBox="0 0 270 40" xml:space="preserve">
<desc>Created with Fabric.js 5.2.4</desc>
<defs>
</defs>
<g transform="matrix(1 0 0 1 135 20)" id="8c67344f-1cd9-4ae3-8664-2cb10f65ef97"  >
<rect style="stroke: none; stroke-width: 1; stroke-dasharray: none; stroke-linecap: butt; stroke-dashoffset: 0; stroke-linejoin: miter; stroke-miterlimit: 4; fill: rgb(255,255,255); fill-rule: nonzero; opacity: 1; visibility: hidden;" vector-effect="non-scaling-stroke"  x="-135" y="-20" rx="0" ry="0" width="270" height="40" />
</g>
<g transform="matrix(Infinity NaN NaN Infinity 0 0)" id="25cd72dc-3b5f-4844-81a9-451063c9bef6"  >
</g>
<g transform="matrix(1 0 0 1 135 20)"  >
<g style="" vector-effect="non-scaling-stroke"   >
		<g transform="matrix(1 0 0 1 0 0)"  >
<rect style="stroke: none; stroke-width: 1; stroke-dasharray: none; stroke-linecap: butt; stroke-dashoffset: 0; stroke-linejoin: miter; stroke-miterlimit: 4; fill: rgb(255,255,255); fill-rule: nonzero; opacity: 1; visibility: hidden;" vector-effect="non-scaling-stroke"  x="-600" y="-100" rx="0" ry="0" width="1200" height="200" />
</g>
		<g transform="matrix(1.33 0 0 1.33 -182.02 -23.23)"  >
<path style="stroke: none; stroke-width: 1; stroke-dasharray: none; stroke-linecap: butt; stroke-dashoffset: 0; stroke-linejoin: miter; stroke-miterlimit: 4; fill: rgb(255,247,83); fill-rule: nonzero; opacity: 1;" vector-effect="non-scaling-stroke"  transform=" translate(-48.29, -177.9)" d="M 33.9375 165.140625 C 35.519531 165.140625 37.09375 165.265625 38.660156 165.511719 C 40.222656 165.761719 41.757812 166.128906 43.265625 166.617188 C 44.769531 167.109375 46.230469 167.710938 47.640625 168.429688 C 49.050781 169.152344 50.398438 169.976562 51.679688 170.90625 C 52.960938 171.835938 54.160156 172.863281 55.28125 173.984375 C 56.402344 175.101562 57.425781 176.304688 58.359375 177.585938 C 59.289062 178.867188 60.113281 180.210938 60.832031 181.625 C 61.550781 183.035156 62.15625 184.492188 62.644531 186 L 48.292969 190.664062 C 48.046875 189.910156 47.746094 189.179688 47.386719 188.476562 C 47.023438 187.769531 46.613281 187.097656 46.148438 186.457031 C 45.683594 185.816406 45.167969 185.214844 44.609375 184.65625 C 44.050781 184.09375 43.449219 183.582031 42.808594 183.117188 C 42.167969 182.652344 41.496094 182.238281 40.789062 181.878906 C 40.082031 181.519531 39.355469 181.21875 38.601562 180.972656 C 37.847656 180.730469 37.078125 180.542969 36.296875 180.421875 C 35.515625 180.296875 34.730469 180.234375 33.9375 180.234375 Z M 33.9375 165.140625" stroke-linecap="round" />
</g>
		<g transform="matrix(1.33 0 0 1.33 -175.12 10.05)"  >
<path style="stroke: none; stroke-width: 1; stroke-dasharray: none; stroke-linecap: butt; stroke-dashoffset: 0; stroke-linejoin: miter; stroke-miterlimit: 4; fill: rgb(177,237,103); fill-rule: nonzero; opacity: 1;" vector-effect="non-scaling-stroke"  transform=" translate(-53.47, -202.88)" d="M 62.644531 186 C 63.136719 187.507812 63.503906 189.042969 63.75 190.605469 C 64 192.171875 64.125 193.742188 64.125 195.328125 C 64.125 196.910156 64 198.484375 63.75 200.050781 C 63.503906 201.613281 63.136719 203.148438 62.644531 204.65625 C 62.15625 206.164062 61.550781 207.621094 60.832031 209.03125 C 60.113281 210.445312 59.289062 211.789062 58.359375 213.070312 C 57.425781 214.351562 56.402344 215.554688 55.28125 216.671875 C 54.160156 217.792969 52.960938 218.820312 51.679688 219.75 L 42.808594 207.539062 C 43.449219 207.074219 44.050781 206.558594 44.609375 206 C 45.167969 205.441406 45.683594 204.839844 46.148438 204.199219 C 46.613281 203.558594 47.023438 202.886719 47.386719 202.179688 C 47.746094 201.472656 48.046875 200.746094 48.292969 199.992188 C 48.535156 199.238281 48.71875 198.472656 48.84375 197.6875 C 48.96875 196.90625 49.03125 196.121094 49.03125 195.328125 C 49.03125 194.535156 48.96875 193.75 48.84375 192.964844 C 48.71875 192.183594 48.535156 191.417969 48.292969 190.664062 Z M 62.644531 186" stroke-linecap="round" />
</g>
		<g transform="matrix(1.33 0 0 1.33 -201.16 28.27)"  >
<path style="stroke: none; stroke-width: 1; stroke-dasharray: none; stroke-linecap: butt; stroke-dashoffset: 0; stroke-linejoin: miter; stroke-miterlimit: 4; fill: rgb(107,220,133); fill-rule: nonzero; opacity: 1;" vector-effect="non-scaling-stroke"  transform=" translate(-33.94, -216.53)" d="M 51.679688 219.75 C 50.398438 220.679688 49.050781 221.503906 47.640625 222.222656 C 46.230469 222.945312 44.769531 223.546875 43.265625 224.035156 C 41.757812 224.527344 40.222656 224.894531 38.660156 225.144531 C 37.09375 225.390625 35.519531 225.515625 33.9375 225.515625 C 32.351562 225.515625 30.777344 225.390625 29.214844 225.144531 C 27.648438 224.894531 26.113281 224.527344 24.609375 224.035156 C 23.101562 223.546875 21.644531 222.945312 20.230469 222.222656 C 18.820312 221.503906 17.476562 220.679688 16.195312 219.75 L 25.066406 207.539062 C 25.707031 208.003906 26.378906 208.417969 27.085938 208.777344 C 27.789062 209.136719 28.519531 209.4375 29.273438 209.683594 C 30.027344 209.925781 30.792969 210.113281 31.574219 210.234375 C 32.359375 210.359375 33.144531 210.421875 33.9375 210.421875 C 34.730469 210.421875 35.515625 210.359375 36.296875 210.234375 C 37.078125 210.113281 37.847656 209.925781 38.601562 209.683594 C 39.355469 209.4375 40.082031 209.136719 40.789062 208.777344 C 41.496094 208.417969 42.167969 208.003906 42.808594 207.539062 Z M 51.679688 219.75" stroke-linecap="round" />
</g>
		<g transform="matrix(1.33 0 0 1.33 -227.2 10.05)"  >
<path style="stroke: none; stroke-width: 1; stroke-dasharray: none; stroke-linecap: butt; stroke-dashoffset: 0; stroke-linejoin: miter; stroke-miterlimit: 4; fill: rgb(42,198,157); fill-rule: nonzero; opacity: 1;" vector-effect="non-scaling-stroke"  transform=" translate(-14.41, -202.88)" d="M 16.195312 219.75 C 14.910156 218.820312 13.710938 217.792969 12.589844 216.671875 C 11.472656 215.554688 10.445312 214.351562 9.515625 213.070312 C 8.585938 211.789062 7.757812 210.445312 7.039062 209.03125 C 6.320312 207.621094 5.71875 206.164062 5.226562 204.65625 C 4.738281 203.148438 4.371094 201.613281 4.121094 200.050781 C 3.875 198.484375 3.75 196.910156 3.75 195.328125 C 3.75 193.742188 3.875 192.171875 4.121094 190.605469 C 4.371094 189.042969 4.738281 187.507812 5.226562 186 L 19.582031 190.664062 C 19.335938 191.417969 19.152344 192.183594 19.027344 192.964844 C 18.90625 193.75 18.84375 194.535156 18.84375 195.328125 C 18.84375 196.121094 18.90625 196.90625 19.027344 197.6875 C 19.152344 198.472656 19.335938 199.238281 19.582031 199.992188 C 19.828125 200.746094 20.128906 201.472656 20.488281 202.179688 C 20.847656 202.886719 21.261719 203.558594 21.726562 204.199219 C 22.191406 204.839844 22.703125 205.441406 23.265625 206 C 23.824219 206.558594 24.425781 207.074219 25.066406 207.539062 Z M 16.195312 219.75" stroke-linecap="round" />
</g>
		<g transform="matrix(1.33 0 0 1.33 -220.3 -23.23)"  >
<path style="stroke: none; stroke-width: 1; stroke-dasharray: none; stroke-linecap: butt; stroke-dashoffset: 0; stroke-linejoin: miter; stroke-miterlimit: 4; fill: rgb(0,173,169); fill-rule: nonzero; opacity: 1;" vector-effect="non-scaling-stroke"  transform=" translate(-19.58, -177.9)" d="M 5.226562 186 C 5.71875 184.492188 6.320312 183.035156 7.039062 181.625 C 7.757812 180.210938 8.582031 178.867188 9.515625 177.585938 C 10.445312 176.304688 11.472656 175.101562 12.589844 173.984375 C 13.710938 172.863281 14.910156 171.839844 16.191406 170.90625 C 17.472656 169.976562 18.820312 169.152344 20.230469 168.433594 C 21.640625 167.714844 23.101562 167.109375 24.605469 166.621094 C 26.113281 166.128906 27.648438 165.761719 29.210938 165.511719 C 30.777344 165.265625 32.351562 165.140625 33.933594 165.140625 L 33.933594 180.234375 C 33.144531 180.234375 32.355469 180.296875 31.574219 180.421875 C 30.792969 180.542969 30.023438 180.730469 29.269531 180.972656 C 28.519531 181.21875 27.789062 181.519531 27.082031 181.878906 C 26.378906 182.238281 25.703125 182.652344 25.0625 183.117188 C 24.421875 183.582031 23.824219 184.097656 23.261719 184.65625 C 22.703125 185.214844 22.191406 185.816406 21.726562 186.457031 C 21.261719 187.097656 20.847656 187.769531 20.488281 188.476562 C 20.128906 189.179688 19.828125 189.910156 19.582031 190.664062 Z M 5.226562 186" stroke-linecap="round" />
</g>
		<g transform="matrix(1.33 0 0 1.33 -133.53 3.84)"  >
<path style="stroke: none; stroke-width: 1; stroke-dasharray: none; stroke-linecap: butt; stroke-dashoffset: 0; stroke-linejoin: miter; stroke-miterlimit: 4; fill: rgb(0,0,0); fill-rule: nonzero; opacity: 1;" vector-effect="non-scaling-stroke"  transform=" translate(-14.14, 13.62)" d="M 9.3125 -26.75 L 9.546875 -23.65625 C 11.453125 -26.039062 14.015625 -27.234375 17.234375 -27.234375 C 20.066406 -27.234375 22.175781 -26.398438 23.5625 -24.734375 C 24.945312 -23.078125 25.65625 -20.59375 25.6875 -17.28125 L 25.6875 0 L 18.546875 0 L 18.546875 -17.109375 C 18.546875 -18.617188 18.210938 -19.71875 17.546875 -20.40625 C 16.890625 -21.09375 15.796875 -21.4375 14.265625 -21.4375 C 12.253906 -21.4375 10.742188 -20.578125 9.734375 -18.859375 L 9.734375 0 L 2.59375 0 L 2.59375 -26.75 Z M 9.3125 -26.75" stroke-linecap="round" />
</g>
		<g transform="matrix(1.33 0 0 1.33 -96.02 4.18)"  >
<path style="stroke: none; stroke-width: 1; stroke-dasharray: none; stroke-linecap: butt; stroke-dashoffset: 0; stroke-linejoin: miter; stroke-miterlimit: 4; fill: rgb(0,0,0); fill-rule: nonzero; opacity: 1;" vector-effect="non-scaling-stroke"  transform=" translate(-13.91, 13.37)" d="M 15.046875 0.5 C 11.128906 0.5 7.9375 -0.703125 5.46875 -3.109375 C 3.007812 -5.515625 1.78125 -8.722656 1.78125 -12.734375 L 1.78125 -13.421875 C 1.78125 -16.109375 2.296875 -18.507812 3.328125 -20.625 C 4.367188 -22.738281 5.84375 -24.367188 7.75 -25.515625 C 9.65625 -26.660156 11.828125 -27.234375 14.265625 -27.234375 C 17.921875 -27.234375 20.796875 -26.078125 22.890625 -23.765625 C 24.992188 -21.460938 26.046875 -18.195312 26.046875 -13.96875 L 26.046875 -11.046875 L 9.015625 -11.046875 C 9.253906 -9.296875 9.953125 -7.894531 11.109375 -6.84375 C 12.273438 -5.789062 13.75 -5.265625 15.53125 -5.265625 C 18.28125 -5.265625 20.425781 -6.257812 21.96875 -8.25 L 25.484375 -4.328125 C 24.410156 -2.804688 22.957031 -1.617188 21.125 -0.765625 C 19.300781 0.078125 17.273438 0.5 15.046875 0.5 Z M 14.234375 -21.453125 C 12.816406 -21.453125 11.664062 -20.972656 10.78125 -20.015625 C 9.90625 -19.066406 9.34375 -17.703125 9.09375 -15.921875 L 19.03125 -15.921875 L 19.03125 -16.484375 C 19 -18.066406 18.570312 -19.289062 17.75 -20.15625 C 16.925781 -21.019531 15.753906 -21.453125 14.234375 -21.453125 Z M 14.234375 -21.453125" stroke-linecap="round" />
</g>
		<g transform="matrix(1.33 0 0 1.33 -57.42 -1.99)"  >
<path style="stroke: none; stroke-width: 1; stroke-dasharray: none; stroke-linecap: butt; stroke-dashoffset: 0; stroke-linejoin: miter; stroke-miterlimit: 4; fill: rgb(0,0,0); fill-rule: nonzero; opacity: 1;" vector-effect="non-scaling-stroke"  transform=" translate(-15.51, 17.99)" d="M 21.875 -9.4375 C 21.875 -10.84375 21.378906 -11.921875 20.390625 -12.671875 C 19.398438 -13.421875 17.617188 -14.210938 15.046875 -15.046875 C 12.484375 -15.878906 10.453125 -16.695312 8.953125 -17.5 C 4.859375 -19.707031 2.8125 -22.679688 2.8125 -26.421875 C 2.8125 -28.367188 3.359375 -30.101562 4.453125 -31.625 C 5.554688 -33.15625 7.132812 -34.347656 9.1875 -35.203125 C 11.238281 -36.054688 13.539062 -36.484375 16.09375 -36.484375 C 18.664062 -36.484375 20.957031 -36.015625 22.96875 -35.078125 C 24.976562 -34.148438 26.535156 -32.835938 27.640625 -31.140625 C 28.753906 -29.441406 29.3125 -27.515625 29.3125 -25.359375 L 21.90625 -25.359375 C 21.90625 -27.003906 21.382812 -28.285156 20.34375 -29.203125 C 19.300781 -30.117188 17.84375 -30.578125 15.96875 -30.578125 C 14.15625 -30.578125 12.742188 -30.191406 11.734375 -29.421875 C 10.734375 -28.660156 10.234375 -27.65625 10.234375 -26.40625 C 10.234375 -25.226562 10.820312 -24.242188 12 -23.453125 C 13.175781 -22.660156 14.910156 -21.921875 17.203125 -21.234375 C 21.421875 -19.960938 24.492188 -18.382812 26.421875 -16.5 C 28.347656 -14.625 29.3125 -12.289062 29.3125 -9.5 C 29.3125 -6.375 28.132812 -3.925781 25.78125 -2.15625 C 23.425781 -0.382812 20.253906 0.5 16.265625 0.5 C 13.492188 0.5 10.972656 -0.00390625 8.703125 -1.015625 C 6.429688 -2.035156 4.695312 -3.425781 3.5 -5.1875 C 2.300781 -6.957031 1.703125 -9.003906 1.703125 -11.328125 L 9.140625 -11.328125 C 9.140625 -7.347656 11.515625 -5.359375 16.265625 -5.359375 C 18.023438 -5.359375 19.398438 -5.71875 20.390625 -6.4375 C 21.378906 -7.15625 21.875 -8.15625 21.875 -9.4375 Z M 21.875 -9.4375" stroke-linecap="round" />
</g>
		<g transform="matrix(1.33 0 0 1.33 -25.68 0.1)"  >
<path style="stroke: none; stroke-width: 1; stroke-dasharray: none; stroke-linecap: butt; stroke-dashoffset: 0; stroke-linejoin: miter; stroke-miterlimit: 4; fill: rgb(0,0,0); fill-rule: nonzero; opacity: 1;" vector-effect="non-scaling-stroke"  transform=" translate(-8.2, 16.41)" d="M 11.296875 -33.328125 L 11.296875 -26.75 L 15.875 -26.75 L 15.875 -21.5 L 11.296875 -21.5 L 11.296875 -8.15625 C 11.296875 -7.164062 11.484375 -6.457031 11.859375 -6.03125 C 12.242188 -5.601562 12.972656 -5.390625 14.046875 -5.390625 C 14.835938 -5.390625 15.535156 -5.445312 16.140625 -5.5625 L 16.140625 -0.140625 C 14.742188 0.285156 13.300781 0.5 11.8125 0.5 C 6.800781 0.5 4.25 -2.03125 4.15625 -7.09375 L 4.15625 -21.5 L 0.25 -21.5 L 0.25 -26.75 L 4.15625 -26.75 L 4.15625 -33.328125 Z M 11.296875 -33.328125" stroke-linecap="round" />
</g>
		<g transform="matrix(1.33 0 0 1.33 5.27 4.18)"  >
<path style="stroke: none; stroke-width: 1; stroke-dasharray: none; stroke-linecap: butt; stroke-dashoffset: 0; stroke-linejoin: miter; stroke-miterlimit: 4; fill: rgb(0,0,0); fill-rule: nonzero; opacity: 1;" vector-effect="non-scaling-stroke"  transform=" translate(-14.3, 13.37)" d="M 1.625 -13.625 C 1.625 -16.269531 2.132812 -18.628906 3.15625 -20.703125 C 4.1875 -22.785156 5.660156 -24.394531 7.578125 -25.53125 C 9.492188 -26.664062 11.722656 -27.234375 14.265625 -27.234375 C 17.867188 -27.234375 20.8125 -26.128906 23.09375 -23.921875 C 25.382812 -21.710938 26.660156 -18.71875 26.921875 -14.9375 L 26.96875 -13.09375 C 26.96875 -9 25.820312 -5.707031 23.53125 -3.21875 C 21.238281 -0.738281 18.164062 0.5 14.3125 0.5 C 10.457031 0.5 7.378906 -0.734375 5.078125 -3.203125 C 2.773438 -5.679688 1.625 -9.046875 1.625 -13.296875 Z M 8.78125 -13.09375 C 8.78125 -10.5625 9.253906 -8.625 10.203125 -7.28125 C 11.160156 -5.9375 12.53125 -5.265625 14.3125 -5.265625 C 16.039062 -5.265625 17.390625 -5.925781 18.359375 -7.25 C 19.335938 -8.582031 19.828125 -10.707031 19.828125 -13.625 C 19.828125 -16.113281 19.335938 -18.039062 18.359375 -19.40625 C 17.390625 -20.769531 16.023438 -21.453125 14.265625 -21.453125 C 12.515625 -21.453125 11.160156 -20.769531 10.203125 -19.40625 C 9.253906 -18.050781 8.78125 -15.945312 8.78125 -13.09375 Z M 8.78125 -13.09375" stroke-linecap="round" />
</g>
		<g transform="matrix(1.33 0 0 1.33 44.09 10.7)"  >
<path style="stroke: none; stroke-width: 1; stroke-dasharray: none; stroke-linecap: butt; stroke-dashoffset: 0; stroke-linejoin: miter; stroke-miterlimit: 4; fill: rgb(0,0,0); fill-rule: nonzero; opacity: 1;" vector-effect="non-scaling-stroke"  transform=" translate(-14.79, 8.48)" d="M 26.828125 -13.125 C 26.828125 -9.007812 25.890625 -5.707031 24.015625 -3.21875 C 22.140625 -0.738281 19.613281 0.5 16.4375 0.5 C 13.738281 0.5 11.554688 -0.441406 9.890625 -2.328125 L 9.890625 10.28125 L 2.75 10.28125 L 2.75 -26.75 L 9.375 -26.75 L 9.609375 -24.125 C 11.347656 -26.195312 13.609375 -27.234375 16.390625 -27.234375 C 19.679688 -27.234375 22.242188 -26.015625 24.078125 -23.578125 C 25.910156 -21.140625 26.828125 -17.78125 26.828125 -13.5 Z M 19.671875 -13.640625 C 19.671875 -16.128906 19.226562 -18.050781 18.34375 -19.40625 C 17.46875 -20.757812 16.191406 -21.4375 14.515625 -21.4375 C 12.265625 -21.4375 10.722656 -20.578125 9.890625 -18.859375 L 9.890625 -7.90625 C 10.765625 -6.144531 12.320312 -5.265625 14.5625 -5.265625 C 17.96875 -5.265625 19.671875 -8.054688 19.671875 -13.640625 Z M 19.671875 -13.640625" stroke-linecap="round" />
</g>
		<g transform="matrix(1.33 0 0 1.33 85.04 -1.99)"  >
<path style="stroke: none; stroke-width: 1; stroke-dasharray: none; stroke-linecap: butt; stroke-dashoffset: 0; stroke-linejoin: miter; stroke-miterlimit: 4; fill: rgb(0,0,0); fill-rule: nonzero; opacity: 1;" vector-effect="non-scaling-stroke"  transform=" translate(-17, 17.99)" d="M 10.625 -12.6875 L 10.625 0 L 3.21875 0 L 3.21875 -35.984375 L 17.25 -35.984375 C 19.957031 -35.984375 22.335938 -35.488281 24.390625 -34.5 C 26.441406 -33.519531 28.019531 -32.117188 29.125 -30.296875 C 30.226562 -28.472656 30.78125 -26.398438 30.78125 -24.078125 C 30.78125 -20.546875 29.570312 -17.765625 27.15625 -15.734375 C 24.738281 -13.703125 21.394531 -12.6875 17.125 -12.6875 Z M 10.625 -18.6875 L 17.25 -18.6875 C 19.21875 -18.6875 20.710938 -19.144531 21.734375 -20.0625 C 22.765625 -20.988281 23.28125 -22.3125 23.28125 -24.03125 C 23.28125 -25.789062 22.757812 -27.210938 21.71875 -28.296875 C 20.6875 -29.390625 19.253906 -29.953125 17.421875 -29.984375 L 10.625 -29.984375 Z M 10.625 -18.6875" stroke-linecap="round" />
</g>
		<g transform="matrix(1.33 0 0 1.33 124.98 4.18)"  >
<path style="stroke: none; stroke-width: 1; stroke-dasharray: none; stroke-linecap: butt; stroke-dashoffset: 0; stroke-linejoin: miter; stroke-miterlimit: 4; fill: rgb(0,0,0); fill-rule: nonzero; opacity: 1;" vector-effect="non-scaling-stroke"  transform=" translate(-14.3, 13.37)" d="M 1.625 -13.625 C 1.625 -16.269531 2.132812 -18.628906 3.15625 -20.703125 C 4.1875 -22.785156 5.660156 -24.394531 7.578125 -25.53125 C 9.492188 -26.664062 11.722656 -27.234375 14.265625 -27.234375 C 17.867188 -27.234375 20.8125 -26.128906 23.09375 -23.921875 C 25.382812 -21.710938 26.660156 -18.71875 26.921875 -14.9375 L 26.96875 -13.09375 C 26.96875 -9 25.820312 -5.707031 23.53125 -3.21875 C 21.238281 -0.738281 18.164062 0.5 14.3125 0.5 C 10.457031 0.5 7.378906 -0.734375 5.078125 -3.203125 C 2.773438 -5.679688 1.625 -9.046875 1.625 -13.296875 Z M 8.78125 -13.09375 C 8.78125 -10.5625 9.253906 -8.625 10.203125 -7.28125 C 11.160156 -5.9375 12.53125 -5.265625 14.3125 -5.265625 C 16.039062 -5.265625 17.390625 -5.925781 18.359375 -7.25 C 19.335938 -8.582031 19.828125 -10.707031 19.828125 -13.625 C 19.828125 -16.113281 19.335938 -18.039062 18.359375 -19.40625 C 17.390625 -20.769531 16.023438 -21.453125 14.265625 -21.453125 C 12.515625 -21.453125 11.160156 -20.769531 10.203125 -19.40625 C 9.253906 -18.050781 8.78125 -15.945312 8.78125 -13.09375 Z M 8.78125 -13.09375" stroke-linecap="round" />
</g>
		<g transform="matrix(1.33 0 0 1.33 157.83 3.84)"  >
<path style="stroke: none; stroke-width: 1; stroke-dasharray: none; stroke-linecap: butt; stroke-dashoffset: 0; stroke-linejoin: miter; stroke-miterlimit: 4; fill: rgb(0,0,0); fill-rule: nonzero; opacity: 1;" vector-effect="non-scaling-stroke"  transform=" translate(-10.31, 13.62)" d="M 17.765625 -20.046875 C 16.796875 -20.179688 15.941406 -20.25 15.203125 -20.25 C 12.492188 -20.25 10.722656 -19.332031 9.890625 -17.5 L 9.890625 0 L 2.75 0 L 2.75 -26.75 L 9.5 -26.75 L 9.6875 -23.5625 C 11.125 -26.007812 13.109375 -27.234375 15.640625 -27.234375 C 16.429688 -27.234375 17.175781 -27.128906 17.875 -26.921875 Z M 17.765625 -20.046875" stroke-linecap="round" />
</g>
		<g transform="matrix(1.33 0 0 1.33 179.62 0.1)"  >
<path style="stroke: none; stroke-width: 1; stroke-dasharray: none; stroke-linecap: butt; stroke-dashoffset: 0; stroke-linejoin: miter; stroke-miterlimit: 4; fill: rgb(0,0,0); fill-rule: nonzero; opacity: 1;" vector-effect="non-scaling-stroke"  transform=" translate(-8.2, 16.41)" d="M 11.296875 -33.328125 L 11.296875 -26.75 L 15.875 -26.75 L 15.875 -21.5 L 11.296875 -21.5 L 11.296875 -8.15625 C 11.296875 -7.164062 11.484375 -6.457031 11.859375 -6.03125 C 12.242188 -5.601562 12.972656 -5.390625 14.046875 -5.390625 C 14.835938 -5.390625 15.535156 -5.445312 16.140625 -5.5625 L 16.140625 -0.140625 C 14.742188 0.285156 13.300781 0.5 11.8125 0.5 C 6.800781 0.5 4.25 -2.03125 4.15625 -7.09375 L 4.15625 -21.5 L 0.25 -21.5 L 0.25 -26.75 L 4.15625 -26.75 L 4.15625 -33.328125 Z M 11.296875 -33.328125" stroke-linecap="round" />
</g>
		<g transform="matrix(1.33 0 0 1.33 209.6 4.18)"  >
<path style="stroke: none; stroke-width: 1; stroke-dasharray: none; stroke-linecap: butt; stroke-dashoffset: 0; stroke-linejoin: miter; stroke-miterlimit: 4; fill: rgb(0,0,0); fill-rule: nonzero; opacity: 1;" vector-effect="non-scaling-stroke"  transform=" translate(-13.57, 13.37)" d="M 18.25 0 C 17.914062 -0.644531 17.675781 -1.441406 17.53125 -2.390625 C 15.800781 -0.460938 13.550781 0.5 10.78125 0.5 C 8.15625 0.5 5.984375 -0.253906 4.265625 -1.765625 C 2.546875 -3.285156 1.6875 -5.203125 1.6875 -7.515625 C 1.6875 -10.347656 2.734375 -12.519531 4.828125 -14.03125 C 6.929688 -15.550781 9.96875 -16.320312 13.9375 -16.34375 L 17.234375 -16.34375 L 17.234375 -17.875 C 17.234375 -19.101562 16.914062 -20.085938 16.28125 -20.828125 C 15.644531 -21.578125 14.644531 -21.953125 13.28125 -21.953125 C 12.070312 -21.953125 11.125 -21.660156 10.4375 -21.078125 C 9.757812 -20.503906 9.421875 -19.71875 9.421875 -18.71875 L 2.28125 -18.71875 C 2.28125 -20.257812 2.753906 -21.6875 3.703125 -23 C 4.660156 -24.320312 6.007812 -25.359375 7.75 -26.109375 C 9.5 -26.859375 11.460938 -27.234375 13.640625 -27.234375 C 16.941406 -27.234375 19.554688 -26.40625 21.484375 -24.75 C 23.421875 -23.09375 24.390625 -20.765625 24.390625 -17.765625 L 24.390625 -6.1875 C 24.410156 -3.644531 24.765625 -1.722656 25.453125 -0.421875 L 25.453125 0 Z M 12.328125 -4.96875 C 13.390625 -4.96875 14.363281 -5.203125 15.25 -5.671875 C 16.144531 -6.140625 16.804688 -6.769531 17.234375 -7.5625 L 17.234375 -12.15625 L 14.5625 -12.15625 C 10.988281 -12.15625 9.082031 -10.921875 8.84375 -8.453125 L 8.828125 -8.03125 C 8.828125 -7.144531 9.140625 -6.410156 9.765625 -5.828125 C 10.390625 -5.253906 11.242188 -4.96875 12.328125 -4.96875 Z M 12.328125 -4.96875" stroke-linecap="round" />
</g>
		<g transform="matrix(1.33 0 0 1.33 236.62 -3.32)"  >
<path style="stroke: none; stroke-width: 1; stroke-dasharray: none; stroke-linecap: butt; stroke-dashoffset: 0; stroke-linejoin: miter; stroke-miterlimit: 4; fill: rgb(0,0,0); fill-rule: nonzero; opacity: 1;" vector-effect="non-scaling-stroke"  transform=" translate(-6.7, 18.98)" d="M 10.28125 0 L 3.109375 0 L 3.109375 -37.96875 L 10.28125 -37.96875 Z M 10.28125 0" stroke-linecap="round" />
</g>
</g>
</g>
</svg>