<svg xmlns="http://www.w3.org/2000/svg" xmlns:xlink="http://www.w3.org/1999/xlink" width="200" zoomAndPan="magnify" viewBox="0 0 150 30.000001" height="40" preserveAspectRatio="xMidYMid meet" version="1.0"><path fill="#fff753" d="M 15.878906 2.886719 C 16.5 2.886719 17.117188 2.933594 17.734375 3.03125 C 18.347656 3.128906 18.949219 3.269531 19.539062 3.460938 C 20.128906 3.65625 20.703125 3.890625 21.257812 4.171875 C 21.808594 4.453125 22.339844 4.777344 22.839844 5.140625 C 23.34375 5.503906 23.8125 5.902344 24.253906 6.34375 C 24.695312 6.777344 25.09375 7.25 25.460938 7.75 C 25.828125 8.25 26.148438 8.777344 26.433594 9.328125 C 26.714844 9.878906 26.953125 10.449219 27.144531 11.039062 L 21.511719 12.863281 C 21.417969 12.570312 21.296875 12.28125 21.15625 12.007812 C 21.015625 11.730469 20.855469 11.46875 20.671875 11.21875 C 20.488281 10.96875 20.285156 10.734375 20.066406 10.515625 C 19.847656 10.292969 19.613281 10.09375 19.359375 9.914062 C 19.109375 9.730469 18.847656 9.570312 18.570312 9.429688 C 18.292969 9.289062 18.007812 9.171875 17.710938 9.074219 C 17.414062 8.980469 17.113281 8.90625 16.804688 8.859375 C 16.5 8.808594 16.191406 8.785156 15.878906 8.785156 Z M 15.878906 2.886719 " fill-opacity="1" fill-rule="nonzero"/><path fill="#b1ed67" d="M 27.144531 11.058594 C 27.339844 11.648438 27.484375 12.25 27.578125 12.859375 C 27.679688 13.472656 27.726562 14.085938 27.726562 14.707031 C 27.726562 15.324219 27.679688 15.941406 27.578125 16.554688 C 27.484375 17.164062 27.339844 17.765625 27.144531 18.351562 C 26.953125 18.941406 26.71875 19.511719 26.433594 20.0625 C 26.152344 20.617188 25.828125 21.140625 25.464844 21.644531 C 25.097656 22.144531 24.695312 22.613281 24.257812 23.050781 C 23.816406 23.488281 23.347656 23.890625 22.84375 24.253906 L 19.363281 19.480469 C 19.617188 19.296875 19.851562 19.097656 20.070312 18.878906 C 20.289062 18.660156 20.492188 18.425781 20.675781 18.175781 C 20.855469 17.925781 21.019531 17.660156 21.160156 17.386719 C 21.300781 17.109375 21.417969 16.824219 21.515625 16.53125 C 21.609375 16.234375 21.683594 15.9375 21.730469 15.628906 C 21.78125 15.324219 21.804688 15.015625 21.804688 14.707031 C 21.804688 14.394531 21.78125 14.089844 21.730469 13.78125 C 21.683594 13.476562 21.609375 13.175781 21.515625 12.882812 Z M 27.144531 11.058594 " fill-opacity="1" fill-rule="nonzero"/><path fill="#6bdc85" d="M 22.824219 24.269531 C 22.324219 24.632812 21.792969 24.957031 21.242188 25.238281 C 20.6875 25.519531 20.113281 25.753906 19.523438 25.945312 C 18.933594 26.136719 18.332031 26.28125 17.71875 26.378906 C 17.101562 26.476562 16.484375 26.523438 15.863281 26.523438 C 15.242188 26.523438 14.625 26.476562 14.011719 26.378906 C 13.398438 26.28125 12.796875 26.136719 12.207031 25.945312 C 11.613281 25.753906 11.042969 25.519531 10.488281 25.238281 C 9.933594 24.957031 9.40625 24.632812 8.902344 24.269531 L 12.382812 19.496094 C 12.636719 19.679688 12.898438 19.839844 13.175781 19.980469 C 13.453125 20.121094 13.738281 20.238281 14.035156 20.335938 C 14.332031 20.429688 14.632812 20.503906 14.9375 20.550781 C 15.246094 20.597656 15.554688 20.625 15.863281 20.625 C 16.175781 20.625 16.484375 20.597656 16.789062 20.550781 C 17.097656 20.503906 17.398438 20.429688 17.695312 20.335938 C 17.992188 20.238281 18.273438 20.121094 18.550781 19.980469 C 18.828125 19.839844 19.09375 19.679688 19.34375 19.496094 Z M 22.824219 24.269531 " fill-opacity="1" fill-rule="nonzero"/><path fill="#2ac69d" d="M 8.886719 24.253906 C 8.382812 23.890625 7.910156 23.488281 7.46875 23.050781 C 7.03125 22.613281 6.628906 22.144531 6.265625 21.644531 C 5.898438 21.140625 5.574219 20.617188 5.292969 20.0625 C 5.011719 19.511719 4.773438 18.941406 4.582031 18.351562 C 4.390625 17.765625 4.246094 17.164062 4.148438 16.554688 C 4.050781 15.941406 4.003906 15.324219 4.003906 14.707031 C 4.003906 14.085938 4.050781 13.472656 4.148438 12.859375 C 4.246094 12.25 4.390625 11.648438 4.582031 11.058594 L 10.214844 12.882812 C 10.117188 13.175781 10.046875 13.476562 9.996094 13.78125 C 9.949219 14.089844 9.925781 14.394531 9.925781 14.707031 C 9.925781 15.015625 9.949219 15.324219 9.996094 15.628906 C 10.046875 15.9375 10.117188 16.234375 10.214844 16.53125 C 10.308594 16.824219 10.429688 17.109375 10.570312 17.386719 C 10.710938 17.660156 10.871094 17.925781 11.054688 18.175781 C 11.238281 18.425781 11.4375 18.660156 11.660156 18.878906 C 11.878906 19.097656 12.113281 19.296875 12.367188 19.480469 Z M 8.886719 24.253906 " fill-opacity="1" fill-rule="nonzero"/><path fill="#00ada9" d="M 4.589844 11.039062 C 4.78125 10.449219 5.019531 9.878906 5.300781 9.328125 C 5.582031 8.777344 5.90625 8.25 6.273438 7.75 C 6.636719 7.25 7.039062 6.777344 7.476562 6.34375 C 7.917969 5.902344 8.386719 5.503906 8.890625 5.140625 C 9.394531 4.777344 9.921875 4.453125 10.476562 4.171875 C 11.027344 3.890625 11.601562 3.65625 12.191406 3.464844 C 12.78125 3.269531 13.386719 3.128906 14 3.03125 C 14.613281 2.933594 15.230469 2.886719 15.851562 2.886719 L 15.851562 8.785156 C 15.542969 8.785156 15.230469 8.808594 14.925781 8.859375 C 14.617188 8.90625 14.316406 8.980469 14.019531 9.074219 C 13.726562 9.171875 13.441406 9.289062 13.164062 9.429688 C 12.886719 9.570312 12.621094 9.730469 12.371094 9.914062 C 12.121094 10.09375 11.886719 10.296875 11.664062 10.515625 C 11.445312 10.734375 11.246094 10.96875 11.0625 11.21875 C 10.878906 11.46875 10.71875 11.730469 10.578125 12.007812 C 10.433594 12.28125 10.316406 12.570312 10.222656 12.863281 Z M 4.589844 11.039062 " fill-opacity="1" fill-rule="nonzero"/><path fill="#000000" d="M 33.921875 10.695312 L 34.011719 11.90625 C 34.761719 10.976562 35.765625 10.507812 37.027344 10.507812 C 38.140625 10.507812 38.96875 10.835938 39.511719 11.484375 C 40.054688 12.132812 40.332031 13.105469 40.34375 14.398438 L 40.34375 21.15625 L 37.542969 21.15625 L 37.542969 14.464844 C 37.542969 13.875 37.410156 13.445312 37.152344 13.175781 C 36.894531 12.910156 36.464844 12.773438 35.863281 12.773438 C 35.074219 12.773438 34.480469 13.109375 34.085938 13.78125 L 34.085938 21.15625 L 31.285156 21.15625 L 31.285156 10.695312 Z M 33.921875 10.695312 " fill-opacity="1" fill-rule="nonzero"/><path fill="#000000" d="M 47.320312 21.351562 C 45.785156 21.351562 44.53125 20.882812 43.566406 19.941406 C 42.597656 19 42.117188 17.746094 42.117188 16.179688 L 42.117188 15.910156 C 42.117188 14.859375 42.320312 13.921875 42.726562 13.09375 C 43.132812 12.269531 43.710938 11.632812 44.460938 11.183594 C 45.207031 10.734375 46.058594 10.511719 47.015625 10.511719 C 48.449219 10.511719 49.578125 10.960938 50.398438 11.867188 C 51.222656 12.765625 51.636719 14.042969 51.636719 15.695312 L 51.636719 16.839844 L 44.957031 16.839844 C 45.050781 17.523438 45.324219 18.070312 45.777344 18.480469 C 46.234375 18.894531 46.8125 19.097656 47.511719 19.097656 C 48.589844 19.097656 49.433594 18.710938 50.039062 17.933594 L 51.417969 19.464844 C 50.996094 20.0625 50.425781 20.523438 49.707031 20.859375 C 48.992188 21.1875 48.195312 21.351562 47.320312 21.351562 Z M 47.003906 12.769531 C 46.445312 12.769531 45.996094 12.957031 45.648438 13.332031 C 45.304688 13.703125 45.085938 14.238281 44.988281 14.933594 L 48.886719 14.933594 L 48.886719 14.710938 C 48.871094 14.09375 48.703125 13.617188 48.382812 13.277344 C 48.058594 12.941406 47.597656 12.769531 47.003906 12.769531 Z M 47.003906 12.769531 " fill-opacity="1" fill-rule="nonzero"/><path fill="#000000" d="M 60.761719 17.460938 C 60.761719 16.910156 60.566406 16.488281 60.179688 16.195312 C 59.789062 15.902344 59.089844 15.59375 58.082031 15.265625 C 57.078125 14.941406 56.28125 14.621094 55.691406 14.308594 C 54.085938 13.445312 53.285156 12.285156 53.285156 10.820312 C 53.285156 10.058594 53.5 9.382812 53.925781 8.785156 C 54.359375 8.1875 54.976562 7.722656 55.785156 7.386719 C 56.589844 7.054688 57.492188 6.886719 58.492188 6.886719 C 59.503906 6.886719 60.402344 7.070312 61.191406 7.4375 C 61.980469 7.800781 62.589844 8.3125 63.023438 8.976562 C 63.460938 9.640625 63.679688 10.394531 63.679688 11.234375 L 60.773438 11.234375 C 60.773438 10.59375 60.570312 10.089844 60.160156 9.734375 C 59.753906 9.375 59.179688 9.195312 58.445312 9.195312 C 57.734375 9.195312 57.179688 9.347656 56.785156 9.648438 C 56.390625 9.945312 56.195312 10.335938 56.195312 10.828125 C 56.195312 11.289062 56.425781 11.671875 56.886719 11.980469 C 57.347656 12.289062 58.03125 12.578125 58.929688 12.847656 C 60.585938 13.347656 61.789062 13.964844 62.546875 14.699219 C 63.300781 15.433594 63.679688 16.34375 63.679688 17.4375 C 63.679688 18.65625 63.21875 19.613281 62.292969 20.308594 C 61.371094 21 60.125 21.34375 58.5625 21.34375 C 57.472656 21.34375 56.484375 21.148438 55.59375 20.753906 C 54.703125 20.355469 54.023438 19.8125 53.554688 19.121094 C 53.082031 18.429688 52.847656 17.628906 52.847656 16.722656 L 55.765625 16.722656 C 55.765625 18.277344 56.699219 19.054688 58.5625 19.054688 C 59.25 19.054688 59.789062 18.914062 60.179688 18.632812 C 60.566406 18.351562 60.761719 17.960938 60.761719 17.460938 Z M 60.761719 17.460938 " fill-opacity="1" fill-rule="nonzero"/><path fill="#000000" d="M 68.84375 8.121094 L 68.84375 10.691406 L 70.640625 10.691406 L 70.640625 12.742188 L 68.84375 12.742188 L 68.84375 17.960938 C 68.84375 18.347656 68.917969 18.625 69.066406 18.792969 C 69.214844 18.960938 69.503906 19.042969 69.925781 19.042969 C 70.234375 19.042969 70.507812 19.019531 70.746094 18.976562 L 70.746094 21.09375 C 70.195312 21.261719 69.632812 21.34375 69.046875 21.34375 C 67.082031 21.34375 66.082031 20.355469 66.042969 18.375 L 66.042969 12.742188 L 64.511719 12.742188 L 64.511719 10.691406 L 66.042969 10.691406 L 66.042969 8.121094 Z M 68.84375 8.121094 " fill-opacity="1" fill-rule="nonzero"/><path fill="#000000" d="M 71.785156 15.832031 C 71.785156 14.796875 71.984375 13.875 72.386719 13.0625 C 72.789062 12.25 73.367188 11.621094 74.121094 11.175781 C 74.871094 10.734375 75.746094 10.511719 76.742188 10.511719 C 78.15625 10.511719 79.3125 10.941406 80.207031 11.804688 C 81.105469 12.667969 81.605469 13.839844 81.707031 15.316406 L 81.726562 16.039062 C 81.726562 17.640625 81.277344 18.925781 80.378906 19.898438 C 79.480469 20.867188 78.273438 21.351562 76.761719 21.351562 C 75.25 21.351562 74.042969 20.871094 73.140625 19.90625 C 72.234375 18.9375 71.785156 17.621094 71.785156 15.960938 Z M 74.589844 16.039062 C 74.589844 17.027344 74.777344 17.785156 75.148438 18.3125 C 75.523438 18.835938 76.0625 19.097656 76.761719 19.097656 C 77.4375 19.097656 77.96875 18.839844 78.347656 18.324219 C 78.730469 17.800781 78.925781 16.972656 78.925781 15.832031 C 78.925781 14.859375 78.730469 14.105469 78.347656 13.570312 C 77.96875 13.039062 77.433594 12.769531 76.742188 12.769531 C 76.058594 12.769531 75.523438 13.039062 75.148438 13.570312 C 74.777344 14.101562 74.589844 14.921875 74.589844 16.039062 Z M 74.589844 16.039062 " fill-opacity="1" fill-rule="nonzero"/><path fill="#000000" d="M 92.929688 16.03125 C 92.929688 17.640625 92.5625 18.929688 91.828125 19.902344 C 91.089844 20.875 90.101562 21.359375 88.855469 21.359375 C 87.792969 21.359375 86.9375 20.988281 86.285156 20.253906 L 86.285156 25.183594 L 83.484375 25.183594 L 83.484375 10.703125 L 86.082031 10.703125 L 86.175781 11.730469 C 86.855469 10.921875 87.746094 10.515625 88.835938 10.515625 C 90.125 10.515625 91.132812 10.992188 91.851562 11.945312 C 92.570312 12.898438 92.929688 14.210938 92.929688 15.882812 Z M 90.121094 15.828125 C 90.121094 14.855469 89.949219 14.105469 89.601562 13.574219 C 89.257812 13.046875 88.757812 12.78125 88.101562 12.78125 C 87.21875 12.78125 86.613281 13.117188 86.285156 13.789062 L 86.285156 18.070312 C 86.628906 18.761719 87.238281 19.105469 88.117188 19.105469 C 89.453125 19.105469 90.121094 18.011719 90.121094 15.828125 Z M 90.121094 15.828125 " fill-opacity="1" fill-rule="nonzero"/><path fill="#000000" d="M 97.785156 16.191406 L 97.785156 21.148438 L 94.878906 21.148438 L 94.878906 7.082031 L 100.382812 7.082031 C 101.445312 7.082031 102.378906 7.277344 103.1875 7.660156 C 103.992188 8.046875 104.609375 8.59375 105.042969 9.304688 C 105.476562 10.019531 105.691406 10.828125 105.691406 11.738281 C 105.691406 13.117188 105.21875 14.203125 104.269531 15 C 103.324219 15.792969 102.011719 16.191406 100.335938 16.191406 Z M 97.785156 13.84375 L 100.382812 13.84375 C 101.15625 13.84375 101.742188 13.664062 102.144531 13.304688 C 102.546875 12.945312 102.75 12.425781 102.75 11.753906 C 102.75 11.066406 102.546875 10.511719 102.136719 10.085938 C 101.734375 9.660156 101.171875 9.441406 100.453125 9.425781 L 97.785156 9.425781 Z M 97.785156 13.84375 " fill-opacity="1" fill-rule="nonzero"/><path fill="#000000" d="M 107.09375 15.832031 C 107.09375 14.796875 107.292969 13.875 107.695312 13.0625 C 108.101562 12.25 108.679688 11.621094 109.429688 11.175781 C 110.179688 10.734375 111.058594 10.511719 112.054688 10.511719 C 113.46875 10.511719 114.621094 10.941406 115.519531 11.804688 C 116.414062 12.667969 116.917969 13.839844 117.019531 15.316406 L 117.039062 16.039062 C 117.039062 17.640625 116.585938 18.925781 115.6875 19.898438 C 114.789062 20.867188 113.582031 21.351562 112.074219 21.351562 C 110.558594 21.351562 109.351562 20.871094 108.449219 19.90625 C 107.546875 18.9375 107.09375 17.621094 107.09375 15.960938 Z M 109.902344 16.039062 C 109.902344 17.027344 110.089844 17.785156 110.460938 18.3125 C 110.835938 18.835938 111.375 19.097656 112.074219 19.097656 C 112.75 19.097656 113.28125 18.839844 113.660156 18.324219 C 114.042969 17.800781 114.238281 16.972656 114.238281 15.832031 C 114.238281 14.859375 114.042969 14.105469 113.660156 13.570312 C 113.28125 13.039062 112.742188 12.769531 112.054688 12.769531 C 111.367188 12.769531 110.835938 13.039062 110.460938 13.570312 C 110.089844 14.101562 109.902344 14.921875 109.902344 16.039062 Z M 109.902344 16.039062 " fill-opacity="1" fill-rule="nonzero"/><path fill="#000000" d="M 124.683594 13.316406 C 124.300781 13.265625 123.96875 13.238281 123.675781 13.238281 C 122.613281 13.238281 121.917969 13.597656 121.59375 14.3125 L 121.59375 21.15625 L 118.792969 21.15625 L 118.792969 10.695312 L 121.441406 10.695312 L 121.511719 11.945312 C 122.078125 10.988281 122.855469 10.507812 123.847656 10.507812 C 124.160156 10.507812 124.449219 10.550781 124.726562 10.628906 Z M 124.683594 13.316406 " fill-opacity="1" fill-rule="nonzero"/><path fill="#000000" d="M 129.402344 8.121094 L 129.402344 10.691406 L 131.199219 10.691406 L 131.199219 12.742188 L 129.402344 12.742188 L 129.402344 17.960938 C 129.402344 18.347656 129.476562 18.625 129.625 18.792969 C 129.773438 18.960938 130.058594 19.042969 130.480469 19.042969 C 130.792969 19.042969 131.066406 19.019531 131.304688 18.976562 L 131.304688 21.09375 C 130.753906 21.261719 130.1875 21.34375 129.605469 21.34375 C 127.640625 21.34375 126.636719 20.355469 126.601562 18.375 L 126.601562 12.742188 L 125.070312 12.742188 L 125.070312 10.691406 L 126.601562 10.691406 L 126.601562 8.121094 Z M 129.402344 8.121094 " fill-opacity="1" fill-rule="nonzero"/><path fill="#000000" d="M 138.863281 21.15625 C 138.734375 20.90625 138.640625 20.59375 138.582031 20.222656 C 137.902344 20.976562 137.019531 21.351562 135.933594 21.351562 C 134.90625 21.351562 134.050781 21.058594 133.378906 20.46875 C 132.703125 19.875 132.367188 19.125 132.367188 18.21875 C 132.367188 17.113281 132.777344 16.261719 133.597656 15.671875 C 134.421875 15.078125 135.617188 14.777344 137.171875 14.769531 L 138.464844 14.769531 L 138.464844 14.167969 C 138.464844 13.691406 138.339844 13.304688 138.09375 13.015625 C 137.84375 12.722656 137.449219 12.574219 136.914062 12.574219 C 136.441406 12.574219 136.070312 12.6875 135.800781 12.917969 C 135.53125 13.140625 135.402344 13.449219 135.402344 13.839844 L 132.597656 13.839844 C 132.597656 13.238281 132.785156 12.679688 133.15625 12.164062 C 133.53125 11.648438 134.0625 11.242188 134.746094 10.949219 C 135.429688 10.65625 136.199219 10.511719 137.054688 10.511719 C 138.351562 10.511719 139.375 10.832031 140.132812 11.480469 C 140.894531 12.128906 141.273438 13.039062 141.273438 14.210938 L 141.273438 18.738281 C 141.28125 19.734375 141.421875 20.484375 141.691406 20.992188 L 141.691406 21.15625 Z M 136.542969 19.214844 C 136.957031 19.214844 137.339844 19.125 137.6875 18.941406 C 138.039062 18.757812 138.296875 18.511719 138.464844 18.199219 L 138.464844 16.40625 L 137.417969 16.40625 C 136.015625 16.40625 135.269531 16.886719 135.175781 17.851562 L 135.167969 18.019531 C 135.167969 18.363281 135.289062 18.652344 135.535156 18.878906 C 135.78125 19.101562 136.113281 19.214844 136.542969 19.214844 Z M 136.542969 19.214844 " fill-opacity="1" fill-rule="nonzero"/><path fill="#000000" d="M 143.59375 6.304688 L 146.40625 6.304688 L 146.40625 21.148438 L 143.59375 21.148438 Z M 143.59375 6.304688 " fill-opacity="1" fill-rule="nonzero"/></svg>