<svg xmlns="http://www.w3.org/2000/svg" xmlns:xlink="http://www.w3.org/1999/xlink" width="200" zoomAndPan="magnify" viewBox="0 0 150 30.000001" height="40" preserveAspectRatio="xMidYMid meet" version="1.0"><defs><g/><clipPath id="2f4721ed3a"><path d="M 2.417969 10 L 11 10 L 11 25 L 2.417969 25 Z M 2.417969 10 " clip-rule="nonzero"/></clipPath><clipPath id="1e6b28ef76"><path d="M 144 5 L 147.578125 5 L 147.578125 22 L 144 22 Z M 144 5 " clip-rule="nonzero"/></clipPath></defs><path fill="#d16aff" d="M 14.472656 2.464844 C 15.105469 2.464844 15.734375 2.511719 16.359375 2.613281 C 16.984375 2.710938 17.59375 2.859375 18.195312 3.054688 C 18.796875 3.25 19.382812 3.488281 19.945312 3.777344 C 20.507812 4.0625 21.046875 4.394531 21.558594 4.765625 C 22.070312 5.136719 22.546875 5.546875 22.996094 5.992188 C 23.441406 6.441406 23.851562 6.917969 24.222656 7.429688 C 24.59375 7.941406 24.925781 8.480469 25.210938 9.042969 C 25.5 9.609375 25.738281 10.191406 25.9375 10.792969 L 20.203125 12.652344 C 20.007812 12.046875 19.722656 11.488281 19.347656 10.972656 C 18.972656 10.460938 18.53125 10.015625 18.015625 9.640625 C 17.5 9.265625 16.941406 8.980469 16.335938 8.785156 C 15.730469 8.589844 15.109375 8.488281 14.472656 8.488281 Z M 14.472656 2.464844 " fill-opacity="1" fill-rule="nonzero"/><path fill="#bb44f0" d="M 25.9375 10.792969 C 26.132812 11.394531 26.277344 12.007812 26.378906 12.628906 C 26.476562 13.253906 26.527344 13.882812 26.527344 14.515625 C 26.527344 15.148438 26.476562 15.777344 26.378906 16.402344 C 26.277344 17.027344 26.132812 17.640625 25.9375 18.242188 C 25.738281 18.84375 25.5 19.425781 25.210938 19.988281 C 24.925781 20.550781 24.59375 21.089844 24.222656 21.601562 C 23.851562 22.113281 23.441406 22.589844 22.996094 23.039062 C 22.546875 23.484375 22.070312 23.894531 21.558594 24.265625 L 18.015625 19.390625 C 18.53125 19.019531 18.972656 18.574219 19.347656 18.058594 C 19.722656 17.542969 20.007812 16.984375 20.203125 16.378906 C 20.402344 15.773438 20.5 15.152344 20.5 14.515625 C 20.5 13.878906 20.402344 13.257812 20.203125 12.652344 Z M 25.9375 10.792969 " fill-opacity="1" fill-rule="nonzero"/><path fill="#9614d0" d="M 21.558594 24.265625 C 21.046875 24.640625 20.507812 24.96875 19.945312 25.253906 C 19.382812 25.542969 18.796875 25.785156 18.195312 25.980469 C 17.59375 26.175781 16.984375 26.320312 16.359375 26.421875 C 15.734375 26.519531 15.105469 26.570312 14.472656 26.570312 C 13.839844 26.570312 13.210938 26.519531 12.585938 26.421875 C 11.960938 26.320312 11.347656 26.175781 10.746094 25.980469 C 10.144531 25.785156 9.5625 25.542969 9 25.253906 C 8.4375 24.96875 7.898438 24.640625 7.386719 24.265625 L 10.929688 19.390625 C 11.445312 19.765625 12.003906 20.050781 12.609375 20.246094 C 13.214844 20.445312 13.835938 20.542969 14.472656 20.542969 C 15.109375 20.542969 15.730469 20.445312 16.335938 20.246094 C 16.941406 20.050781 17.5 19.765625 18.015625 19.390625 Z M 21.558594 24.265625 " fill-opacity="1" fill-rule="nonzero"/><g clip-path="url(#2f4721ed3a)"><path fill="#660094" d="M 7.386719 24.265625 C 6.875 23.894531 6.398438 23.484375 5.949219 23.039062 C 5.503906 22.589844 5.09375 22.113281 4.722656 21.601562 C 4.347656 21.089844 4.019531 20.550781 3.734375 19.988281 C 3.445312 19.425781 3.203125 18.84375 3.007812 18.242188 C 2.8125 17.640625 2.667969 17.027344 2.566406 16.402344 C 2.46875 15.777344 2.417969 15.148438 2.417969 14.515625 C 2.417969 13.882812 2.46875 13.253906 2.566406 12.628906 C 2.667969 12.007812 2.8125 11.394531 3.007812 10.792969 L 8.742188 12.652344 C 8.542969 13.257812 8.445312 13.878906 8.445312 14.515625 C 8.445312 15.152344 8.542969 15.773438 8.742188 16.378906 C 8.9375 16.984375 9.222656 17.542969 9.597656 18.058594 C 9.972656 18.574219 10.414062 19.019531 10.929688 19.390625 Z M 7.386719 24.265625 " fill-opacity="1" fill-rule="nonzero"/></g><path fill="#310047" d="M 3.007812 10.792969 C 3.203125 10.191406 3.445312 9.609375 3.734375 9.042969 C 4.019531 8.480469 4.347656 7.941406 4.722656 7.433594 C 5.09375 6.921875 5.503906 6.441406 5.949219 5.992188 C 6.394531 5.546875 6.875 5.136719 7.386719 4.765625 C 7.898438 4.394531 8.4375 4.0625 9 3.777344 C 9.5625 3.488281 10.144531 3.25 10.746094 3.054688 C 11.347656 2.859375 11.960938 2.710938 12.585938 2.613281 C 13.210938 2.511719 13.839844 2.464844 14.472656 2.464844 L 14.472656 8.488281 C 13.835938 8.488281 13.214844 8.589844 12.609375 8.785156 C 12.003906 8.980469 11.445312 9.265625 10.929688 9.640625 C 10.414062 10.015625 9.972656 10.460938 9.597656 10.972656 C 9.222656 11.488281 8.9375 12.046875 8.742188 12.652344 Z M 3.007812 10.792969 " fill-opacity="1" fill-rule="nonzero"/><g fill="#000000" fill-opacity="1"><g transform="translate(29.078284, 21.104348)"><g><path d="M 3.71875 -10.6875 L 3.8125 -9.453125 C 4.570312 -10.398438 5.59375 -10.875 6.875 -10.875 C 8.007812 -10.875 8.851562 -10.539062 9.40625 -9.875 C 9.957031 -9.21875 10.238281 -8.226562 10.25 -6.90625 L 10.25 0 L 7.40625 0 L 7.40625 -6.828125 C 7.40625 -7.429688 7.269531 -7.867188 7 -8.140625 C 6.738281 -8.421875 6.304688 -8.5625 5.703125 -8.5625 C 4.890625 -8.5625 4.285156 -8.21875 3.890625 -7.53125 L 3.890625 0 L 1.03125 0 L 1.03125 -10.6875 Z M 3.71875 -10.6875 "/></g></g></g><g fill="#000000" fill-opacity="1"><g transform="translate(40.399224, 21.104348)"><g><path d="M 6.015625 0.203125 C 4.441406 0.203125 3.160156 -0.273438 2.171875 -1.234375 C 1.191406 -2.203125 0.703125 -3.484375 0.703125 -5.078125 L 0.703125 -5.359375 C 0.703125 -6.429688 0.910156 -7.390625 1.328125 -8.234375 C 1.742188 -9.078125 2.332031 -9.726562 3.09375 -10.1875 C 3.851562 -10.644531 4.722656 -10.875 5.703125 -10.875 C 7.160156 -10.875 8.304688 -10.410156 9.140625 -9.484375 C 9.984375 -8.566406 10.40625 -7.265625 10.40625 -5.578125 L 10.40625 -4.40625 L 3.609375 -4.40625 C 3.691406 -3.707031 3.96875 -3.148438 4.4375 -2.734375 C 4.90625 -2.316406 5.492188 -2.109375 6.203125 -2.109375 C 7.296875 -2.109375 8.15625 -2.503906 8.78125 -3.296875 L 10.171875 -1.734375 C 9.742188 -1.117188 9.164062 -0.640625 8.4375 -0.296875 C 7.707031 0.0351562 6.898438 0.203125 6.015625 0.203125 Z M 5.6875 -8.5625 C 5.125 -8.5625 4.664062 -8.367188 4.3125 -7.984375 C 3.957031 -7.609375 3.734375 -7.066406 3.640625 -6.359375 L 7.609375 -6.359375 L 7.609375 -6.578125 C 7.585938 -7.210938 7.410156 -7.703125 7.078125 -8.046875 C 6.753906 -8.390625 6.289062 -8.5625 5.6875 -8.5625 Z M 5.6875 -8.5625 "/></g></g></g><g fill="#000000" fill-opacity="1"><g transform="translate(51.325362, 21.104348)"><g><path d="M 8.734375 -3.765625 C 8.734375 -4.328125 8.535156 -4.757812 8.140625 -5.0625 C 7.742188 -5.363281 7.03125 -5.675781 6 -6 C 4.976562 -6.332031 4.171875 -6.660156 3.578125 -6.984375 C 1.941406 -7.867188 1.125 -9.054688 1.125 -10.546875 C 1.125 -11.328125 1.34375 -12.019531 1.78125 -12.625 C 2.21875 -13.238281 2.84375 -13.71875 3.65625 -14.0625 C 4.476562 -14.40625 5.398438 -14.578125 6.421875 -14.578125 C 7.453125 -14.578125 8.367188 -14.390625 9.171875 -14.015625 C 9.972656 -13.640625 10.59375 -13.113281 11.03125 -12.4375 C 11.476562 -11.757812 11.703125 -10.988281 11.703125 -10.125 L 8.75 -10.125 C 8.75 -10.78125 8.539062 -11.289062 8.125 -11.65625 C 7.707031 -12.03125 7.125 -12.21875 6.375 -12.21875 C 5.65625 -12.21875 5.09375 -12.0625 4.6875 -11.75 C 4.289062 -11.445312 4.09375 -11.046875 4.09375 -10.546875 C 4.09375 -10.078125 4.328125 -9.679688 4.796875 -9.359375 C 5.265625 -9.046875 5.957031 -8.753906 6.875 -8.484375 C 8.5625 -7.972656 9.785156 -7.34375 10.546875 -6.59375 C 11.316406 -5.84375 11.703125 -4.910156 11.703125 -3.796875 C 11.703125 -2.546875 11.234375 -1.566406 10.296875 -0.859375 C 9.359375 -0.148438 8.09375 0.203125 6.5 0.203125 C 5.394531 0.203125 4.382812 0 3.46875 -0.40625 C 2.5625 -0.8125 1.867188 -1.363281 1.390625 -2.0625 C 0.921875 -2.769531 0.6875 -3.585938 0.6875 -4.515625 L 3.65625 -4.515625 C 3.65625 -2.929688 4.601562 -2.140625 6.5 -2.140625 C 7.195312 -2.140625 7.742188 -2.28125 8.140625 -2.5625 C 8.535156 -2.851562 8.734375 -3.253906 8.734375 -3.765625 Z M 8.734375 -3.765625 "/></g></g></g><g fill="#000000" fill-opacity="1"><g transform="translate(63.751747, 21.104348)"><g><path d="M 4.515625 -13.3125 L 4.515625 -10.6875 L 6.34375 -10.6875 L 6.34375 -8.59375 L 4.515625 -8.59375 L 4.515625 -3.265625 C 4.515625 -2.867188 4.585938 -2.582031 4.734375 -2.40625 C 4.890625 -2.238281 5.179688 -2.15625 5.609375 -2.15625 C 5.921875 -2.15625 6.203125 -2.175781 6.453125 -2.21875 L 6.453125 -0.0625 C 5.890625 0.113281 5.3125 0.203125 4.71875 0.203125 C 2.71875 0.203125 1.695312 -0.804688 1.65625 -2.828125 L 1.65625 -8.59375 L 0.09375 -8.59375 L 0.09375 -10.6875 L 1.65625 -10.6875 L 1.65625 -13.3125 Z M 4.515625 -13.3125 "/></g></g></g><g fill="#000000" fill-opacity="1"><g transform="translate(70.581817, 21.104348)"><g><path d="M 0.65625 -5.4375 C 0.65625 -6.5 0.859375 -7.441406 1.265625 -8.265625 C 1.671875 -9.097656 2.253906 -9.738281 3.015625 -10.1875 C 3.785156 -10.644531 4.679688 -10.875 5.703125 -10.875 C 7.140625 -10.875 8.3125 -10.429688 9.21875 -9.546875 C 10.132812 -8.671875 10.644531 -7.476562 10.75 -5.96875 L 10.765625 -5.234375 C 10.765625 -3.597656 10.304688 -2.28125 9.390625 -1.28125 C 8.484375 -0.289062 7.257812 0.203125 5.71875 0.203125 C 4.175781 0.203125 2.945312 -0.289062 2.03125 -1.28125 C 1.113281 -2.269531 0.65625 -3.613281 0.65625 -5.3125 Z M 3.5 -5.234375 C 3.5 -4.222656 3.691406 -3.445312 4.078125 -2.90625 C 4.460938 -2.375 5.007812 -2.109375 5.71875 -2.109375 C 6.40625 -2.109375 6.941406 -2.367188 7.328125 -2.890625 C 7.722656 -3.421875 7.921875 -4.269531 7.921875 -5.4375 C 7.921875 -6.4375 7.722656 -7.207031 7.328125 -7.75 C 6.941406 -8.289062 6.398438 -8.5625 5.703125 -8.5625 C 5.003906 -8.5625 4.460938 -8.289062 4.078125 -7.75 C 3.691406 -7.207031 3.5 -6.367188 3.5 -5.234375 Z M 3.5 -5.234375 "/></g></g></g><g fill="#000000" fill-opacity="1"><g transform="translate(82.011327, 21.104348)"><g><path d="M 10.71875 -5.25 C 10.71875 -3.601562 10.34375 -2.28125 9.59375 -1.28125 C 8.84375 -0.289062 7.832031 0.203125 6.5625 0.203125 C 5.488281 0.203125 4.617188 -0.171875 3.953125 -0.921875 L 3.953125 4.109375 L 1.09375 4.109375 L 1.09375 -10.6875 L 3.734375 -10.6875 L 3.84375 -9.640625 C 4.53125 -10.460938 5.429688 -10.875 6.546875 -10.875 C 7.859375 -10.875 8.878906 -10.382812 9.609375 -9.40625 C 10.347656 -8.4375 10.71875 -7.097656 10.71875 -5.390625 Z M 7.859375 -5.453125 C 7.859375 -6.441406 7.679688 -7.207031 7.328125 -7.75 C 6.972656 -8.289062 6.460938 -8.5625 5.796875 -8.5625 C 4.898438 -8.5625 4.285156 -8.21875 3.953125 -7.53125 L 3.953125 -3.15625 C 4.296875 -2.457031 4.914062 -2.109375 5.8125 -2.109375 C 7.175781 -2.109375 7.859375 -3.222656 7.859375 -5.453125 Z M 7.859375 -5.453125 "/></g></g></g><g fill="#000000" fill-opacity="1"><g transform="translate(93.391488, 21.104348)"><g><path d="M 4.25 -5.0625 L 4.25 0 L 1.28125 0 L 1.28125 -14.375 L 6.890625 -14.375 C 7.972656 -14.375 8.921875 -14.175781 9.734375 -13.78125 C 10.554688 -13.382812 11.1875 -12.820312 11.625 -12.09375 C 12.070312 -11.363281 12.296875 -10.535156 12.296875 -9.609375 C 12.296875 -8.203125 11.8125 -7.09375 10.84375 -6.28125 C 9.882812 -5.46875 8.550781 -5.0625 6.84375 -5.0625 Z M 4.25 -7.46875 L 6.890625 -7.46875 C 7.671875 -7.46875 8.265625 -7.648438 8.671875 -8.015625 C 9.085938 -8.378906 9.296875 -8.90625 9.296875 -9.59375 C 9.296875 -10.300781 9.085938 -10.867188 8.671875 -11.296875 C 8.265625 -11.734375 7.691406 -11.957031 6.953125 -11.96875 L 4.25 -11.96875 Z M 4.25 -7.46875 "/></g></g></g><g fill="#000000" fill-opacity="1"><g transform="translate(106.429815, 21.104348)"><g><path d="M 0.65625 -5.4375 C 0.65625 -6.5 0.859375 -7.441406 1.265625 -8.265625 C 1.671875 -9.097656 2.253906 -9.738281 3.015625 -10.1875 C 3.785156 -10.644531 4.679688 -10.875 5.703125 -10.875 C 7.140625 -10.875 8.3125 -10.429688 9.21875 -9.546875 C 10.132812 -8.671875 10.644531 -7.476562 10.75 -5.96875 L 10.765625 -5.234375 C 10.765625 -3.597656 10.304688 -2.28125 9.390625 -1.28125 C 8.484375 -0.289062 7.257812 0.203125 5.71875 0.203125 C 4.175781 0.203125 2.945312 -0.289062 2.03125 -1.28125 C 1.113281 -2.269531 0.65625 -3.613281 0.65625 -5.3125 Z M 3.5 -5.234375 C 3.5 -4.222656 3.691406 -3.445312 4.078125 -2.90625 C 4.460938 -2.375 5.007812 -2.109375 5.71875 -2.109375 C 6.40625 -2.109375 6.941406 -2.367188 7.328125 -2.890625 C 7.722656 -3.421875 7.921875 -4.269531 7.921875 -5.4375 C 7.921875 -6.4375 7.722656 -7.207031 7.328125 -7.75 C 6.941406 -8.289062 6.398438 -8.5625 5.703125 -8.5625 C 5.003906 -8.5625 4.460938 -8.289062 4.078125 -7.75 C 3.691406 -7.207031 3.5 -6.367188 3.5 -5.234375 Z M 3.5 -5.234375 "/></g></g></g><g fill="#000000" fill-opacity="1"><g transform="translate(117.859325, 21.104348)"><g><path d="M 7.09375 -8 C 6.707031 -8.050781 6.367188 -8.078125 6.078125 -8.078125 C 4.992188 -8.078125 4.285156 -7.710938 3.953125 -6.984375 L 3.953125 0 L 1.09375 0 L 1.09375 -10.6875 L 3.796875 -10.6875 L 3.875 -9.40625 C 4.445312 -10.382812 5.238281 -10.875 6.25 -10.875 C 6.5625 -10.875 6.859375 -10.832031 7.140625 -10.75 Z M 7.09375 -8 "/></g></g></g><g fill="#000000" fill-opacity="1"><g transform="translate(125.232248, 21.104348)"><g><path d="M 4.515625 -13.3125 L 4.515625 -10.6875 L 6.34375 -10.6875 L 6.34375 -8.59375 L 4.515625 -8.59375 L 4.515625 -3.265625 C 4.515625 -2.867188 4.585938 -2.582031 4.734375 -2.40625 C 4.890625 -2.238281 5.179688 -2.15625 5.609375 -2.15625 C 5.921875 -2.15625 6.203125 -2.175781 6.453125 -2.21875 L 6.453125 -0.0625 C 5.890625 0.113281 5.3125 0.203125 4.71875 0.203125 C 2.71875 0.203125 1.695312 -0.804688 1.65625 -2.828125 L 1.65625 -8.59375 L 0.09375 -8.59375 L 0.09375 -10.6875 L 1.65625 -10.6875 L 1.65625 -13.3125 Z M 4.515625 -13.3125 "/></g></g></g><g fill="#000000" fill-opacity="1"><g transform="translate(132.062318, 21.104348)"><g><path d="M 7.28125 0 C 7.15625 -0.257812 7.0625 -0.578125 7 -0.953125 C 6.3125 -0.179688 5.410156 0.203125 4.296875 0.203125 C 3.253906 0.203125 2.390625 -0.0976562 1.703125 -0.703125 C 1.015625 -1.316406 0.671875 -2.082031 0.671875 -3 C 0.671875 -4.132812 1.085938 -5.003906 1.921875 -5.609375 C 2.765625 -6.210938 3.976562 -6.519531 5.5625 -6.53125 L 6.875 -6.53125 L 6.875 -7.140625 C 6.875 -7.628906 6.75 -8.019531 6.5 -8.3125 C 6.25 -8.613281 5.847656 -8.765625 5.296875 -8.765625 C 4.816406 -8.765625 4.441406 -8.648438 4.171875 -8.421875 C 3.898438 -8.191406 3.765625 -7.875 3.765625 -7.46875 L 0.90625 -7.46875 C 0.90625 -8.09375 1.09375 -8.664062 1.46875 -9.1875 C 1.851562 -9.71875 2.394531 -10.128906 3.09375 -10.421875 C 3.789062 -10.722656 4.578125 -10.875 5.453125 -10.875 C 6.765625 -10.875 7.804688 -10.539062 8.578125 -9.875 C 9.359375 -9.21875 9.75 -8.289062 9.75 -7.09375 L 9.75 -2.46875 C 9.75 -1.457031 9.890625 -0.691406 10.171875 -0.171875 L 10.171875 0 Z M 4.921875 -1.984375 C 5.347656 -1.984375 5.738281 -2.078125 6.09375 -2.265625 C 6.445312 -2.453125 6.707031 -2.703125 6.875 -3.015625 L 6.875 -4.859375 L 5.8125 -4.859375 C 4.382812 -4.859375 3.625 -4.363281 3.53125 -3.375 L 3.53125 -3.203125 C 3.53125 -2.847656 3.65625 -2.554688 3.90625 -2.328125 C 4.15625 -2.097656 4.492188 -1.984375 4.921875 -1.984375 Z M 4.921875 -1.984375 "/></g></g></g><g clip-path="url(#1e6b28ef76)"><g fill="#000000" fill-opacity="1"><g transform="translate(142.899626, 21.104348)"><g><path d="M 4.109375 0 L 1.25 0 L 1.25 -15.171875 L 4.109375 -15.171875 Z M 4.109375 0 "/></g></g></g></g></svg>