<svg xmlns="http://www.w3.org/2000/svg" xmlns:xlink="http://www.w3.org/1999/xlink" width="320" zoomAndPan="magnify" viewBox="0 0 240 119.999999" height="160" preserveAspectRatio="xMidYMid meet" version="1.0"><defs><clipPath id="1a79531b74"><path d="M 94 95 L 118.5 95 L 118.5 120 L 94 120 Z M 94 95 " clip-rule="nonzero"/></clipPath><clipPath id="51a3395e3d"><path d="M 215 0.292969 L 225 0.292969 L 225 9 L 215 9 Z M 215 0.292969 " clip-rule="nonzero"/></clipPath><clipPath id="1ca4f0a02b"><path d="M 231 0.292969 L 239.988281 0.292969 L 239.988281 9 L 231 9 Z M 231 0.292969 " clip-rule="nonzero"/></clipPath><clipPath id="3b44109395"><path d="M 231 8 L 239.988281 8 L 239.988281 17 L 231 17 Z M 231 8 " clip-rule="nonzero"/></clipPath><clipPath id="0c0351f900"><path d="M 231 16 L 239.988281 16 L 239.988281 25 L 231 25 Z M 231 16 " clip-rule="nonzero"/></clipPath><clipPath id="81ad17a950"><path d="M 223 0.292969 L 232 0.292969 L 232 9 L 223 9 Z M 223 0.292969 " clip-rule="nonzero"/></clipPath><clipPath id="650010bbff"><path d="M 199.628906 0.292969 L 208 0.292969 L 208 9 L 199.628906 9 Z M 199.628906 0.292969 " clip-rule="nonzero"/></clipPath><clipPath id="adca2eca35"><path d="M 231 24 L 239.988281 24 L 239.988281 33 L 231 33 Z M 231 24 " clip-rule="nonzero"/></clipPath><clipPath id="37e109b5b2"><path d="M 231 32 L 239.988281 32 L 239.988281 40.5 L 231 40.5 Z M 231 32 " clip-rule="nonzero"/></clipPath></defs><rect x="-24" width="288" fill="#ffffff" y="-12" height="143.999998" fill-opacity="1"/><rect x="-24" width="288" fill="#310047" y="-12" height="143.999998" fill-opacity="1"/><path fill="#660094" d="M 47.03125 95.867188 C 60.339844 95.867188 71.148438 106.675781 71.148438 119.988281 L 47.03125 119.988281 Z M 47.03125 95.867188 " fill-opacity="1" fill-rule="nonzero"/><path fill="#d16aff" d="M 0 95.867188 L 24.121094 95.867188 L 24.121094 119.988281 L 0 119.988281 Z M 0 95.867188 " fill-opacity="1" fill-rule="nonzero"/><path fill="#660094" d="M 0.265625 107.929688 L 12.058594 96.132812 L 23.855469 107.929688 L 12.058594 119.722656 Z M 0.265625 107.929688 " fill-opacity="1" fill-rule="nonzero"/><path fill="#9614d0" d="M 6.8125 107.929688 L 12.058594 102.683594 L 17.308594 107.929688 L 12.058594 113.175781 Z M 6.8125 107.929688 " fill-opacity="1" fill-rule="nonzero"/><path fill="#9614d0" d="M 24.121094 95.917969 L 0 95.917969 L 0 71.796875 C 9.417969 81.21875 14.699219 86.5 24.121094 95.917969 Z M 24.121094 95.917969 " fill-opacity="1" fill-rule="nonzero"/><path fill="#bb44f0" d="M 71.320312 96.011719 L 47.199219 96.011719 L 47.199219 71.894531 C 56.621094 81.3125 61.898438 86.59375 71.320312 96.011719 Z M 71.320312 96.011719 " fill-opacity="1" fill-rule="nonzero"/><path fill="#660094" d="M 24.121094 47.878906 L 24.121094 72 L 0 72 C 0 58.6875 10.808594 47.878906 24.121094 47.878906 Z M 24.121094 47.878906 " fill-opacity="1" fill-rule="nonzero"/><path fill="#d16aff" d="M 47.636719 95.867188 C 47.636719 109.179688 36.828125 119.988281 23.515625 119.988281 C 23.515625 106.675781 34.324219 95.867188 47.636719 95.867188 Z M 47.636719 95.867188 " fill-opacity="1" fill-rule="nonzero"/><path fill="#d16aff" d="M 23.515625 71.796875 C 36.828125 71.796875 47.636719 82.605469 47.636719 95.917969 C 34.324219 95.917969 23.515625 85.109375 23.515625 71.796875 Z M 23.515625 71.796875 " fill-opacity="1" fill-rule="nonzero"/><path fill="#660094" d="M 64.914062 73.664062 L 69.097656 77.84375 L 64.914062 82.023438 L 60.734375 77.84375 Z M 64.914062 73.664062 " fill-opacity="1" fill-rule="nonzero"/><path fill="#9614d0" d="M 47.03125 47.878906 L 71.148438 47.878906 L 71.148438 72 L 47.03125 72 Z M 47.03125 47.878906 " fill-opacity="1" fill-rule="nonzero"/><path fill="#660094" d="M 70.542969 71.796875 L 94.664062 71.796875 L 94.664062 95.917969 L 70.542969 95.917969 Z M 70.542969 71.796875 " fill-opacity="1" fill-rule="nonzero"/><path fill="#9614d0" d="M 82.605469 95.917969 C 82.605469 89.257812 77.203125 83.859375 70.542969 83.859375 C 77.203125 83.859375 82.605469 78.457031 82.605469 71.796875 C 82.605469 78.457031 88.003906 83.859375 94.664062 83.859375 C 88.003906 83.859375 82.605469 89.257812 82.605469 95.917969 Z M 82.605469 95.917969 " fill-opacity="1" fill-rule="nonzero"/><path fill="#d16aff" d="M 58.84375 55.105469 C 57.589844 55.105469 56.457031 55.613281 55.636719 56.4375 C 54.816406 57.257812 54.308594 58.390625 54.308594 59.644531 C 54.308594 57.136719 52.273438 55.105469 49.769531 55.105469 C 51.023438 55.105469 52.15625 54.597656 52.976562 53.777344 C 53.796875 52.957031 54.308594 51.824219 54.308594 50.570312 C 54.308594 51.824219 54.816406 52.957031 55.636719 53.777344 C 56.457031 54.597656 57.589844 55.105469 58.84375 55.105469 Z M 58.84375 55.105469 " fill-opacity="1" fill-rule="nonzero"/><path fill="#660094" d="M 35.304688 24.175781 C 32.023438 24.175781 29.054688 25.507812 26.902344 27.65625 C 24.753906 29.804688 23.421875 32.777344 23.421875 36.054688 C 23.421875 29.496094 18.105469 24.175781 11.542969 24.175781 C 14.824219 24.175781 17.792969 22.847656 19.945312 20.699219 C 22.09375 18.546875 23.421875 15.578125 23.421875 12.296875 C 23.421875 15.578125 24.753906 18.546875 26.902344 20.699219 C 29.054688 22.847656 32.023438 24.175781 35.304688 24.175781 Z M 35.304688 24.175781 " fill-opacity="1" fill-rule="nonzero"/><g clip-path="url(#1a79531b74)"><path fill="#bb44f0" d="M 118.746094 119.988281 L 118.746094 95.867188 C 118.746094 95.867188 94.628906 95.867188 94.628906 95.867188 C 107.949219 95.867188 118.746094 106.667969 118.746094 119.988281 Z M 118.746094 119.988281 " fill-opacity="1" fill-rule="nonzero"/><path fill="#660094" d="M 94.582031 95.871094 L 94.582031 119.992188 L 118.699219 119.992188 C 105.378906 119.992188 94.582031 109.191406 94.582031 95.871094 Z M 94.582031 95.871094 " fill-opacity="1" fill-rule="nonzero"/></g><path fill="#d16aff" d="M 0 24.113281 C 13.3125 24.113281 24.121094 34.921875 24.121094 48.234375 C 10.808594 48.234375 0 37.425781 0 24.113281 Z M 0 24.113281 " fill-opacity="1" fill-rule="nonzero"/><path fill="#d16aff" d="M 24.164062 0.00390625 C 24.164062 13.316406 13.355469 24.125 0.0429688 24.125 C 0.0429688 10.8125 10.851562 0.00390625 24.164062 0.00390625 Z M 24.164062 0.00390625 " fill-opacity="1" fill-rule="nonzero"/><path fill="#d16aff" d="M 48.09375 24.125 C 48.09375 37.4375 37.285156 48.246094 23.972656 48.246094 C 23.972656 34.933594 34.78125 24.125 48.09375 24.125 Z M 48.09375 24.125 " fill-opacity="1" fill-rule="nonzero"/><path fill="#d16aff" d="M 73.605469 99.789062 L 90.753906 99.789062 L 90.753906 100.6875 L 73.605469 100.6875 Z M 73.605469 99.789062 " fill-opacity="1" fill-rule="nonzero"/><path fill="#d16aff" d="M 73.605469 102.050781 L 90.753906 102.050781 L 90.753906 102.945312 L 73.605469 102.945312 Z M 73.605469 102.050781 " fill-opacity="1" fill-rule="nonzero"/><path fill="#d16aff" d="M 73.605469 104.308594 L 90.753906 104.308594 L 90.753906 105.207031 L 73.605469 105.207031 Z M 73.605469 104.308594 " fill-opacity="1" fill-rule="nonzero"/><path fill="#d16aff" d="M 73.605469 106.570312 L 90.753906 106.570312 L 90.753906 107.464844 L 73.605469 107.464844 Z M 73.605469 106.570312 " fill-opacity="1" fill-rule="nonzero"/><path fill="#d16aff" d="M 73.605469 108.828125 L 90.753906 108.828125 L 90.753906 109.726562 L 73.605469 109.726562 Z M 73.605469 108.828125 " fill-opacity="1" fill-rule="nonzero"/><path fill="#d16aff" d="M 73.605469 111.089844 L 90.753906 111.089844 L 90.753906 111.984375 L 73.605469 111.984375 Z M 73.605469 111.089844 " fill-opacity="1" fill-rule="nonzero"/><path fill="#d16aff" d="M 73.605469 113.347656 L 90.753906 113.347656 L 90.753906 114.246094 L 73.605469 114.246094 Z M 73.605469 113.347656 " fill-opacity="1" fill-rule="nonzero"/><path fill="#d16aff" d="M 73.605469 115.609375 L 90.753906 115.609375 L 90.753906 116.503906 L 73.605469 116.503906 Z M 73.605469 115.609375 " fill-opacity="1" fill-rule="nonzero"/><path fill="#bb44f0" d="M 26.976562 51.59375 L 27.875 51.59375 L 27.875 68.738281 L 26.976562 68.738281 Z M 26.976562 51.59375 " fill-opacity="1" fill-rule="nonzero"/><path fill="#bb44f0" d="M 29.238281 51.59375 L 30.132812 51.59375 L 30.132812 68.738281 L 29.238281 68.738281 Z M 29.238281 51.59375 " fill-opacity="1" fill-rule="nonzero"/><path fill="#bb44f0" d="M 31.496094 51.59375 L 32.394531 51.59375 L 32.394531 68.738281 L 31.496094 68.738281 Z M 31.496094 51.59375 " fill-opacity="1" fill-rule="nonzero"/><path fill="#bb44f0" d="M 33.757812 51.59375 L 34.652344 51.59375 L 34.652344 68.738281 L 33.757812 68.738281 Z M 33.757812 51.59375 " fill-opacity="1" fill-rule="nonzero"/><path fill="#bb44f0" d="M 36.015625 51.59375 L 36.914062 51.59375 L 36.914062 68.738281 L 36.015625 68.738281 Z M 36.015625 51.59375 " fill-opacity="1" fill-rule="nonzero"/><path fill="#bb44f0" d="M 38.277344 51.59375 L 39.171875 51.59375 L 39.171875 68.738281 L 38.277344 68.738281 Z M 38.277344 51.59375 " fill-opacity="1" fill-rule="nonzero"/><path fill="#bb44f0" d="M 40.535156 51.59375 L 41.433594 51.59375 L 41.433594 68.738281 L 40.535156 68.738281 Z M 40.535156 51.59375 " fill-opacity="1" fill-rule="nonzero"/><path fill="#bb44f0" d="M 42.796875 51.59375 L 43.691406 51.59375 L 43.691406 68.738281 L 42.796875 68.738281 Z M 42.796875 51.59375 " fill-opacity="1" fill-rule="nonzero"/><g clip-path="url(#51a3395e3d)"><path fill="#660094" d="M 224.003906 8.207031 C 219.480469 8.207031 215.808594 4.53125 215.808594 0.0078125 L 224.003906 0.0078125 Z M 224.003906 8.207031 " fill-opacity="1" fill-rule="nonzero"/></g><g clip-path="url(#1ca4f0a02b)"><path fill="#d16aff" d="M 239.988281 8.207031 L 231.792969 8.207031 L 231.792969 0.0078125 L 239.988281 0.0078125 Z M 239.988281 8.207031 " fill-opacity="1" fill-rule="nonzero"/><path fill="#660094" d="M 239.898438 4.105469 L 235.890625 8.113281 L 231.882812 4.105469 L 235.890625 0.0976562 Z M 239.898438 4.105469 " fill-opacity="1" fill-rule="nonzero"/></g><path fill="#d16aff" d="M 237.675781 4.105469 L 235.890625 5.890625 L 234.109375 4.105469 L 235.890625 2.324219 Z M 237.675781 4.105469 " fill-opacity="1" fill-rule="nonzero"/><g clip-path="url(#3b44109395)"><path fill="#d16aff" d="M 231.792969 8.1875 L 239.988281 8.1875 L 239.988281 16.386719 C 236.789062 13.183594 234.992188 11.390625 231.792969 8.1875 Z M 231.792969 8.1875 " fill-opacity="1" fill-rule="nonzero"/></g><path fill="#bb44f0" d="M 215.75 8.15625 L 223.949219 8.15625 L 223.949219 16.355469 C 220.746094 13.152344 218.953125 11.359375 215.75 8.15625 Z M 215.75 8.15625 " fill-opacity="1" fill-rule="nonzero"/><g clip-path="url(#0c0351f900)"><path fill="#660094" d="M 231.792969 24.515625 L 231.792969 16.316406 L 239.988281 16.316406 C 239.988281 20.84375 236.316406 24.515625 231.792969 24.515625 Z M 231.792969 24.515625 " fill-opacity="1" fill-rule="nonzero"/></g><g clip-path="url(#81ad17a950)"><path fill="#d16aff" d="M 223.800781 8.207031 C 223.800781 3.679688 227.472656 0.0078125 231.996094 0.0078125 C 231.996094 4.53125 228.324219 8.207031 223.800781 8.207031 Z M 223.800781 8.207031 " fill-opacity="1" fill-rule="nonzero"/></g><path fill="#d16aff" d="M 231.996094 16.386719 C 227.472656 16.386719 223.800781 12.714844 223.800781 8.1875 C 228.324219 8.1875 231.996094 11.863281 231.996094 16.386719 Z M 231.996094 16.386719 " fill-opacity="1" fill-rule="nonzero"/><path fill="#660094" d="M 217.925781 15.753906 L 216.503906 14.332031 L 217.925781 12.910156 L 219.347656 14.332031 Z M 217.925781 15.753906 " fill-opacity="1" fill-rule="nonzero"/><path fill="#d16aff" d="M 224.003906 24.515625 L 215.808594 24.515625 L 215.808594 16.316406 L 224.003906 16.316406 Z M 224.003906 24.515625 " fill-opacity="1" fill-rule="nonzero"/><path fill="#660094" d="M 216.011719 16.386719 L 207.816406 16.386719 L 207.816406 8.1875 L 216.011719 8.1875 Z M 216.011719 16.386719 " fill-opacity="1" fill-rule="nonzero"/><path fill="#d16aff" d="M 211.914062 8.1875 C 211.914062 10.453125 213.75 12.289062 216.011719 12.289062 C 213.75 12.289062 211.914062 14.121094 211.914062 16.386719 C 211.914062 14.121094 210.078125 12.289062 207.816406 12.289062 C 210.078125 12.289062 211.914062 10.453125 211.914062 8.1875 Z M 211.914062 8.1875 " fill-opacity="1" fill-rule="nonzero"/><path fill="#d16aff" d="M 219.988281 22.058594 C 220.414062 22.058594 220.800781 21.886719 221.082031 21.609375 C 221.359375 21.328125 221.53125 20.941406 221.53125 20.515625 C 221.53125 21.367188 222.222656 22.058594 223.074219 22.058594 C 222.648438 22.058594 222.261719 22.230469 221.984375 22.511719 C 221.703125 22.789062 221.53125 23.175781 221.53125 23.601562 C 221.53125 23.175781 221.359375 22.789062 221.082031 22.511719 C 220.800781 22.230469 220.414062 22.058594 219.988281 22.058594 Z M 219.988281 22.058594 " fill-opacity="1" fill-rule="nonzero"/><path fill="#660094" d="M 227.992188 32.570312 C 229.105469 32.570312 230.117188 32.121094 230.847656 31.390625 C 231.578125 30.660156 232.027344 29.648438 232.027344 28.535156 C 232.027344 30.765625 233.835938 32.570312 236.066406 32.570312 C 234.953125 32.570312 233.941406 33.023438 233.210938 33.753906 C 232.480469 34.484375 232.027344 35.496094 232.027344 36.609375 C 232.027344 35.496094 231.578125 34.484375 230.847656 33.753906 C 230.117188 33.023438 229.105469 32.570312 227.992188 32.570312 Z M 227.992188 32.570312 " fill-opacity="1" fill-rule="nonzero"/><g clip-path="url(#650010bbff)"><path fill="#bb44f0" d="M 199.628906 0.0078125 L 199.628906 8.207031 C 199.628906 8.207031 207.828125 8.207031 207.828125 8.207031 C 203.300781 8.207031 199.628906 4.535156 199.628906 0.0078125 Z M 199.628906 0.0078125 " fill-opacity="1" fill-rule="nonzero"/><path fill="#660094" d="M 207.84375 8.203125 L 207.84375 0.0078125 L 199.644531 0.0078125 C 204.171875 0.0078125 207.84375 3.675781 207.84375 8.203125 Z M 207.84375 8.203125 " fill-opacity="1" fill-rule="nonzero"/></g><g clip-path="url(#adca2eca35)"><path fill="#d16aff" d="M 239.988281 32.59375 C 235.464844 32.59375 231.792969 28.921875 231.792969 24.394531 C 236.316406 24.394531 239.988281 28.070312 239.988281 32.59375 Z M 239.988281 32.59375 " fill-opacity="1" fill-rule="nonzero"/></g><g clip-path="url(#37e109b5b2)"><path fill="#d16aff" d="M 231.777344 40.789062 C 231.777344 36.261719 235.449219 32.589844 239.976562 32.589844 C 239.976562 37.113281 236.300781 40.789062 231.777344 40.789062 Z M 231.777344 40.789062 " fill-opacity="1" fill-rule="nonzero"/></g><path fill="#d16aff" d="M 223.644531 32.589844 C 223.644531 28.066406 227.316406 24.390625 231.839844 24.390625 C 231.839844 28.914062 228.167969 32.589844 223.644531 32.589844 Z M 223.644531 32.589844 " fill-opacity="1" fill-rule="nonzero"/><path fill="#d16aff" d="M 214.972656 6.871094 L 209.144531 6.871094 L 209.144531 6.566406 L 214.972656 6.566406 Z M 214.972656 6.871094 " fill-opacity="1" fill-rule="nonzero"/><path fill="#d16aff" d="M 214.972656 6.105469 L 209.144531 6.105469 L 209.144531 5.800781 L 214.972656 5.800781 Z M 214.972656 6.105469 " fill-opacity="1" fill-rule="nonzero"/><path fill="#d16aff" d="M 214.972656 5.335938 L 209.144531 5.335938 L 209.144531 5.03125 L 214.972656 5.03125 Z M 214.972656 5.335938 " fill-opacity="1" fill-rule="nonzero"/><path fill="#d16aff" d="M 214.972656 4.570312 L 209.144531 4.570312 L 209.144531 4.265625 L 214.972656 4.265625 Z M 214.972656 4.570312 " fill-opacity="1" fill-rule="nonzero"/><path fill="#d16aff" d="M 214.972656 3.800781 L 209.144531 3.800781 L 209.144531 3.496094 L 214.972656 3.496094 Z M 214.972656 3.800781 " fill-opacity="1" fill-rule="nonzero"/><path fill="#d16aff" d="M 214.972656 3.03125 L 209.144531 3.03125 L 209.144531 2.726562 L 214.972656 2.726562 Z M 214.972656 3.03125 " fill-opacity="1" fill-rule="nonzero"/><path fill="#d16aff" d="M 214.972656 2.265625 L 209.144531 2.265625 L 209.144531 1.960938 L 214.972656 1.960938 Z M 214.972656 2.265625 " fill-opacity="1" fill-rule="nonzero"/><path fill="#d16aff" d="M 214.972656 1.496094 L 209.144531 1.496094 L 209.144531 1.191406 L 214.972656 1.191406 Z M 214.972656 1.496094 " fill-opacity="1" fill-rule="nonzero"/><path fill="#bb44f0" d="M 230.820312 23.253906 L 230.515625 23.253906 L 230.515625 17.425781 L 230.820312 17.425781 Z M 230.820312 23.253906 " fill-opacity="1" fill-rule="nonzero"/><path fill="#bb44f0" d="M 230.054688 23.253906 L 229.75 23.253906 L 229.75 17.425781 L 230.054688 17.425781 Z M 230.054688 23.253906 " fill-opacity="1" fill-rule="nonzero"/><path fill="#bb44f0" d="M 229.285156 23.253906 L 228.980469 23.253906 L 228.980469 17.425781 L 229.285156 17.425781 Z M 229.285156 23.253906 " fill-opacity="1" fill-rule="nonzero"/><path fill="#bb44f0" d="M 228.515625 23.253906 L 228.210938 23.253906 L 228.210938 17.425781 L 228.515625 17.425781 Z M 228.515625 23.253906 " fill-opacity="1" fill-rule="nonzero"/><path fill="#bb44f0" d="M 227.75 23.253906 L 227.445312 23.253906 L 227.445312 17.425781 L 227.75 17.425781 Z M 227.75 23.253906 " fill-opacity="1" fill-rule="nonzero"/><path fill="#bb44f0" d="M 226.980469 23.253906 L 226.675781 23.253906 L 226.675781 17.425781 L 226.980469 17.425781 Z M 226.980469 23.253906 " fill-opacity="1" fill-rule="nonzero"/><path fill="#bb44f0" d="M 226.210938 23.253906 L 225.90625 23.253906 L 225.90625 17.425781 L 226.210938 17.425781 Z M 226.210938 23.253906 " fill-opacity="1" fill-rule="nonzero"/><path fill="#bb44f0" d="M 225.445312 23.253906 L 225.140625 23.253906 L 225.140625 17.425781 L 225.445312 17.425781 Z M 225.445312 23.253906 " fill-opacity="1" fill-rule="nonzero"/></svg>