<svg xmlns="http://www.w3.org/2000/svg" xmlns:xlink="http://www.w3.org/1999/xlink" width="320" zoomAndPan="magnify" viewBox="0 0 240 119.999999" height="160" preserveAspectRatio="xMidYMid meet" version="1.0"><defs><clipPath id="f733378525"><path d="M 0 110.355469 L 11.859375 110.355469 L 11.859375 120 L 0 120 Z M 0 110.355469 " clip-rule="nonzero"/></clipPath><clipPath id="809aeb5c4a"><path d="M 11.863281 110.355469 L 35.863281 110.355469 L 35.863281 120 L 11.863281 120 Z M 11.863281 110.355469 " clip-rule="nonzero"/></clipPath><clipPath id="75b2607b9e"><path d="M 0 98.496094 L 24 98.496094 L 24 110.496094 L 0 110.496094 Z M 0 98.496094 " clip-rule="nonzero"/></clipPath><clipPath id="00a6503293"><path d="M 0 74.769531 L 11.859375 74.769531 L 11.859375 86.628906 L 0 86.628906 Z M 0 74.769531 " clip-rule="nonzero"/></clipPath><clipPath id="821e72388f"><path d="M 0 86.492188 L 23.71875 86.492188 L 23.71875 98.492188 L 0 98.492188 Z M 0 86.492188 " clip-rule="nonzero"/></clipPath><clipPath id="cb188de3f1"><path d="M 11.863281 74.769531 L 23.863281 74.769531 L 23.863281 86.628906 L 11.863281 86.628906 Z M 11.863281 74.769531 " clip-rule="nonzero"/></clipPath><clipPath id="a04f6504a5"><path d="M 0 62.90625 L 23.71875 62.90625 L 23.71875 74.765625 L 0 74.765625 Z M 0 62.90625 " clip-rule="nonzero"/></clipPath><clipPath id="24e629477b"><path d="M 228.136719 0 L 239.996094 0 L 239.996094 9.484375 L 228.136719 9.484375 Z M 228.136719 0 " clip-rule="nonzero"/></clipPath><clipPath id="51fbf578e6"><path d="M 204.128906 0 L 228.128906 0 L 228.128906 9.484375 L 204.128906 9.484375 Z M 204.128906 0 " clip-rule="nonzero"/></clipPath><clipPath id="74dd9a7910"><path d="M 216 9.347656 L 239.992188 9.347656 L 239.992188 21.347656 L 216 21.347656 Z M 216 9.347656 " clip-rule="nonzero"/></clipPath><clipPath id="e2c5e4c60e"><path d="M 228.136719 33.214844 L 239.996094 33.214844 L 239.996094 45.074219 L 228.136719 45.074219 Z M 228.136719 33.214844 " clip-rule="nonzero"/></clipPath><clipPath id="be18251bb4"><path d="M 216.273438 21.351562 L 240 21.351562 L 240 33.351562 L 216.273438 33.351562 Z M 216.273438 21.351562 " clip-rule="nonzero"/></clipPath><clipPath id="18fba9c6b5"><path d="M 216.132812 33.214844 L 228.132812 33.214844 L 228.132812 45.074219 L 216.132812 45.074219 Z M 216.132812 33.214844 " clip-rule="nonzero"/></clipPath><clipPath id="94eac54563"><path d="M 216.273438 45.078125 L 240 45.078125 L 240 56.9375 L 216.273438 56.9375 Z M 216.273438 45.078125 " clip-rule="nonzero"/></clipPath><clipPath id="8285621cbf"><path d="M 23.726562 98.496094 L 35.726562 98.496094 L 35.726562 110.496094 L 23.726562 110.496094 Z M 23.726562 98.496094 " clip-rule="nonzero"/></clipPath><clipPath id="6d583785dc"><path d="M 204.410156 9.488281 L 216.269531 9.488281 L 216.269531 21.347656 L 204.410156 21.347656 Z M 204.410156 9.488281 " clip-rule="nonzero"/></clipPath><clipPath id="869d1e8039"><path d="M 23.726562 86.492188 L 35.585938 86.492188 L 35.585938 98.492188 L 23.726562 98.492188 Z M 23.726562 86.492188 " clip-rule="nonzero"/></clipPath><clipPath id="99ec100a60"><path d="M 204.269531 21.351562 L 216.269531 21.351562 L 216.269531 33.210938 L 204.269531 33.210938 Z M 204.269531 21.351562 " clip-rule="nonzero"/></clipPath><clipPath id="50de81c909"><path d="M 221 108 L 235 108 L 235 119.972656 L 221 119.972656 Z M 221 108 " clip-rule="nonzero"/></clipPath><clipPath id="ffcfa2b0ff"><path d="M 192.269531 78 L 240 78 L 240 119.972656 L 192.269531 119.972656 Z M 192.269531 78 " clip-rule="nonzero"/></clipPath><clipPath id="5b58426623"><path d="M 199 110 L 214 110 L 214 119.972656 L 199 119.972656 Z M 199 110 " clip-rule="nonzero"/></clipPath><clipPath id="ac346f37d2"><path d="M 5 0.0273438 L 19 0.0273438 L 19 12 L 5 12 Z M 5 0.0273438 " clip-rule="nonzero"/></clipPath><clipPath id="2f34caf22b"><path d="M 0 0.0273438 L 47.996094 0.0273438 L 47.996094 42 L 0 42 Z M 0 0.0273438 " clip-rule="nonzero"/></clipPath><clipPath id="948d9501e6"><path d="M 27 0.0273438 L 41 0.0273438 L 41 10 L 27 10 Z M 27 0.0273438 " clip-rule="nonzero"/></clipPath></defs><rect x="-24" width="288" fill="#ffffff" y="-12" height="143.999998" fill-opacity="1"/><rect x="-24" width="288" fill="#310047" y="-12" height="143.999998" fill-opacity="1"/><g clip-path="url(#f733378525)"><path fill="#d16aff" d="M 11.859375 122.214844 C 5.308594 122.214844 0 116.90625 0 110.355469 L 11.859375 110.355469 Z M 11.859375 122.214844 " fill-opacity="1" fill-rule="nonzero"/></g><g clip-path="url(#809aeb5c4a)"><path fill="#9614d0" d="M 11.863281 122.214844 C 11.863281 115.667969 17.171875 110.355469 23.722656 110.355469 C 30.273438 110.355469 35.582031 115.667969 35.582031 122.214844 Z M 11.863281 122.214844 " fill-opacity="1" fill-rule="nonzero"/></g><g clip-path="url(#75b2607b9e)"><path fill="#9614d0" d="M 0 110.355469 C 0 103.804688 5.308594 98.496094 11.859375 98.496094 C 18.410156 98.496094 23.71875 103.804688 23.71875 110.355469 Z M 0 110.355469 " fill-opacity="1" fill-rule="nonzero"/></g><g clip-path="url(#00a6503293)"><path fill="#d16aff" d="M 0 74.769531 C 6.550781 74.769531 11.859375 80.078125 11.859375 86.628906 L 0 86.628906 Z M 0 74.769531 " fill-opacity="1" fill-rule="nonzero"/></g><g clip-path="url(#821e72388f)"><path fill="#9614d0" d="M 23.71875 86.632812 C 23.71875 93.179688 18.410156 98.492188 11.859375 98.492188 C 5.308594 98.492188 0 93.179688 0 86.632812 Z M 23.71875 86.632812 " fill-opacity="1" fill-rule="nonzero"/></g><g clip-path="url(#cb188de3f1)"><path fill="#d16aff" d="M 11.863281 86.628906 C 18.414062 86.628906 23.722656 81.316406 23.722656 74.769531 L 11.863281 74.769531 Z M 11.863281 86.628906 " fill-opacity="1" fill-rule="nonzero"/></g><g clip-path="url(#a04f6504a5)"><path fill="#9614d0" d="M 23.71875 74.765625 C 23.71875 68.214844 18.410156 62.90625 11.859375 62.90625 C 5.308594 62.90625 0 68.214844 0 74.765625 Z M 23.71875 74.765625 " fill-opacity="1" fill-rule="nonzero"/></g><g clip-path="url(#24e629477b)"><path fill="#d16aff" d="M 228.136719 -2.375 C 234.6875 -2.375 239.996094 2.933594 239.996094 9.484375 L 228.136719 9.484375 Z M 228.136719 -2.375 " fill-opacity="1" fill-rule="nonzero"/></g><g clip-path="url(#51fbf578e6)"><path fill="#9614d0" d="M 228.128906 -2.375 C 228.128906 4.175781 222.820312 9.484375 216.269531 9.484375 C 209.71875 9.484375 204.410156 4.175781 204.410156 -2.375 Z M 228.128906 -2.375 " fill-opacity="1" fill-rule="nonzero"/></g><g clip-path="url(#74dd9a7910)"><path fill="#9614d0" d="M 239.992188 9.488281 C 239.992188 16.039062 234.683594 21.347656 228.132812 21.347656 C 221.582031 21.347656 216.273438 16.039062 216.273438 9.488281 Z M 239.992188 9.488281 " fill-opacity="1" fill-rule="nonzero"/></g><g clip-path="url(#e2c5e4c60e)"><path fill="#d16aff" d="M 239.996094 45.074219 C 233.445312 45.074219 228.136719 39.761719 228.136719 33.214844 L 239.996094 33.214844 Z M 239.996094 45.074219 " fill-opacity="1" fill-rule="nonzero"/></g><g clip-path="url(#be18251bb4)"><path fill="#9614d0" d="M 216.273438 33.210938 C 216.273438 26.660156 221.582031 21.351562 228.132812 21.351562 C 234.683594 21.351562 239.992188 26.660156 239.992188 33.210938 Z M 216.273438 33.210938 " fill-opacity="1" fill-rule="nonzero"/></g><g clip-path="url(#18fba9c6b5)"><path fill="#d16aff" d="M 228.132812 33.214844 C 221.582031 33.214844 216.273438 38.523438 216.273438 45.074219 L 228.132812 45.074219 Z M 228.132812 33.214844 " fill-opacity="1" fill-rule="nonzero"/></g><g clip-path="url(#94eac54563)"><path fill="#9614d0" d="M 216.273438 45.078125 C 216.273438 51.625 221.582031 56.9375 228.132812 56.9375 C 234.683594 56.9375 239.992188 51.625 239.992188 45.078125 Z M 216.273438 45.078125 " fill-opacity="1" fill-rule="nonzero"/></g><g clip-path="url(#8285621cbf)"><path fill="#d16aff" d="M 23.726562 98.496094 C 30.277344 98.496094 35.585938 103.804688 35.585938 110.355469 L 23.726562 110.355469 Z M 23.726562 98.496094 " fill-opacity="1" fill-rule="nonzero"/></g><g clip-path="url(#6d583785dc)"><path fill="#d16aff" d="M 216.269531 21.347656 C 209.71875 21.347656 204.410156 16.039062 204.410156 9.488281 L 216.269531 9.488281 Z M 216.269531 21.347656 " fill-opacity="1" fill-rule="nonzero"/></g><g clip-path="url(#869d1e8039)"><path fill="#d16aff" d="M 23.726562 98.492188 C 30.277344 98.492188 35.585938 93.179688 35.585938 86.632812 L 23.726562 86.632812 Z M 23.726562 98.492188 " fill-opacity="1" fill-rule="nonzero"/></g><g clip-path="url(#99ec100a60)"><path fill="#d16aff" d="M 216.269531 21.351562 C 209.71875 21.351562 204.410156 26.660156 204.410156 33.210938 L 216.269531 33.210938 Z M 216.269531 21.351562 " fill-opacity="1" fill-rule="nonzero"/></g><path fill="#d16aff" d="M 232 89.015625 C 231.261719 89.753906 230.632812 90.578125 230.117188 91.484375 C 229.597656 92.390625 229.207031 93.351562 228.949219 94.363281 C 228.6875 95.375 228.5625 96.402344 228.574219 97.445312 C 228.589844 98.492188 228.742188 99.515625 229.027344 100.519531 C 229.101562 100.769531 229.179688 101.015625 229.269531 101.261719 C 229.339844 101.453125 229.414062 101.644531 229.492188 101.835938 C 229.691406 102.300781 229.917969 102.753906 230.171875 103.191406 C 230.273438 103.363281 230.378906 103.53125 230.488281 103.695312 C 230.535156 103.765625 230.582031 103.835938 230.628906 103.90625 C 230.660156 103.953125 230.691406 104 230.726562 104.046875 C 232.011719 105.855469 233.675781 107.191406 235.71875 108.058594 C 236.179688 108.257812 236.65625 108.421875 237.140625 108.554688 C 237.347656 108.613281 237.554688 108.664062 237.761719 108.710938 C 237.886719 108.738281 238.011719 108.761719 238.140625 108.785156 C 238.839844 108.914062 239.546875 108.980469 240.257812 108.980469 L 240.269531 108.980469 L 240.269531 108.261719 C 240.144531 108.261719 240.015625 108.257812 239.890625 108.253906 C 239.109375 108.230469 238.34375 108.121094 237.585938 107.929688 C 237.535156 107.914062 237.480469 107.902344 237.429688 107.886719 C 237.070312 107.792969 236.714844 107.675781 236.367188 107.542969 C 234.628906 106.878906 233.15625 105.84375 231.945312 104.433594 C 231.746094 104.199219 231.550781 103.953125 231.371094 103.703125 C 231.304688 103.609375 231.238281 103.515625 231.171875 103.421875 C 230.734375 102.773438 230.367188 102.085938 230.078125 101.359375 C 229.976562 101.109375 229.886719 100.855469 229.804688 100.59375 C 229.460938 99.515625 229.292969 98.414062 229.292969 97.28125 C 229.292969 91.230469 234.21875 86.304688 240.269531 86.304688 L 240.269531 85.585938 C 238.71875 85.585938 237.226562 85.882812 235.792969 86.476562 C 234.359375 87.070312 233.097656 87.914062 232 89.011719 Z M 232 89.015625 " fill-opacity="1" fill-rule="nonzero"/><path fill="#d16aff" d="M 233.773438 90.789062 C 233.128906 91.433594 232.59375 92.160156 232.164062 92.96875 C 231.734375 93.773438 231.429688 94.628906 231.257812 95.523438 C 231.082031 96.421875 231.039062 97.324219 231.132812 98.234375 C 231.226562 99.140625 231.453125 100.015625 231.808594 100.859375 C 231.828125 100.910156 231.851562 100.960938 231.871094 101.007812 C 232.210938 101.769531 232.640625 102.472656 233.171875 103.117188 C 233.699219 103.761719 234.304688 104.324219 234.988281 104.800781 C 235.667969 105.28125 236.402344 105.660156 237.1875 105.9375 C 237.972656 106.21875 238.78125 106.386719 239.609375 106.445312 C 239.828125 106.460938 240.050781 106.46875 240.269531 106.46875 L 240.269531 105.75 C 239.847656 105.75 239.425781 105.71875 239.003906 105.65625 C 238.59375 105.59375 238.1875 105.503906 237.789062 105.378906 C 236.921875 105.113281 236.121094 104.71875 235.382812 104.195312 C 234.640625 103.671875 234.003906 103.046875 233.464844 102.316406 C 232.925781 101.589844 232.515625 100.792969 232.230469 99.933594 C 231.945312 99.074219 231.804688 98.191406 231.804688 97.285156 C 231.804688 92.613281 235.601562 88.816406 240.269531 88.816406 L 240.269531 88.097656 C 239.050781 88.097656 237.878906 88.328125 236.753906 88.796875 C 235.628906 89.261719 234.636719 89.925781 233.777344 90.789062 Z M 233.773438 90.789062 " fill-opacity="1" fill-rule="nonzero"/><path fill="#d16aff" d="M 233.597656 97.285156 C 233.597656 99.066406 234.289062 100.742188 235.550781 102.003906 C 236.8125 103.265625 238.488281 103.957031 240.269531 103.957031 L 240.269531 103.242188 C 236.984375 103.242188 234.3125 100.570312 234.3125 97.285156 C 234.3125 93.996094 236.984375 91.328125 240.269531 91.328125 L 240.269531 90.609375 C 238.488281 90.609375 236.8125 91.304688 235.550781 92.5625 C 234.289062 93.824219 233.597656 95.5 233.597656 97.285156 Z M 233.597656 97.285156 " fill-opacity="1" fill-rule="nonzero"/><g clip-path="url(#50de81c909)"><path fill="#d16aff" d="M 234.714844 114.691406 C 234.714844 112.910156 234.023438 111.234375 232.761719 109.972656 C 231.5 108.714844 229.824219 108.019531 228.042969 108.019531 C 226.648438 108.019531 225.320312 108.441406 224.203125 109.230469 C 223.890625 109.453125 223.59375 109.699219 223.320312 109.972656 L 223.3125 109.984375 C 222.242188 111.058594 221.582031 112.433594 221.410156 113.914062 C 221.382812 114.175781 221.367188 114.433594 221.367188 114.695312 C 221.367188 114.828125 221.371094 114.957031 221.378906 115.089844 C 221.472656 116.722656 222.15625 118.246094 223.320312 119.414062 C 223.53125 119.621094 223.75 119.816406 223.984375 119.996094 L 225.324219 119.996094 C 223.402344 119.003906 222.085938 117 222.085938 114.691406 C 222.085938 114.527344 222.089844 114.359375 222.105469 114.195312 C 222.136719 113.828125 222.203125 113.464844 222.300781 113.105469 C 222.398438 112.75 222.53125 112.40625 222.695312 112.074219 C 222.855469 111.742188 223.050781 111.425781 223.269531 111.132812 C 223.492188 110.835938 223.738281 110.5625 224.011719 110.3125 C 224.285156 110.058594 224.578125 109.835938 224.890625 109.640625 C 225.203125 109.445312 225.535156 109.28125 225.878906 109.144531 C 226.222656 109.011719 226.578125 108.910156 226.941406 108.839844 C 227.304688 108.769531 227.671875 108.738281 228.042969 108.738281 C 231.328125 108.738281 234 111.40625 234 114.691406 C 234 117 232.679688 119.003906 230.757812 119.996094 L 232.097656 119.996094 C 232.332031 119.816406 232.554688 119.621094 232.761719 119.414062 C 234.023438 118.152344 234.714844 116.476562 234.714844 114.691406 Z M 234.714844 114.691406 " fill-opacity="1" fill-rule="nonzero"/></g><g clip-path="url(#ffcfa2b0ff)"><path fill="#d16aff" d="M 223.734375 81.8125 C 223.414062 82.132812 223.113281 82.472656 222.832031 82.828125 C 222.550781 83.183594 222.289062 83.554688 222.050781 83.941406 C 221.8125 84.328125 221.597656 84.726562 221.40625 85.136719 C 221.214844 85.546875 221.046875 85.96875 220.902344 86.402344 C 220.761719 86.832031 220.640625 87.269531 220.550781 87.714844 C 220.457031 88.15625 220.390625 88.605469 220.351562 89.058594 C 220.308594 89.511719 220.296875 89.964844 220.308594 90.417969 C 220.320312 90.871094 220.359375 91.320312 220.421875 91.769531 C 220.488281 92.21875 220.578125 92.664062 220.695312 93.101562 C 220.8125 93.542969 220.953125 93.972656 221.117188 94.394531 C 221.285156 94.816406 221.472656 95.230469 221.6875 95.628906 C 221.902344 96.03125 222.136719 96.417969 222.398438 96.789062 C 222.65625 97.164062 222.933594 97.519531 223.234375 97.859375 C 223.535156 98.199219 223.855469 98.523438 224.191406 98.824219 C 224.527344 99.128906 224.882812 99.414062 225.253906 99.675781 C 225.625 99.9375 226.007812 100.175781 226.40625 100.394531 C 226.417969 100.457031 226.433594 100.515625 226.449219 100.574219 C 225.203125 100.710938 224 101.011719 222.835938 101.472656 C 222.269531 100.472656 221.566406 99.578125 220.738281 98.785156 C 219.90625 97.992188 218.976562 97.335938 217.953125 96.816406 C 216.929688 96.296875 215.851562 95.933594 214.722656 95.730469 C 213.589844 95.527344 212.457031 95.488281 211.3125 95.621094 C 210.171875 95.75 209.074219 96.042969 208.019531 96.496094 C 206.964844 96.945312 205.996094 97.542969 205.113281 98.28125 C 204.234375 99.015625 203.476562 99.863281 202.847656 100.824219 C 202.214844 101.785156 201.734375 102.8125 201.40625 103.914062 C 201.289062 103.957031 201.171875 104.003906 201.058594 104.050781 C 201.023438 104.066406 200.988281 104.082031 200.953125 104.097656 C 200.5625 104.261719 200.1875 104.441406 199.816406 104.636719 C 199.597656 104.753906 199.382812 104.875 199.167969 105.003906 C 198.117188 105.632812 197.164062 106.386719 196.304688 107.265625 C 195.449219 108.144531 194.71875 109.117188 194.117188 110.183594 C 193.511719 111.253906 193.054688 112.378906 192.742188 113.566406 C 192.429688 114.753906 192.273438 115.960938 192.277344 117.1875 C 192.273438 118.132812 192.367188 119.066406 192.550781 119.996094 L 193.289062 119.996094 C 193.089844 119.070312 192.992188 118.132812 192.992188 117.1875 C 192.992188 112.347656 195.550781 108.097656 199.386719 105.71875 C 199.59375 105.589844 199.808594 105.464844 200.023438 105.347656 C 200.398438 105.140625 200.785156 104.953125 201.179688 104.78125 C 201.203125 104.773438 201.222656 104.765625 201.242188 104.757812 C 201.464844 104.664062 201.6875 104.574219 201.914062 104.492188 C 201.941406 104.484375 201.96875 104.472656 201.996094 104.464844 C 202.390625 104.324219 202.789062 104.203125 203.195312 104.101562 C 203.308594 104.074219 203.421875 104.046875 203.539062 104.023438 C 203.65625 103.996094 203.78125 103.96875 203.902344 103.945312 C 204.058594 103.914062 204.210938 103.886719 204.371094 103.863281 C 204.660156 103.816406 204.953125 103.78125 205.246094 103.753906 C 205.46875 103.734375 205.695312 103.71875 205.917969 103.710938 C 205.945312 103.710938 205.972656 103.707031 206 103.707031 C 206.160156 103.703125 206.320312 103.699219 206.480469 103.699219 C 206.574219 103.699219 206.664062 103.699219 206.757812 103.703125 C 207.273438 103.710938 207.789062 103.75 208.300781 103.820312 C 208.582031 103.859375 208.859375 103.90625 209.132812 103.960938 C 210.421875 104.21875 211.644531 104.65625 212.804688 105.273438 C 213.054688 105.40625 213.300781 105.546875 213.539062 105.695312 C 213.59375 105.730469 213.648438 105.761719 213.699219 105.796875 C 213.859375 105.898438 214.015625 106 214.167969 106.109375 C 214.539062 106.367188 214.898438 106.644531 215.242188 106.9375 C 215.425781 107.09375 215.605469 107.257812 215.777344 107.421875 C 215.789062 107.433594 215.800781 107.445312 215.8125 107.457031 C 215.546875 107.90625 215.304688 108.371094 215.089844 108.847656 C 215.046875 108.941406 215.007812 109.039062 214.964844 109.132812 C 214.894531 109.058594 214.824219 108.988281 214.75 108.914062 C 213.675781 107.835938 212.4375 107 211.035156 106.410156 C 210.097656 106.011719 209.121094 105.742188 208.113281 105.601562 C 207.871094 105.570312 207.625 105.542969 207.378906 105.523438 C 207.082031 105.5 206.78125 105.492188 206.480469 105.492188 C 206.316406 105.492188 206.152344 105.492188 205.988281 105.5 C 205.734375 105.511719 205.480469 105.53125 205.230469 105.554688 C 204.753906 105.605469 204.285156 105.6875 203.816406 105.792969 C 203.5625 105.855469 203.308594 105.921875 203.058594 106 C 202.675781 106.117188 202.296875 106.253906 201.929688 106.410156 C 201.839844 106.449219 201.75 106.488281 201.660156 106.527344 C 201.410156 106.640625 201.164062 106.761719 200.925781 106.890625 C 199.996094 107.394531 199.148438 108.007812 198.386719 108.738281 C 197.625 109.46875 196.976562 110.285156 196.433594 111.191406 C 195.894531 112.097656 195.484375 113.058594 195.203125 114.078125 C 194.925781 115.09375 194.785156 116.132812 194.785156 117.1875 C 194.785156 118.136719 194.898438 119.070312 195.125 119.996094 L 195.867188 119.996094 C 195.625 119.074219 195.503906 118.136719 195.503906 117.1875 C 195.503906 113.160156 197.683594 109.628906 200.925781 107.722656 C 201.15625 107.585938 201.394531 107.457031 201.636719 107.335938 C 202.074219 107.121094 202.527344 106.933594 202.988281 106.777344 C 203.230469 106.695312 203.476562 106.621094 203.722656 106.558594 C 204.175781 106.441406 204.636719 106.351562 205.101562 106.292969 C 205.34375 106.261719 205.585938 106.242188 205.835938 106.226562 C 206.050781 106.214844 206.265625 106.207031 206.480469 106.207031 C 206.722656 106.207031 206.960938 106.214844 207.195312 106.230469 C 207.4375 106.246094 207.675781 106.269531 207.914062 106.300781 C 210.585938 106.652344 212.960938 107.964844 214.671875 109.882812 C 214.4375 110.53125 214.253906 111.191406 214.117188 111.863281 C 214.078125 111.878906 214.035156 111.890625 213.996094 111.902344 C 213.691406 111.46875 213.351562 111.066406 212.976562 110.691406 C 212.132812 109.84375 211.160156 109.1875 210.058594 108.722656 C 209.359375 108.425781 208.636719 108.222656 207.890625 108.109375 C 207.644531 108.070312 207.398438 108.042969 207.148438 108.023438 C 206.929688 108.007812 206.707031 108 206.480469 108 C 206.253906 108 206.023438 108.007812 205.796875 108.023438 C 205.558594 108.042969 205.320312 108.070312 205.082031 108.105469 C 204.636719 108.171875 204.199219 108.273438 203.769531 108.40625 C 203.535156 108.480469 203.304688 108.5625 203.074219 108.652344 C 203.019531 108.675781 202.960938 108.699219 202.90625 108.722656 C 202.53125 108.878906 202.167969 109.0625 201.816406 109.269531 C 201.59375 109.402344 201.378906 109.542969 201.167969 109.691406 C 199.75 110.699219 198.699219 112.007812 198.019531 113.609375 C 197.535156 114.753906 197.292969 115.945312 197.296875 117.1875 C 197.296875 118.144531 197.441406 119.082031 197.734375 119.996094 L 198.492188 119.996094 C 198.171875 119.085938 198.011719 118.148438 198.015625 117.1875 C 198.015625 114.441406 199.324219 112 201.355469 110.453125 C 201.554688 110.296875 201.765625 110.152344 201.980469 110.015625 C 202.371094 109.769531 202.78125 109.554688 203.207031 109.378906 C 203.429688 109.285156 203.65625 109.199219 203.890625 109.125 C 204.316406 108.988281 204.75 108.882812 205.195312 108.816406 C 205.429688 108.78125 205.671875 108.753906 205.914062 108.738281 C 206.101562 108.726562 206.292969 108.71875 206.480469 108.71875 C 206.757812 108.71875 207.03125 108.730469 207.300781 108.757812 C 207.566406 108.785156 207.832031 108.820312 208.089844 108.871094 C 210.171875 109.273438 211.980469 110.4375 213.21875 112.0625 C 213.378906 112.273438 213.53125 112.492188 213.671875 112.71875 C 213.757812 112.859375 213.839844 113 213.917969 113.140625 C 213.886719 113.441406 213.863281 113.746094 213.851562 114.050781 C 213.839844 114.261719 213.835938 114.476562 213.835938 114.691406 C 213.835938 114.722656 213.835938 114.753906 213.835938 114.78125 C 213.839844 115.234375 213.863281 115.683594 213.90625 116.128906 C 213.929688 116.367188 213.960938 116.605469 213.996094 116.839844 C 214.0625 117.285156 214.152344 117.722656 214.261719 118.160156 C 214.320312 118.394531 214.382812 118.625 214.457031 118.855469 C 214.515625 119.050781 214.578125 119.242188 214.644531 119.433594 C 214.710938 119.621094 214.785156 119.808594 214.859375 119.992188 L 215.640625 119.992188 C 215.554688 119.796875 215.476562 119.597656 215.398438 119.394531 C 215.378906 119.339844 215.359375 119.285156 215.339844 119.230469 C 215.320312 119.171875 215.296875 119.117188 215.28125 119.0625 C 215.269531 119.035156 215.261719 119.011719 215.253906 118.988281 C 215.226562 118.898438 215.195312 118.8125 215.167969 118.722656 C 215.160156 118.695312 215.152344 118.664062 215.140625 118.636719 C 215.132812 118.609375 215.125 118.578125 215.117188 118.550781 C 215.109375 118.527344 215.101562 118.503906 215.09375 118.484375 C 215.074219 118.414062 215.058594 118.347656 215.039062 118.28125 C 215.03125 118.253906 215.023438 118.230469 215.015625 118.203125 C 215 118.148438 214.988281 118.09375 214.972656 118.039062 L 214.972656 118.027344 C 214.964844 117.996094 214.953125 117.964844 214.945312 117.933594 C 214.9375 117.902344 214.929688 117.871094 214.925781 117.839844 C 214.835938 117.46875 214.761719 117.09375 214.703125 116.714844 C 214.667969 116.476562 214.640625 116.238281 214.617188 115.996094 C 214.574219 115.566406 214.554688 115.132812 214.554688 114.691406 C 214.554688 114.671875 214.554688 114.652344 214.554688 114.632812 L 214.554688 114.628906 C 214.554688 114.59375 214.554688 114.558594 214.554688 114.523438 C 214.554688 114.496094 214.554688 114.46875 214.554688 114.4375 C 214.558594 114.378906 214.558594 114.316406 214.558594 114.253906 C 214.5625 114.222656 214.5625 114.191406 214.5625 114.15625 L 214.566406 114.082031 C 214.566406 114.070312 214.566406 114.054688 214.570312 114.042969 C 214.570312 114.019531 214.570312 113.996094 214.574219 113.972656 C 214.574219 113.941406 214.574219 113.910156 214.578125 113.878906 C 214.578125 113.84375 214.582031 113.804688 214.585938 113.769531 L 214.585938 113.765625 C 214.585938 113.730469 214.589844 113.691406 214.59375 113.65625 C 214.59375 113.621094 214.597656 113.585938 214.601562 113.550781 C 214.601562 113.527344 214.605469 113.503906 214.605469 113.480469 L 214.613281 113.417969 C 214.617188 113.386719 214.617188 113.359375 214.621094 113.328125 C 214.625 113.292969 214.628906 113.257812 214.632812 113.222656 C 214.632812 113.203125 214.636719 113.183594 214.640625 113.164062 C 214.640625 113.144531 214.644531 113.121094 214.648438 113.097656 C 214.652344 113.066406 214.65625 113.03125 214.660156 113 C 214.683594 112.796875 214.714844 112.597656 214.75 112.398438 C 214.800781 112.101562 214.859375 111.808594 214.929688 111.515625 C 215.011719 111.183594 215.105469 110.855469 215.207031 110.535156 C 215.226562 110.480469 215.242188 110.429688 215.261719 110.375 C 215.335938 110.160156 215.414062 109.945312 215.496094 109.734375 C 215.519531 109.675781 215.542969 109.621094 215.566406 109.5625 C 215.789062 109.023438 216.046875 108.496094 216.339844 107.988281 C 216.390625 107.898438 216.445312 107.808594 216.5 107.71875 C 216.539062 107.65625 216.578125 107.589844 216.617188 107.527344 C 216.636719 107.496094 216.652344 107.46875 216.671875 107.441406 C 216.691406 107.410156 216.710938 107.378906 216.730469 107.351562 C 216.730469 107.347656 216.734375 107.347656 216.734375 107.347656 C 216.75 107.320312 216.765625 107.296875 216.78125 107.273438 C 216.835938 107.191406 216.886719 107.113281 216.941406 107.039062 C 217.085938 106.828125 217.234375 106.625 217.390625 106.421875 C 217.578125 106.1875 217.769531 105.953125 217.96875 105.730469 C 218.039062 105.652344 218.105469 105.578125 218.175781 105.503906 C 218.355469 105.3125 218.535156 105.128906 218.726562 104.949219 C 218.820312 104.855469 218.917969 104.765625 219.019531 104.675781 C 219.207031 104.503906 219.398438 104.34375 219.59375 104.183594 C 219.789062 104.027344 219.988281 103.875 220.191406 103.730469 C 220.355469 103.609375 220.527344 103.496094 220.699219 103.382812 C 220.738281 103.355469 220.777344 103.332031 220.820312 103.304688 C 220.980469 103.203125 221.148438 103.101562 221.316406 103.003906 C 221.703125 102.78125 222.097656 102.578125 222.507812 102.390625 C 222.726562 102.292969 222.949219 102.199219 223.171875 102.113281 C 224.289062 101.679688 225.441406 101.402344 226.632812 101.277344 C 226.785156 101.800781 226.96875 102.3125 227.179688 102.8125 C 227.210938 102.882812 227.238281 102.953125 227.269531 103.023438 C 226.085938 103.097656 224.941406 103.347656 223.835938 103.777344 C 223.71875 103.820312 223.601562 103.867188 223.488281 103.917969 C 223.382812 103.960938 223.273438 104.007812 223.167969 104.058594 C 222.753906 104.246094 222.351562 104.460938 221.960938 104.699219 C 221.746094 104.832031 221.53125 104.96875 221.324219 105.117188 C 220.914062 105.40625 220.523438 105.71875 220.152344 106.0625 C 220.023438 106.179688 219.894531 106.300781 219.773438 106.421875 C 219.679688 106.515625 219.589844 106.605469 219.503906 106.699219 C 218.550781 107.714844 217.804688 108.859375 217.265625 110.140625 C 217.203125 110.285156 217.144531 110.433594 217.089844 110.582031 C 216.792969 111.363281 216.585938 112.167969 216.46875 112.992188 C 216.421875 113.292969 216.390625 113.59375 216.371094 113.898438 C 216.355469 114.164062 216.34375 114.425781 216.34375 114.691406 C 216.34375 114.929688 216.351562 115.167969 216.367188 115.402344 C 216.382812 115.65625 216.40625 115.910156 216.4375 116.160156 C 216.492188 116.613281 216.574219 117.0625 216.683594 117.507812 C 216.742188 117.742188 216.808594 117.972656 216.882812 118.203125 C 216.992188 118.558594 217.121094 118.902344 217.265625 119.246094 C 217.371094 119.5 217.488281 119.75 217.613281 119.996094 L 218.429688 119.996094 C 218.066406 119.335938 217.769531 118.644531 217.546875 117.921875 C 217.476562 117.691406 217.414062 117.453125 217.355469 117.214844 C 217.25 116.761719 217.171875 116.300781 217.121094 115.835938 C 217.097656 115.574219 217.078125 115.308594 217.070312 115.042969 C 217.066406 114.925781 217.0625 114.808594 217.0625 114.691406 C 217.0625 114.261719 217.089844 113.832031 217.140625 113.402344 C 217.183594 113.039062 217.242188 112.675781 217.324219 112.316406 C 217.695312 110.636719 218.425781 109.128906 219.507812 107.796875 C 219.738281 107.511719 219.980469 107.238281 220.238281 106.976562 C 220.628906 106.585938 221.042969 106.226562 221.484375 105.894531 C 221.695312 105.738281 221.910156 105.585938 222.132812 105.445312 C 222.527344 105.191406 222.9375 104.964844 223.359375 104.765625 C 223.582031 104.660156 223.804688 104.5625 224.03125 104.472656 C 225.179688 104.023438 226.371094 103.773438 227.605469 103.722656 C 227.925781 104.355469 228.289062 104.957031 228.703125 105.53125 C 228.484375 105.515625 228.261719 105.507812 228.042969 105.507812 C 226.800781 105.507812 225.609375 105.746094 224.464844 106.230469 C 224.417969 106.25 224.375 106.269531 224.328125 106.292969 C 224.089844 106.394531 223.855469 106.511719 223.628906 106.636719 C 223.164062 106.890625 222.71875 107.1875 222.304688 107.519531 C 222.039062 107.734375 221.785156 107.960938 221.546875 108.199219 C 221.542969 108.203125 221.542969 108.203125 221.539062 108.207031 C 220.679688 109.0625 220.019531 110.050781 219.554688 111.171875 C 219.089844 112.292969 218.859375 113.460938 218.855469 114.671875 C 218.855469 114.679688 218.855469 114.6875 218.855469 114.695312 C 218.855469 115.21875 218.902344 115.742188 218.988281 116.257812 C 219.035156 116.515625 219.089844 116.769531 219.15625 117.023438 C 219.4375 118.097656 219.898438 119.089844 220.539062 119.996094 L 221.445312 119.996094 C 220.625 118.980469 220.074219 117.839844 219.785156 116.570312 C 219.722656 116.304688 219.675781 116.035156 219.640625 115.757812 C 219.597656 115.40625 219.574219 115.050781 219.574219 114.691406 C 219.574219 114.449219 219.585938 114.210938 219.605469 113.972656 C 219.722656 112.628906 220.136719 111.382812 220.851562 110.234375 C 221.5625 109.085938 222.496094 108.160156 223.648438 107.457031 C 223.878906 107.316406 224.117188 107.1875 224.363281 107.066406 C 225.527344 106.503906 226.75 106.226562 228.042969 106.226562 C 228.464844 106.226562 228.886719 106.257812 229.308594 106.320312 C 229.449219 106.492188 229.597656 106.664062 229.75 106.832031 C 229.902344 107 230.0625 107.167969 230.226562 107.328125 C 230.234375 107.339844 230.246094 107.351562 230.257812 107.363281 C 230.691406 107.792969 231.15625 108.199219 231.640625 108.570312 C 231.839844 108.722656 232.046875 108.871094 232.253906 109.011719 C 232.773438 109.371094 233.316406 109.691406 233.882812 109.976562 C 234.117188 110.09375 234.351562 110.203125 234.589844 110.308594 C 234.640625 110.332031 234.691406 110.351562 234.742188 110.371094 C 234.988281 110.476562 235.238281 110.574219 235.488281 110.664062 C 235.886719 111.398438 236.167969 112.171875 236.335938 112.988281 C 236.503906 113.804688 236.550781 114.628906 236.472656 115.457031 C 236.398438 116.289062 236.203125 117.089844 235.890625 117.863281 C 235.578125 118.632812 235.160156 119.34375 234.640625 119.996094 L 235.542969 119.996094 C 235.992188 119.355469 236.355469 118.671875 236.632812 117.941406 C 236.910156 117.210938 237.089844 116.457031 237.171875 115.679688 C 237.257812 114.902344 237.242188 114.128906 237.128906 113.355469 C 237.015625 112.582031 236.808594 111.835938 236.503906 111.117188 C 236.484375 111.066406 236.460938 111.019531 236.4375 110.96875 L 236.449219 110.972656 C 236.714844 111.042969 236.980469 111.109375 237.246094 111.167969 C 237.664062 111.257812 238.082031 111.328125 238.507812 111.382812 C 238.960938 112.816406 239.113281 114.28125 238.964844 115.777344 C 238.816406 117.273438 238.378906 118.679688 237.652344 119.996094 L 238.46875 119.996094 C 238.59375 119.75 238.710938 119.5 238.816406 119.246094 C 239.335938 118.011719 239.636719 116.726562 239.714844 115.390625 C 239.796875 114.054688 239.652344 112.742188 239.285156 111.457031 C 239.609375 111.480469 239.941406 111.488281 240.269531 111.488281 L 240.269531 110.773438 C 239.855469 110.773438 239.449219 110.753906 239.042969 110.714844 C 238.773438 110.691406 238.503906 110.660156 238.234375 110.617188 C 238.078125 110.59375 237.925781 110.570312 237.769531 110.539062 C 237.503906 110.488281 237.242188 110.433594 236.980469 110.367188 C 236.644531 110.28125 236.308594 110.183594 235.980469 110.074219 C 235.933594 110.058594 235.886719 110.039062 235.835938 110.023438 C 235.835938 110.023438 235.832031 110.019531 235.828125 110.019531 C 235.789062 110.007812 235.753906 109.996094 235.71875 109.980469 C 235.699219 109.976562 235.679688 109.96875 235.664062 109.960938 C 235.628906 109.949219 235.59375 109.9375 235.558594 109.921875 C 235.535156 109.914062 235.515625 109.90625 235.496094 109.898438 C 235.472656 109.890625 235.445312 109.878906 235.421875 109.871094 C 235.398438 109.863281 235.371094 109.851562 235.347656 109.839844 C 235.277344 109.8125 235.207031 109.785156 235.140625 109.757812 C 235.113281 109.746094 235.089844 109.738281 235.0625 109.726562 C 235.023438 109.710938 234.984375 109.691406 234.945312 109.675781 C 234.902344 109.65625 234.859375 109.636719 234.816406 109.621094 C 234.6875 109.5625 234.5625 109.503906 234.4375 109.445312 C 233.878906 109.175781 233.339844 108.867188 232.824219 108.523438 C 232.617188 108.386719 232.414062 108.246094 232.21875 108.097656 C 231.734375 107.738281 231.277344 107.347656 230.84375 106.921875 C 230.734375 106.816406 230.628906 106.707031 230.523438 106.597656 C 230.492188 106.566406 230.460938 106.535156 230.429688 106.5 C 230.398438 106.464844 230.371094 106.4375 230.339844 106.402344 C 230.3125 106.371094 230.285156 106.34375 230.257812 106.3125 C 230.230469 106.28125 230.203125 106.253906 230.175781 106.222656 C 230.113281 106.148438 230.050781 106.078125 229.988281 106.003906 C 229.960938 105.972656 229.9375 105.945312 229.914062 105.914062 C 229.886719 105.882812 229.863281 105.851562 229.835938 105.820312 C 229.820312 105.800781 229.800781 105.78125 229.785156 105.757812 C 229.757812 105.726562 229.730469 105.691406 229.703125 105.65625 C 229.222656 105.050781 228.792969 104.40625 228.421875 103.722656 C 228.292969 103.484375 228.167969 103.242188 228.054688 102.996094 C 227.785156 102.421875 227.554688 101.828125 227.371094 101.222656 C 227.351562 101.15625 227.332031 101.09375 227.3125 101.03125 L 227.296875 100.980469 C 227.285156 100.929688 227.269531 100.878906 227.257812 100.828125 C 227.25 100.800781 227.242188 100.777344 227.234375 100.75 C 227.226562 100.726562 227.222656 100.703125 227.214844 100.683594 C 227.203125 100.625 227.1875 100.570312 227.175781 100.515625 C 227.125 100.316406 227.082031 100.117188 227.039062 99.914062 C 226.929688 99.363281 226.855469 98.808594 226.816406 98.246094 C 226.796875 97.949219 226.785156 97.648438 226.78125 97.347656 L 226.78125 97.285156 C 226.78125 96.800781 226.808594 96.316406 226.859375 95.835938 C 226.863281 95.800781 226.867188 95.765625 226.871094 95.730469 L 226.875 95.695312 C 226.878906 95.660156 226.882812 95.625 226.890625 95.589844 L 226.890625 95.574219 C 226.894531 95.535156 226.902344 95.496094 226.90625 95.460938 C 226.90625 95.441406 226.910156 95.425781 226.914062 95.410156 C 226.917969 95.363281 226.925781 95.320312 226.933594 95.273438 C 226.941406 95.222656 226.949219 95.175781 226.957031 95.125 C 226.960938 95.089844 226.96875 95.054688 226.972656 95.019531 C 226.984375 94.949219 226.996094 94.882812 227.007812 94.816406 C 227.078125 94.4375 227.164062 94.066406 227.265625 93.703125 C 227.296875 93.585938 227.332031 93.472656 227.367188 93.355469 C 227.382812 93.300781 227.402344 93.246094 227.417969 93.1875 C 227.4375 93.125 227.457031 93.0625 227.480469 93 C 227.519531 92.886719 227.558594 92.773438 227.597656 92.660156 C 227.644531 92.542969 227.6875 92.425781 227.734375 92.308594 C 227.816406 92.101562 227.902344 91.894531 227.996094 91.691406 C 228.105469 91.453125 228.222656 91.214844 228.347656 90.984375 C 228.351562 90.972656 228.355469 90.964844 228.363281 90.957031 C 228.480469 90.730469 228.609375 90.507812 228.742188 90.292969 C 228.890625 90.046875 229.046875 89.808594 229.207031 89.574219 C 229.417969 89.277344 229.636719 88.988281 229.871094 88.707031 C 229.878906 88.691406 229.890625 88.679688 229.902344 88.667969 C 230.0625 88.472656 230.226562 88.285156 230.398438 88.101562 C 231.105469 87.34375 231.882812 86.679688 232.738281 86.097656 C 233.027344 85.90625 233.320312 85.722656 233.625 85.550781 C 233.65625 85.535156 233.683594 85.515625 233.714844 85.5 C 233.957031 85.363281 234.203125 85.238281 234.453125 85.117188 C 234.699219 85 234.949219 84.886719 235.203125 84.785156 C 235.445312 84.6875 235.691406 84.59375 235.941406 84.507812 C 235.964844 84.5 235.984375 84.496094 236.003906 84.488281 C 236.285156 84.394531 236.570312 84.308594 236.859375 84.234375 C 237.003906 84.195312 237.148438 84.160156 237.296875 84.128906 C 237.53125 84.074219 237.773438 84.027344 238.011719 83.984375 C 238.167969 83.960938 238.324219 83.9375 238.480469 83.914062 C 238.769531 83.875 239.058594 83.847656 239.351562 83.828125 C 239.359375 83.828125 239.367188 83.828125 239.375 83.828125 C 239.605469 83.8125 239.835938 83.800781 240.070312 83.796875 C 240.136719 83.796875 240.203125 83.796875 240.269531 83.796875 L 240.269531 83.078125 C 240.191406 83.078125 240.109375 83.078125 240.03125 83.082031 C 239.792969 83.085938 239.550781 83.09375 239.3125 83.109375 C 239.125 83.121094 238.933594 83.140625 238.746094 83.160156 C 238.273438 82.703125 237.761719 82.300781 237.207031 81.949219 C 236.65625 81.597656 236.070312 81.304688 235.457031 81.074219 C 234.84375 80.839844 234.214844 80.671875 233.566406 80.566406 C 232.921875 80.464844 232.269531 80.425781 231.613281 80.453125 C 230.960938 80.484375 230.3125 80.578125 229.679688 80.734375 C 229.042969 80.894531 228.429688 81.117188 227.839844 81.402344 C 227.246094 81.6875 226.691406 82.027344 226.171875 82.425781 C 225.648438 82.824219 225.171875 83.269531 224.742188 83.761719 C 224.3125 84.257812 223.9375 84.789062 223.613281 85.359375 C 223.292969 85.933594 223.03125 86.53125 222.828125 87.152344 C 222.628906 87.777344 222.492188 88.417969 222.421875 89.066406 C 222.351562 89.71875 222.347656 90.371094 222.410156 91.023438 C 222.472656 91.675781 222.601562 92.316406 222.792969 92.945312 C 222.984375 93.570312 223.238281 94.171875 223.550781 94.746094 C 223.867188 95.320312 224.234375 95.859375 224.660156 96.359375 C 225.085938 96.859375 225.554688 97.3125 226.070312 97.714844 C 226.085938 98.300781 226.140625 98.878906 226.226562 99.457031 C 223.101562 97.511719 221.019531 94.046875 221.019531 90.101562 C 221.019531 84.035156 225.957031 79.097656 232.023438 79.097656 C 235.304688 79.097656 238.253906 80.535156 240.269531 82.820312 L 240.269531 81.765625 C 239.726562 81.226562 239.132812 80.746094 238.492188 80.320312 C 237.851562 79.898438 237.179688 79.539062 236.46875 79.25 C 235.757812 78.957031 235.027344 78.738281 234.273438 78.59375 C 233.519531 78.445312 232.761719 78.371094 231.992188 78.375 C 231.226562 78.375 230.464844 78.453125 229.714844 78.605469 C 228.960938 78.757812 228.230469 78.980469 227.523438 79.273438 C 226.8125 79.570312 226.140625 79.929688 225.503906 80.355469 C 224.867188 80.785156 224.277344 81.269531 223.734375 81.8125 Z M 216.574219 106.304688 C 216.449219 106.476562 216.324219 106.652344 216.207031 106.832031 C 216.105469 106.734375 216 106.640625 215.894531 106.546875 C 215.84375 106.5 215.792969 106.457031 215.742188 106.410156 C 215.402344 106.117188 215.050781 105.84375 214.683594 105.585938 C 214.488281 105.445312 214.285156 105.308594 214.082031 105.179688 C 213.867188 105.042969 213.652344 104.914062 213.429688 104.792969 C 213.160156 104.640625 212.886719 104.496094 212.605469 104.363281 C 212.410156 104.269531 212.210938 104.179688 212.011719 104.097656 C 211.296875 103.792969 210.558594 103.550781 209.804688 103.371094 C 210.648438 102.753906 211.59375 102.445312 212.640625 102.445312 C 214.703125 102.445312 216.464844 103.742188 217.15625 105.566406 C 216.953125 105.804688 216.761719 106.050781 216.574219 106.304688 Z M 218.460938 104.203125 C 218.304688 104.347656 218.148438 104.496094 217.996094 104.648438 C 217.957031 104.683594 217.921875 104.722656 217.886719 104.757812 C 217.820312 104.828125 217.753906 104.898438 217.6875 104.96875 C 217.503906 104.570312 217.277344 104.199219 217.007812 103.855469 C 216.738281 103.511719 216.433594 103.203125 216.089844 102.929688 C 215.75 102.660156 215.378906 102.429688 214.984375 102.246094 C 214.585938 102.0625 214.175781 101.925781 213.746094 101.839844 C 213.316406 101.753906 212.882812 101.714844 212.449219 101.730469 C 212.011719 101.746094 211.582031 101.8125 211.160156 101.929688 C 210.738281 102.046875 210.335938 102.210938 209.953125 102.421875 C 209.574219 102.636719 209.21875 102.886719 208.898438 103.183594 C 208.351562 103.089844 207.800781 103.027344 207.246094 103 C 208.507812 101.40625 210.457031 100.386719 212.640625 100.386719 C 215.253906 100.386719 217.53125 101.847656 218.695312 103.992188 C 218.617188 104.0625 218.539062 104.132812 218.464844 104.203125 Z M 220.007812 102.972656 C 219.753906 103.148438 219.503906 103.332031 219.261719 103.523438 C 218.921875 102.925781 218.507812 102.382812 218.019531 101.894531 C 216.582031 100.457031 214.671875 99.667969 212.640625 99.667969 C 210.609375 99.667969 208.703125 100.457031 207.265625 101.894531 C 206.929688 102.226562 206.628906 102.589844 206.363281 102.980469 C 206.167969 102.980469 205.976562 102.988281 205.78125 102.996094 C 205.539062 103.007812 205.300781 103.027344 205.058594 103.050781 C 204.953125 103.058594 204.84375 103.070312 204.738281 103.085938 C 206.242188 100.253906 209.21875 98.324219 212.640625 98.324219 C 215.925781 98.324219 218.800781 100.101562 220.355469 102.742188 C 220.238281 102.816406 220.125 102.894531 220.011719 102.972656 Z M 220.972656 102.367188 C 220.523438 101.609375 219.980469 100.921875 219.347656 100.308594 C 218.710938 99.699219 218.003906 99.183594 217.226562 98.765625 C 216.453125 98.347656 215.632812 98.039062 214.773438 97.847656 C 213.914062 97.652344 213.042969 97.578125 212.160156 97.621094 C 211.28125 97.664062 210.421875 97.824219 209.585938 98.105469 C 208.746094 98.382812 207.964844 98.769531 207.230469 99.261719 C 206.5 99.757812 205.851562 100.339844 205.277344 101.011719 C 204.707031 101.683594 204.234375 102.417969 203.863281 103.21875 C 203.820312 103.226562 203.773438 103.238281 203.730469 103.246094 C 203.496094 103.292969 203.261719 103.34375 203.027344 103.402344 C 202.769531 103.464844 202.511719 103.539062 202.257812 103.617188 C 203.765625 99.339844 207.851562 96.265625 212.640625 96.265625 C 216.703125 96.265625 220.257812 98.472656 222.164062 101.753906 C 221.757812 101.941406 221.359375 102.144531 220.972656 102.367188 Z M 230.226562 87.238281 C 230.007812 87.453125 229.800781 87.675781 229.601562 87.902344 C 229.417969 88.109375 229.246094 88.316406 229.078125 88.53125 C 228.980469 88.652344 228.886719 88.777344 228.796875 88.902344 C 228.621094 89.140625 228.453125 89.386719 228.292969 89.640625 C 228.179688 89.816406 228.070312 89.992188 227.96875 90.171875 C 227.835938 90.398438 227.714844 90.625 227.597656 90.855469 C 227.582031 90.882812 227.570312 90.910156 227.554688 90.9375 C 227.488281 91.070312 227.425781 91.207031 227.359375 91.34375 C 227.253906 90.9375 227.199219 90.523438 227.199219 90.101562 C 227.199219 87.441406 229.363281 85.277344 232.023438 85.277344 C 232.222656 85.277344 232.417969 85.289062 232.613281 85.3125 C 231.75 85.867188 230.953125 86.511719 230.226562 87.238281 Z M 234.742188 84.195312 C 234.445312 84.320312 234.15625 84.453125 233.871094 84.597656 C 233.761719 84.652344 233.652344 84.710938 233.542969 84.769531 C 233.046875 84.628906 232.539062 84.558594 232.023438 84.558594 C 231.796875 84.558594 231.566406 84.574219 231.339844 84.601562 C 231.109375 84.628906 230.886719 84.671875 230.664062 84.730469 C 230.441406 84.785156 230.222656 84.855469 230.007812 84.941406 C 229.796875 85.023438 229.585938 85.121094 229.386719 85.230469 C 229.183594 85.339844 228.988281 85.460938 228.804688 85.59375 C 228.617188 85.726562 228.4375 85.871094 228.269531 86.027344 C 228.101562 86.183594 227.941406 86.347656 227.792969 86.523438 C 227.644531 86.699219 227.507812 86.882812 227.382812 87.074219 C 227.257812 87.269531 227.144531 87.46875 227.042969 87.671875 C 226.945312 87.878906 226.855469 88.089844 226.78125 88.308594 C 226.707031 88.527344 226.644531 88.746094 226.597656 88.972656 C 226.550781 89.195312 226.519531 89.421875 226.5 89.652344 C 226.480469 89.878906 226.476562 90.109375 226.488281 90.339844 C 226.496094 90.566406 226.519531 90.796875 226.558594 91.023438 C 226.59375 91.25 226.648438 91.472656 226.710938 91.691406 C 226.777344 91.910156 226.855469 92.125 226.949219 92.335938 C 226.914062 92.425781 226.882812 92.515625 226.851562 92.605469 C 226.816406 92.703125 226.785156 92.800781 226.753906 92.898438 C 226.707031 93.039062 226.664062 93.179688 226.625 93.320312 C 226.597656 93.410156 226.570312 93.503906 226.546875 93.59375 C 226.503906 93.761719 226.460938 93.929688 226.421875 94.097656 C 225.566406 92.90625 225.136719 91.570312 225.140625 90.101562 C 225.140625 86.304688 228.226562 83.214844 232.023438 83.214844 C 233.152344 83.214844 234.21875 83.476562 235.21875 84.003906 C 235.058594 84.0625 234.898438 84.128906 234.742188 84.195312 Z M 223.078125 90.101562 C 223.078125 85.167969 227.089844 81.15625 232.023438 81.15625 C 233.085938 81.15625 234.113281 81.335938 235.109375 81.703125 C 236.105469 82.070312 237.007812 82.597656 237.816406 83.289062 C 237.632812 83.320312 237.449219 83.355469 237.269531 83.394531 C 236.882812 83.476562 236.5 83.578125 236.121094 83.691406 C 234.910156 82.914062 233.5 82.5 232.023438 82.5 C 229.996094 82.5 228.085938 83.289062 226.648438 84.726562 C 225.210938 86.160156 224.421875 88.070312 224.421875 90.101562 C 224.421875 91.929688 225.0625 93.664062 226.242188 95.039062 C 226.234375 95.066406 226.230469 95.09375 226.226562 95.121094 C 226.203125 95.285156 226.179688 95.453125 226.160156 95.617188 C 226.152344 95.695312 226.144531 95.769531 226.136719 95.847656 C 226.105469 96.15625 226.085938 96.464844 226.074219 96.773438 C 224.238281 95.136719 223.078125 92.75 223.078125 90.101562 Z M 223.078125 90.101562 " fill-opacity="1" fill-rule="nonzero"/></g><g clip-path="url(#5b58426623)"><path fill="#d16aff" d="M 213.070312 118.269531 C 213.128906 117.910156 213.15625 117.550781 213.15625 117.1875 C 213.15625 117.097656 213.15625 117.011719 213.152344 116.921875 C 213.140625 116.683594 213.121094 116.441406 213.085938 116.207031 C 212.980469 115.484375 212.761719 114.800781 212.429688 114.152344 C 212.15625 113.613281 211.8125 113.121094 211.402344 112.675781 C 211.335938 112.605469 211.269531 112.535156 211.203125 112.464844 C 210.394531 111.65625 209.441406 111.09375 208.34375 110.773438 C 207.765625 110.605469 207.171875 110.519531 206.566406 110.511719 C 206.539062 110.511719 206.511719 110.511719 206.480469 110.511719 C 206.246094 110.511719 206.011719 110.523438 205.777344 110.546875 C 205.320312 110.59375 204.871094 110.6875 204.433594 110.828125 C 204.203125 110.902344 203.980469 110.988281 203.761719 111.085938 C 203.347656 111.269531 202.957031 111.496094 202.59375 111.757812 C 202.390625 111.90625 202.199219 112.058594 202.011719 112.226562 C 201.929688 112.304688 201.84375 112.382812 201.761719 112.464844 C 200.5 113.726562 199.804688 115.402344 199.804688 117.1875 C 199.804688 118.167969 200.011719 119.105469 200.421875 119.996094 L 201.230469 119.996094 C 200.757812 119.117188 200.523438 118.179688 200.523438 117.1875 C 200.523438 115.503906 201.226562 113.980469 202.351562 112.898438 C 202.859375 112.410156 203.429688 112.023438 204.070312 111.738281 C 204.292969 111.640625 204.519531 111.554688 204.753906 111.484375 C 205.210938 111.347656 205.675781 111.265625 206.152344 111.238281 C 206.261719 111.230469 206.371094 111.230469 206.480469 111.230469 C 206.664062 111.230469 206.847656 111.238281 207.027344 111.253906 C 208.941406 111.429688 210.597656 112.515625 211.554688 114.070312 C 212.097656 114.949219 212.390625 115.902344 212.433594 116.933594 C 212.4375 117.015625 212.4375 117.101562 212.4375 117.1875 C 212.4375 117.550781 212.40625 117.914062 212.339844 118.273438 C 212.292969 118.515625 212.234375 118.75 212.160156 118.984375 C 212.050781 119.335938 211.90625 119.671875 211.734375 119.992188 L 212.542969 119.992188 C 212.796875 119.441406 212.972656 118.867188 213.070312 118.269531 Z M 213.070312 118.269531 " fill-opacity="1" fill-rule="nonzero"/></g><path fill="#d16aff" d="M 8.265625 30.984375 C 9.003906 30.246094 9.632812 29.421875 10.152344 28.515625 C 10.667969 27.609375 11.058594 26.648438 11.320312 25.636719 C 11.582031 24.625 11.707031 23.597656 11.691406 22.554688 C 11.675781 21.507812 11.527344 20.484375 11.238281 19.480469 C 11.167969 19.230469 11.085938 18.984375 11 18.738281 C 10.929688 18.546875 10.855469 18.355469 10.773438 18.164062 C 10.578125 17.699219 10.351562 17.246094 10.09375 16.808594 C 9.992188 16.636719 9.890625 16.46875 9.78125 16.304688 C 9.734375 16.234375 9.6875 16.164062 9.640625 16.09375 C 9.609375 16.046875 9.574219 16 9.539062 15.953125 C 8.253906 14.144531 6.589844 12.808594 4.550781 11.941406 C 4.085938 11.742188 3.613281 11.578125 3.128906 11.445312 C 2.921875 11.386719 2.714844 11.335938 2.503906 11.289062 C 2.378906 11.261719 2.253906 11.238281 2.128906 11.214844 C 1.425781 11.085938 0.722656 11.019531 0.0078125 11.019531 L -0.00390625 11.019531 L -0.00390625 11.738281 C 0.125 11.738281 0.25 11.742188 0.375 11.746094 C 1.15625 11.769531 1.925781 11.878906 2.683594 12.070312 C 2.734375 12.085938 2.785156 12.097656 2.835938 12.113281 C 3.199219 12.207031 3.554688 12.324219 3.902344 12.457031 C 5.636719 13.121094 7.109375 14.15625 8.320312 15.566406 C 8.523438 15.800781 8.714844 16.046875 8.898438 16.296875 C 8.964844 16.390625 9.03125 16.484375 9.09375 16.578125 C 9.53125 17.226562 9.898438 17.914062 10.191406 18.640625 C 10.289062 18.890625 10.382812 19.144531 10.464844 19.40625 C 10.804688 20.484375 10.976562 21.585938 10.972656 22.71875 C 10.972656 28.769531 6.050781 33.695312 -0.00390625 33.695312 L -0.00390625 34.414062 C 1.546875 34.414062 3.039062 34.117188 4.472656 33.523438 C 5.90625 32.929688 7.171875 32.085938 8.265625 30.988281 Z M 8.265625 30.984375 " fill-opacity="1" fill-rule="nonzero"/><path fill="#d16aff" d="M 6.492188 29.210938 C 7.136719 28.566406 7.675781 27.839844 8.105469 27.03125 C 8.535156 26.226562 8.835938 25.371094 9.011719 24.476562 C 9.1875 23.578125 9.226562 22.675781 9.132812 21.765625 C 9.039062 20.859375 8.816406 19.984375 8.460938 19.140625 C 8.4375 19.089844 8.417969 19.039062 8.394531 18.992188 C 8.058594 18.230469 7.625 17.527344 7.097656 16.882812 C 6.566406 16.238281 5.960938 15.675781 5.28125 15.199219 C 4.597656 14.71875 3.867188 14.339844 3.082031 14.0625 C 2.296875 13.78125 1.488281 13.613281 0.65625 13.554688 C 0.4375 13.539062 0.21875 13.53125 -0.00390625 13.53125 L -0.00390625 14.25 C 0.421875 14.25 0.84375 14.28125 1.261719 14.34375 C 1.675781 14.40625 2.078125 14.496094 2.476562 14.621094 C 3.34375 14.886719 4.148438 15.28125 4.886719 15.804688 C 5.625 16.328125 6.265625 16.953125 6.804688 17.683594 C 7.34375 18.410156 7.753906 19.207031 8.039062 20.066406 C 8.320312 20.925781 8.464844 21.808594 8.464844 22.714844 C 8.464844 27.386719 4.664062 31.183594 -0.00390625 31.183594 L -0.00390625 31.902344 C 1.214844 31.902344 2.386719 31.671875 3.511719 31.203125 C 4.636719 30.738281 5.632812 30.074219 6.492188 29.210938 Z M 6.492188 29.210938 " fill-opacity="1" fill-rule="nonzero"/><path fill="#d16aff" d="M 6.671875 22.714844 C 6.671875 20.933594 5.976562 19.257812 4.714844 17.996094 C 3.457031 16.734375 1.78125 16.042969 -0.00390625 16.042969 L -0.00390625 16.757812 C 3.28125 16.757812 5.953125 19.429688 5.953125 22.714844 C 5.953125 26.003906 3.28125 28.671875 -0.00390625 28.671875 L -0.00390625 29.390625 C 1.78125 29.390625 3.457031 28.695312 4.714844 27.4375 C 5.976562 26.175781 6.671875 24.5 6.671875 22.714844 Z M 6.671875 22.714844 " fill-opacity="1" fill-rule="nonzero"/><g clip-path="url(#ac346f37d2)"><path fill="#d16aff" d="M 5.550781 5.308594 C 5.550781 7.089844 6.246094 8.765625 7.503906 10.027344 C 8.765625 11.285156 10.441406 11.980469 12.226562 11.980469 C 13.617188 11.980469 14.945312 11.558594 16.0625 10.769531 C 16.378906 10.546875 16.671875 10.300781 16.945312 10.027344 L 16.957031 10.015625 C 18.027344 8.941406 18.683594 7.566406 18.855469 6.085938 C 18.886719 5.824219 18.898438 5.566406 18.902344 5.304688 C 18.902344 5.171875 18.894531 5.042969 18.886719 4.910156 C 18.792969 3.277344 18.113281 1.753906 16.945312 0.585938 C 16.738281 0.378906 16.515625 0.183594 16.28125 0.00390625 L 14.941406 0.00390625 C 16.863281 0.996094 18.183594 3 18.183594 5.308594 C 18.183594 5.472656 18.175781 5.640625 18.160156 5.804688 C 18.128906 6.171875 18.066406 6.535156 17.964844 6.894531 C 17.867188 7.25 17.738281 7.59375 17.574219 7.925781 C 17.410156 8.257812 17.21875 8.574219 16.996094 8.867188 C 16.773438 9.164062 16.527344 9.4375 16.253906 9.6875 C 15.984375 9.941406 15.691406 10.164062 15.375 10.359375 C 15.0625 10.554688 14.734375 10.71875 14.386719 10.855469 C 14.042969 10.988281 13.691406 11.089844 13.324219 11.160156 C 12.960938 11.230469 12.59375 11.261719 12.226562 11.261719 C 8.941406 11.261719 6.269531 8.59375 6.269531 5.308594 C 6.269531 3 7.585938 0.996094 9.507812 0.00390625 L 8.167969 0.00390625 C 7.933594 0.183594 7.714844 0.378906 7.503906 0.585938 C 6.246094 1.847656 5.550781 3.523438 5.550781 5.308594 Z M 5.550781 5.308594 " fill-opacity="1" fill-rule="nonzero"/></g><g clip-path="url(#2f34caf22b)"><path fill="#d16aff" d="M 16.53125 38.1875 C 16.851562 37.867188 17.15625 37.527344 17.4375 37.171875 C 17.71875 36.816406 17.976562 36.445312 18.214844 36.058594 C 18.453125 35.671875 18.667969 35.273438 18.859375 34.863281 C 19.054688 34.453125 19.222656 34.03125 19.363281 33.597656 C 19.507812 33.167969 19.625 32.730469 19.71875 32.285156 C 19.808594 31.84375 19.875 31.394531 19.917969 30.941406 C 19.957031 30.488281 19.972656 30.035156 19.957031 29.582031 C 19.945312 29.128906 19.910156 28.679688 19.84375 28.230469 C 19.777344 27.78125 19.6875 27.335938 19.574219 26.898438 C 19.457031 26.457031 19.316406 26.027344 19.148438 25.605469 C 18.984375 25.183594 18.792969 24.769531 18.578125 24.371094 C 18.367188 23.96875 18.128906 23.582031 17.871094 23.210938 C 17.613281 22.835938 17.332031 22.480469 17.03125 22.140625 C 16.730469 21.800781 16.414062 21.476562 16.074219 21.175781 C 15.738281 20.871094 15.382812 20.585938 15.015625 20.324219 C 14.644531 20.0625 14.257812 19.824219 13.859375 19.605469 C 13.847656 19.542969 13.832031 19.484375 13.820312 19.425781 C 15.0625 19.289062 16.265625 18.988281 17.429688 18.527344 C 18 19.527344 18.699219 20.421875 19.53125 21.214844 C 20.363281 22.007812 21.289062 22.664062 22.3125 23.183594 C 23.339844 23.703125 24.414062 24.066406 25.546875 24.269531 C 26.675781 24.472656 27.8125 24.511719 28.953125 24.378906 C 30.09375 24.25 31.191406 23.957031 32.25 23.503906 C 33.304688 23.054688 34.273438 22.457031 35.152344 21.71875 C 36.035156 20.984375 36.789062 20.136719 37.421875 19.175781 C 38.054688 18.214844 38.535156 17.1875 38.863281 16.085938 C 38.976562 16.042969 39.09375 15.996094 39.207031 15.949219 C 39.246094 15.933594 39.28125 15.917969 39.316406 15.902344 C 39.703125 15.738281 40.082031 15.558594 40.449219 15.363281 C 40.667969 15.246094 40.886719 15.125 41.097656 14.996094 C 42.148438 14.367188 43.105469 13.613281 43.960938 12.734375 C 44.816406 11.855469 45.546875 10.882812 46.152344 9.816406 C 46.753906 8.746094 47.214844 7.621094 47.527344 6.433594 C 47.835938 5.246094 47.992188 4.039062 47.992188 2.8125 C 47.992188 1.867188 47.902344 0.933594 47.714844 0.00390625 L 46.980469 0.00390625 C 47.175781 0.929688 47.273438 1.867188 47.273438 2.8125 C 47.273438 7.652344 44.714844 11.902344 40.878906 14.28125 C 40.671875 14.410156 40.460938 14.535156 40.246094 14.652344 C 39.871094 14.859375 39.484375 15.046875 39.085938 15.21875 C 39.066406 15.226562 39.046875 15.234375 39.023438 15.242188 C 38.804688 15.335938 38.578125 15.425781 38.351562 15.507812 C 38.324219 15.515625 38.296875 15.527344 38.269531 15.535156 C 37.878906 15.675781 37.480469 15.796875 37.070312 15.898438 C 36.957031 15.925781 36.84375 15.953125 36.730469 15.976562 C 36.609375 16.003906 36.488281 16.03125 36.367188 16.054688 C 36.210938 16.085938 36.054688 16.113281 35.898438 16.136719 C 35.609375 16.183594 35.316406 16.21875 35.019531 16.246094 C 34.796875 16.265625 34.574219 16.28125 34.347656 16.289062 C 34.320312 16.289062 34.296875 16.292969 34.269531 16.292969 C 34.109375 16.296875 33.949219 16.300781 33.785156 16.300781 C 33.695312 16.300781 33.601562 16.300781 33.511719 16.296875 C 32.992188 16.289062 32.476562 16.25 31.964844 16.179688 C 31.683594 16.140625 31.40625 16.09375 31.132812 16.039062 C 29.84375 15.78125 28.621094 15.34375 27.464844 14.726562 C 27.214844 14.59375 26.96875 14.453125 26.726562 14.304688 C 26.675781 14.269531 26.621094 14.238281 26.566406 14.203125 C 26.410156 14.101562 26.253906 14 26.101562 13.890625 C 25.726562 13.632812 25.371094 13.355469 25.023438 13.0625 C 24.84375 12.90625 24.664062 12.742188 24.488281 12.578125 C 24.476562 12.566406 24.464844 12.554688 24.453125 12.542969 C 24.71875 12.09375 24.960938 11.628906 25.175781 11.152344 C 25.21875 11.058594 25.261719 10.960938 25.300781 10.867188 C 25.371094 10.941406 25.445312 11.011719 25.515625 11.085938 C 26.589844 12.164062 27.832031 13 29.234375 13.589844 C 30.171875 13.988281 31.144531 14.257812 32.152344 14.398438 C 32.398438 14.429688 32.640625 14.457031 32.890625 14.476562 C 33.1875 14.5 33.484375 14.507812 33.785156 14.507812 C 33.953125 14.507812 34.117188 14.507812 34.28125 14.5 C 34.535156 14.488281 34.785156 14.46875 35.035156 14.445312 C 35.511719 14.394531 35.984375 14.3125 36.449219 14.207031 C 36.703125 14.144531 36.957031 14.078125 37.207031 14 C 37.589844 13.882812 37.96875 13.746094 38.339844 13.589844 C 38.429688 13.550781 38.519531 13.511719 38.605469 13.472656 C 38.859375 13.359375 39.101562 13.238281 39.34375 13.109375 C 40.273438 12.605469 41.117188 11.992188 41.878906 11.261719 C 42.640625 10.53125 43.292969 9.714844 43.832031 8.808594 C 44.375 7.902344 44.785156 6.941406 45.0625 5.921875 C 45.34375 4.90625 45.480469 3.867188 45.480469 2.8125 C 45.484375 1.863281 45.371094 0.929688 45.144531 0.00390625 L 44.398438 0.00390625 C 44.644531 0.925781 44.765625 1.863281 44.761719 2.8125 C 44.761719 6.839844 42.582031 10.371094 39.339844 12.277344 C 39.109375 12.414062 38.875 12.542969 38.632812 12.664062 C 38.191406 12.878906 37.742188 13.066406 37.277344 13.222656 C 37.035156 13.304688 36.792969 13.378906 36.542969 13.441406 C 36.089844 13.558594 35.632812 13.648438 35.167969 13.707031 C 34.925781 13.738281 34.679688 13.757812 34.433594 13.773438 C 34.21875 13.785156 34.003906 13.792969 33.785156 13.792969 C 33.546875 13.792969 33.308594 13.785156 33.070312 13.769531 C 32.828125 13.753906 32.589844 13.730469 32.351562 13.699219 C 29.679688 13.347656 27.308594 12.035156 25.597656 10.117188 C 25.828125 9.46875 26.015625 8.808594 26.152344 8.136719 C 26.191406 8.121094 26.230469 8.109375 26.269531 8.097656 C 26.574219 8.53125 26.914062 8.933594 27.289062 9.308594 C 28.136719 10.15625 29.109375 10.8125 30.210938 11.277344 C 30.90625 11.574219 31.628906 11.777344 32.378906 11.890625 C 32.621094 11.929688 32.867188 11.957031 33.117188 11.976562 C 33.339844 11.992188 33.5625 12 33.785156 12 C 34.015625 12 34.242188 11.992188 34.46875 11.976562 C 34.710938 11.957031 34.949219 11.929688 35.183594 11.894531 C 35.628906 11.828125 36.066406 11.726562 36.5 11.59375 C 36.734375 11.519531 36.964844 11.4375 37.191406 11.347656 C 37.25 11.324219 37.304688 11.300781 37.359375 11.277344 C 37.734375 11.121094 38.097656 10.9375 38.449219 10.730469 C 38.671875 10.597656 38.890625 10.457031 39.101562 10.308594 C 40.519531 9.300781 41.570312 7.992188 42.25 6.390625 C 42.730469 5.246094 42.972656 4.054688 42.96875 2.8125 C 42.972656 1.855469 42.828125 0.917969 42.535156 0.00390625 L 41.773438 0.00390625 C 42.09375 0.914062 42.253906 1.851562 42.253906 2.8125 C 42.253906 5.558594 40.941406 8 38.914062 9.546875 C 38.710938 9.703125 38.5 9.847656 38.285156 9.984375 C 37.894531 10.230469 37.484375 10.445312 37.058594 10.621094 C 36.835938 10.714844 36.609375 10.800781 36.378906 10.875 C 35.949219 11.011719 35.515625 11.117188 35.074219 11.183594 C 34.835938 11.21875 34.597656 11.246094 34.351562 11.261719 C 34.164062 11.273438 33.976562 11.28125 33.785156 11.28125 C 33.507812 11.28125 33.234375 11.269531 32.964844 11.242188 C 32.699219 11.214844 32.4375 11.179688 32.175781 11.128906 C 30.097656 10.726562 28.285156 9.5625 27.050781 7.9375 C 26.886719 7.726562 26.734375 7.507812 26.59375 7.28125 C 26.507812 7.140625 26.425781 7 26.347656 6.859375 C 26.378906 6.558594 26.402344 6.253906 26.417969 5.949219 C 26.425781 5.738281 26.429688 5.523438 26.429688 5.308594 C 26.429688 5.277344 26.429688 5.246094 26.429688 5.21875 C 26.429688 4.765625 26.40625 4.316406 26.359375 3.871094 C 26.335938 3.632812 26.304688 3.394531 26.269531 3.160156 C 26.203125 2.714844 26.117188 2.277344 26.007812 1.839844 C 25.949219 1.605469 25.882812 1.375 25.8125 1.144531 C 25.753906 0.949219 25.6875 0.757812 25.621094 0.566406 C 25.554688 0.378906 25.484375 0.191406 25.410156 0.0078125 L 24.628906 0.0078125 C 24.710938 0.203125 24.792969 0.402344 24.867188 0.605469 C 24.890625 0.660156 24.910156 0.714844 24.929688 0.769531 C 24.949219 0.828125 24.96875 0.882812 24.988281 0.9375 C 24.996094 0.964844 25.003906 0.988281 25.011719 1.011719 C 25.042969 1.101562 25.070312 1.1875 25.097656 1.277344 C 25.109375 1.304688 25.117188 1.335938 25.125 1.363281 C 25.132812 1.390625 25.144531 1.421875 25.152344 1.449219 C 25.160156 1.472656 25.164062 1.496094 25.171875 1.515625 C 25.191406 1.585938 25.210938 1.652344 25.230469 1.71875 C 25.238281 1.746094 25.242188 1.769531 25.25 1.796875 C 25.265625 1.851562 25.28125 1.90625 25.292969 1.960938 L 25.296875 1.972656 C 25.304688 2.003906 25.3125 2.035156 25.320312 2.066406 C 25.328125 2.097656 25.335938 2.128906 25.34375 2.160156 C 25.433594 2.53125 25.503906 2.90625 25.5625 3.285156 C 25.597656 3.523438 25.628906 3.761719 25.652344 4.003906 C 25.691406 4.433594 25.714844 4.867188 25.714844 5.308594 C 25.714844 5.328125 25.714844 5.347656 25.714844 5.367188 L 25.714844 5.371094 C 25.714844 5.40625 25.714844 5.441406 25.710938 5.476562 C 25.710938 5.503906 25.710938 5.53125 25.710938 5.5625 C 25.710938 5.621094 25.707031 5.683594 25.707031 5.746094 C 25.707031 5.777344 25.703125 5.808594 25.703125 5.84375 L 25.699219 5.917969 C 25.699219 5.929688 25.699219 5.945312 25.699219 5.957031 C 25.699219 5.980469 25.695312 6.003906 25.695312 6.027344 C 25.695312 6.058594 25.691406 6.089844 25.691406 6.121094 C 25.6875 6.15625 25.683594 6.195312 25.683594 6.230469 L 25.683594 6.234375 C 25.679688 6.269531 25.679688 6.308594 25.675781 6.34375 C 25.671875 6.378906 25.667969 6.414062 25.667969 6.449219 C 25.664062 6.472656 25.664062 6.496094 25.660156 6.519531 L 25.65625 6.582031 C 25.652344 6.613281 25.648438 6.640625 25.644531 6.671875 C 25.640625 6.707031 25.640625 6.742188 25.636719 6.777344 C 25.632812 6.796875 25.628906 6.816406 25.628906 6.835938 C 25.625 6.855469 25.625 6.878906 25.621094 6.902344 C 25.617188 6.933594 25.613281 6.96875 25.609375 7 C 25.582031 7.203125 25.554688 7.402344 25.519531 7.601562 C 25.46875 7.898438 25.40625 8.191406 25.335938 8.484375 C 25.257812 8.816406 25.164062 9.144531 25.058594 9.464844 C 25.042969 9.519531 25.023438 9.570312 25.007812 9.625 C 24.933594 9.839844 24.855469 10.054688 24.769531 10.265625 C 24.746094 10.324219 24.726562 10.378906 24.703125 10.4375 C 24.476562 10.976562 24.21875 11.503906 23.929688 12.011719 C 23.875 12.101562 23.824219 12.191406 23.769531 12.28125 C 23.730469 12.34375 23.691406 12.410156 23.648438 12.472656 C 23.632812 12.503906 23.613281 12.53125 23.59375 12.558594 C 23.574219 12.589844 23.554688 12.621094 23.535156 12.648438 C 23.535156 12.652344 23.535156 12.652344 23.535156 12.652344 C 23.515625 12.679688 23.5 12.703125 23.484375 12.726562 C 23.433594 12.808594 23.378906 12.886719 23.324219 12.960938 C 23.179688 13.171875 23.03125 13.375 22.875 13.578125 C 22.691406 13.8125 22.496094 14.046875 22.296875 14.269531 C 22.230469 14.347656 22.160156 14.421875 22.089844 14.496094 C 21.914062 14.6875 21.730469 14.871094 21.542969 15.050781 C 21.445312 15.144531 21.347656 15.234375 21.246094 15.324219 C 21.0625 15.496094 20.867188 15.65625 20.671875 15.816406 C 20.476562 15.972656 20.277344 16.125 20.078125 16.269531 C 19.910156 16.390625 19.742188 16.503906 19.570312 16.617188 C 19.527344 16.644531 19.488281 16.667969 19.449219 16.695312 C 19.285156 16.796875 19.121094 16.898438 18.953125 16.996094 C 18.566406 17.21875 18.167969 17.421875 17.761719 17.609375 C 17.542969 17.707031 17.320312 17.800781 17.09375 17.886719 C 15.976562 18.320312 14.824219 18.597656 13.636719 18.722656 C 13.480469 18.199219 13.300781 17.6875 13.085938 17.1875 C 13.058594 17.117188 13.027344 17.046875 12.996094 16.976562 C 14.179688 16.902344 15.324219 16.652344 16.429688 16.222656 C 16.546875 16.179688 16.664062 16.132812 16.78125 16.082031 C 16.886719 16.039062 16.992188 15.992188 17.097656 15.941406 C 17.511719 15.753906 17.917969 15.539062 18.304688 15.300781 C 18.523438 15.167969 18.734375 15.03125 18.941406 14.882812 C 19.355469 14.59375 19.746094 14.28125 20.117188 13.9375 C 20.246094 13.820312 20.371094 13.699219 20.496094 13.578125 C 20.585938 13.484375 20.675781 13.394531 20.761719 13.300781 C 21.714844 12.285156 22.460938 11.140625 23.003906 9.859375 C 23.0625 9.714844 23.121094 9.566406 23.179688 9.417969 C 23.472656 8.636719 23.679688 7.832031 23.800781 7.007812 C 23.84375 6.707031 23.875 6.40625 23.894531 6.101562 C 23.914062 5.835938 23.921875 5.574219 23.921875 5.308594 C 23.921875 5.070312 23.914062 4.832031 23.902344 4.597656 C 23.886719 4.34375 23.863281 4.089844 23.832031 3.839844 C 23.773438 3.386719 23.691406 2.9375 23.582031 2.492188 C 23.523438 2.257812 23.457031 2.027344 23.386719 1.796875 C 23.277344 1.441406 23.148438 1.097656 23.003906 0.753906 C 22.894531 0.5 22.777344 0.25 22.652344 0.00390625 L 21.835938 0.00390625 C 22.203125 0.664062 22.496094 1.355469 22.71875 2.078125 C 22.789062 2.308594 22.855469 2.546875 22.910156 2.785156 C 23.019531 3.238281 23.097656 3.699219 23.144531 4.164062 C 23.171875 4.425781 23.1875 4.691406 23.199219 4.957031 C 23.203125 5.074219 23.203125 5.191406 23.203125 5.308594 C 23.203125 5.738281 23.179688 6.167969 23.128906 6.597656 C 23.085938 6.960938 23.023438 7.324219 22.945312 7.683594 C 22.570312 9.363281 21.84375 10.871094 20.757812 12.203125 C 20.527344 12.488281 20.285156 12.761719 20.027344 13.023438 C 19.640625 13.414062 19.226562 13.773438 18.785156 14.105469 C 18.574219 14.261719 18.355469 14.414062 18.132812 14.554688 C 17.738281 14.808594 17.328125 15.035156 16.90625 15.234375 C 16.6875 15.339844 16.464844 15.4375 16.234375 15.527344 C 15.085938 15.976562 13.894531 16.226562 12.664062 16.277344 C 12.34375 15.644531 11.976562 15.042969 11.566406 14.46875 C 11.785156 14.484375 12.003906 14.492188 12.226562 14.492188 C 13.464844 14.492188 14.660156 14.253906 15.800781 13.769531 C 15.847656 13.75 15.894531 13.730469 15.941406 13.707031 C 16.179688 13.605469 16.410156 13.488281 16.636719 13.363281 C 17.105469 13.109375 17.546875 12.8125 17.964844 12.480469 C 18.230469 12.265625 18.480469 12.039062 18.722656 11.800781 C 18.722656 11.796875 18.726562 11.796875 18.726562 11.792969 C 19.585938 10.9375 20.246094 9.949219 20.710938 8.828125 C 21.175781 7.707031 21.410156 6.539062 21.410156 5.328125 C 21.410156 5.320312 21.410156 5.3125 21.410156 5.304688 C 21.410156 4.78125 21.367188 4.257812 21.277344 3.742188 C 21.234375 3.484375 21.179688 3.230469 21.113281 2.976562 C 20.832031 1.902344 20.371094 0.910156 19.726562 0.00390625 L 18.824219 0.00390625 C 19.640625 1.019531 20.195312 2.160156 20.484375 3.429688 C 20.542969 3.695312 20.589844 3.964844 20.625 4.242188 C 20.671875 4.59375 20.691406 4.949219 20.691406 5.308594 C 20.691406 5.550781 20.683594 5.789062 20.664062 6.027344 C 20.542969 7.371094 20.128906 8.617188 19.417969 9.765625 C 18.707031 10.914062 17.773438 11.839844 16.621094 12.542969 C 16.386719 12.683594 16.148438 12.8125 15.902344 12.933594 C 14.742188 13.496094 13.515625 13.773438 12.226562 13.773438 C 11.800781 13.773438 11.378906 13.742188 10.960938 13.679688 C 10.816406 13.507812 10.667969 13.335938 10.519531 13.167969 C 10.363281 13 10.203125 12.832031 10.042969 12.671875 C 10.03125 12.660156 10.019531 12.648438 10.011719 12.636719 C 9.574219 12.207031 9.113281 11.800781 8.625 11.429688 C 8.425781 11.277344 8.222656 11.128906 8.015625 10.988281 C 7.492188 10.628906 6.949219 10.308594 6.382812 10.023438 C 6.152344 9.90625 5.914062 9.796875 5.675781 9.691406 C 5.625 9.667969 5.574219 9.648438 5.527344 9.628906 C 5.277344 9.523438 5.03125 9.425781 4.777344 9.335938 C 4.382812 8.601562 4.097656 7.828125 3.929688 7.011719 C 3.761719 6.195312 3.71875 5.371094 3.792969 4.542969 C 3.867188 3.710938 4.0625 2.910156 4.375 2.136719 C 4.6875 1.367188 5.105469 0.65625 5.628906 0.00390625 L 4.722656 0.00390625 C 4.273438 0.644531 3.910156 1.328125 3.632812 2.058594 C 3.359375 2.789062 3.179688 3.542969 3.09375 4.320312 C 3.011719 5.097656 3.023438 5.871094 3.136719 6.644531 C 3.25 7.417969 3.460938 8.164062 3.761719 8.882812 C 3.785156 8.933594 3.804688 8.980469 3.828125 9.03125 L 3.816406 9.027344 C 3.554688 8.957031 3.289062 8.890625 3.019531 8.832031 C 2.605469 8.742188 2.183594 8.671875 1.757812 8.617188 C 1.304688 7.183594 1.152344 5.71875 1.300781 4.222656 C 1.453125 2.726562 1.890625 1.320312 2.613281 0.00390625 L 1.796875 0.00390625 C 1.671875 0.25 1.558594 0.5 1.449219 0.753906 C 0.929688 1.988281 0.632812 3.273438 0.550781 4.609375 C 0.472656 5.945312 0.617188 7.257812 0.984375 8.542969 C 0.65625 8.519531 0.328125 8.511719 -0.00390625 8.511719 L -0.00390625 9.226562 C 0.410156 9.226562 0.820312 9.246094 1.222656 9.285156 C 1.496094 9.308594 1.765625 9.339844 2.03125 9.382812 C 2.1875 9.40625 2.34375 9.429688 2.496094 9.460938 C 2.761719 9.511719 3.027344 9.566406 3.285156 9.632812 C 3.625 9.71875 3.957031 9.816406 4.285156 9.925781 C 4.332031 9.941406 4.382812 9.960938 4.429688 9.976562 C 4.433594 9.976562 4.4375 9.980469 4.441406 9.980469 C 4.476562 9.992188 4.511719 10.003906 4.550781 10.019531 C 4.566406 10.023438 4.585938 10.03125 4.605469 10.039062 C 4.640625 10.050781 4.675781 10.0625 4.710938 10.078125 C 4.730469 10.085938 4.75 10.09375 4.773438 10.101562 C 4.796875 10.109375 4.820312 10.121094 4.84375 10.128906 C 4.867188 10.136719 4.894531 10.148438 4.917969 10.160156 C 4.988281 10.1875 5.058594 10.214844 5.128906 10.242188 C 5.152344 10.253906 5.179688 10.261719 5.203125 10.273438 C 5.242188 10.289062 5.285156 10.308594 5.324219 10.324219 C 5.367188 10.34375 5.40625 10.363281 5.453125 10.378906 C 5.578125 10.4375 5.703125 10.496094 5.828125 10.554688 C 6.386719 10.824219 6.925781 11.132812 7.445312 11.476562 C 7.648438 11.613281 7.851562 11.753906 8.050781 11.902344 C 8.53125 12.261719 8.992188 12.652344 9.421875 13.078125 C 9.53125 13.183594 9.640625 13.292969 9.746094 13.402344 C 9.777344 13.433594 9.804688 13.464844 9.835938 13.5 C 9.867188 13.535156 9.898438 13.5625 9.925781 13.597656 C 9.957031 13.628906 9.980469 13.65625 10.007812 13.6875 C 10.035156 13.71875 10.0625 13.746094 10.089844 13.777344 C 10.15625 13.851562 10.21875 13.921875 10.28125 13.996094 C 10.304688 14.027344 10.328125 14.054688 10.351562 14.085938 C 10.378906 14.117188 10.40625 14.148438 10.433594 14.179688 C 10.449219 14.199219 10.464844 14.21875 10.484375 14.242188 C 10.507812 14.273438 10.535156 14.308594 10.5625 14.34375 C 11.046875 14.949219 11.472656 15.59375 11.84375 16.277344 C 11.976562 16.515625 12.097656 16.757812 12.210938 17.003906 C 12.484375 17.578125 12.710938 18.171875 12.898438 18.777344 C 12.917969 18.84375 12.9375 18.90625 12.953125 18.96875 L 12.96875 19.019531 C 12.984375 19.070312 12.996094 19.121094 13.011719 19.171875 C 13.019531 19.199219 13.027344 19.222656 13.03125 19.25 C 13.039062 19.273438 13.046875 19.296875 13.050781 19.316406 C 13.066406 19.375 13.078125 19.429688 13.09375 19.484375 C 13.140625 19.683594 13.1875 19.882812 13.226562 20.085938 C 13.335938 20.636719 13.410156 21.191406 13.449219 21.753906 C 13.472656 22.050781 13.484375 22.351562 13.484375 22.652344 L 13.484375 22.714844 C 13.484375 23.199219 13.457031 23.683594 13.40625 24.164062 C 13.402344 24.199219 13.398438 24.234375 13.394531 24.269531 L 13.390625 24.304688 C 13.386719 24.339844 13.382812 24.375 13.378906 24.410156 L 13.375 24.425781 C 13.371094 24.464844 13.367188 24.503906 13.359375 24.539062 C 13.359375 24.558594 13.355469 24.574219 13.355469 24.589844 C 13.347656 24.636719 13.339844 24.679688 13.335938 24.726562 C 13.328125 24.777344 13.320312 24.824219 13.3125 24.875 C 13.304688 24.910156 13.300781 24.945312 13.292969 24.980469 C 13.28125 25.050781 13.269531 25.117188 13.257812 25.183594 C 13.1875 25.5625 13.101562 25.933594 13 26.296875 C 12.96875 26.414062 12.9375 26.527344 12.902344 26.644531 C 12.882812 26.699219 12.867188 26.753906 12.847656 26.8125 C 12.828125 26.875 12.808594 26.9375 12.789062 27 C 12.75 27.113281 12.710938 27.226562 12.667969 27.339844 C 12.625 27.457031 12.578125 27.574219 12.535156 27.691406 C 12.449219 27.898438 12.363281 28.105469 12.269531 28.308594 C 12.160156 28.546875 12.042969 28.785156 11.921875 29.015625 C 11.914062 29.027344 11.910156 29.035156 11.90625 29.042969 C 11.785156 29.269531 11.660156 29.492188 11.527344 29.707031 C 11.378906 29.953125 11.222656 30.191406 11.058594 30.425781 C 10.851562 30.722656 10.628906 31.011719 10.398438 31.292969 C 10.386719 31.308594 10.375 31.320312 10.367188 31.332031 C 10.207031 31.527344 10.039062 31.714844 9.867188 31.898438 C 9.164062 32.65625 8.382812 33.320312 7.527344 33.902344 C 7.238281 34.09375 6.945312 34.277344 6.644531 34.449219 C 6.613281 34.464844 6.582031 34.484375 6.550781 34.5 C 6.308594 34.636719 6.066406 34.761719 5.8125 34.882812 C 5.570312 35 5.320312 35.113281 5.066406 35.214844 C 4.820312 35.3125 4.574219 35.40625 4.324219 35.492188 C 4.304688 35.5 4.28125 35.503906 4.261719 35.511719 C 3.980469 35.605469 3.695312 35.691406 3.40625 35.765625 C 3.261719 35.804688 3.117188 35.839844 2.972656 35.871094 C 2.734375 35.925781 2.496094 35.972656 2.253906 36.015625 C 2.097656 36.039062 1.945312 36.0625 1.789062 36.085938 C 1.5 36.125 1.207031 36.152344 0.914062 36.171875 C 0.90625 36.171875 0.898438 36.171875 0.894531 36.171875 C 0.664062 36.1875 0.429688 36.199219 0.195312 36.203125 C 0.128906 36.203125 0.0625 36.203125 -0.00390625 36.203125 L -0.00390625 36.921875 C 0.078125 36.921875 0.15625 36.921875 0.234375 36.917969 C 0.476562 36.914062 0.714844 36.90625 0.953125 36.890625 C 1.144531 36.878906 1.332031 36.859375 1.519531 36.839844 C 1.992188 37.296875 2.503906 37.699219 3.058594 38.050781 C 3.613281 38.402344 4.195312 38.695312 4.808594 38.925781 C 5.421875 39.160156 6.050781 39.328125 6.699219 39.433594 C 7.347656 39.535156 7.996094 39.574219 8.652344 39.546875 C 9.308594 39.515625 9.953125 39.421875 10.589844 39.265625 C 11.226562 39.105469 11.839844 38.882812 12.429688 38.597656 C 13.019531 38.3125 13.574219 37.972656 14.097656 37.574219 C 14.617188 37.175781 15.09375 36.730469 15.523438 36.238281 C 15.957031 35.742188 16.332031 35.210938 16.652344 34.640625 C 16.976562 34.066406 17.238281 33.46875 17.4375 32.847656 C 17.636719 32.222656 17.773438 31.582031 17.84375 30.933594 C 17.914062 30.28125 17.917969 29.628906 17.855469 28.976562 C 17.792969 28.324219 17.667969 27.683594 17.476562 27.054688 C 17.28125 26.429688 17.03125 25.828125 16.714844 25.253906 C 16.402344 24.679688 16.03125 24.140625 15.605469 23.640625 C 15.183594 23.140625 14.714844 22.6875 14.195312 22.285156 C 14.179688 21.699219 14.128906 21.121094 14.039062 20.542969 C 17.164062 22.488281 19.25 25.953125 19.25 29.898438 C 19.25 35.964844 14.3125 40.902344 8.242188 40.902344 C 4.964844 40.902344 2.015625 39.464844 -0.00390625 37.179688 L -0.00390625 38.234375 C 0.542969 38.773438 1.136719 39.253906 1.773438 39.679688 C 2.414062 40.101562 3.089844 40.460938 3.800781 40.75 C 4.507812 41.042969 5.242188 41.261719 5.992188 41.40625 C 6.746094 41.554688 7.507812 41.628906 8.273438 41.625 C 9.042969 41.625 9.800781 41.546875 10.554688 41.394531 C 11.304688 41.242188 12.035156 41.019531 12.746094 40.726562 C 13.453125 40.429688 14.125 40.070312 14.765625 39.644531 C 15.402344 39.214844 15.992188 38.730469 16.535156 38.1875 Z M 23.691406 13.695312 C 23.820312 13.523438 23.941406 13.347656 24.058594 13.167969 C 24.164062 13.265625 24.269531 13.359375 24.375 13.453125 C 24.425781 13.5 24.476562 13.542969 24.527344 13.589844 C 24.867188 13.882812 25.21875 14.15625 25.582031 14.414062 C 25.78125 14.554688 25.980469 14.691406 26.1875 14.820312 C 26.398438 14.957031 26.617188 15.085938 26.835938 15.207031 C 27.105469 15.359375 27.378906 15.503906 27.660156 15.636719 C 27.855469 15.730469 28.054688 15.820312 28.257812 15.902344 C 28.972656 16.207031 29.707031 16.449219 30.460938 16.628906 C 29.617188 17.246094 28.671875 17.554688 27.625 17.554688 C 25.566406 17.554688 23.800781 16.257812 23.113281 14.433594 C 23.3125 14.195312 23.507812 13.949219 23.691406 13.695312 Z M 21.804688 15.796875 C 21.964844 15.652344 22.117188 15.503906 22.273438 15.351562 C 22.308594 15.316406 22.34375 15.277344 22.382812 15.242188 C 22.449219 15.171875 22.515625 15.101562 22.582031 15.03125 C 22.761719 15.429688 22.988281 15.800781 23.257812 16.144531 C 23.527344 16.488281 23.832031 16.796875 24.175781 17.070312 C 24.519531 17.339844 24.886719 17.570312 25.285156 17.753906 C 25.679688 17.9375 26.09375 18.074219 26.519531 18.160156 C 26.949219 18.246094 27.382812 18.285156 27.820312 18.269531 C 28.257812 18.253906 28.683594 18.1875 29.105469 18.070312 C 29.527344 17.953125 29.929688 17.789062 30.3125 17.578125 C 30.695312 17.363281 31.046875 17.113281 31.371094 16.816406 C 31.917969 16.910156 32.46875 16.972656 33.023438 17 C 31.761719 18.59375 29.808594 19.613281 27.625 19.613281 C 25.015625 19.613281 22.738281 18.152344 21.570312 16.007812 C 21.648438 15.9375 21.726562 15.867188 21.804688 15.796875 Z M 20.257812 17.027344 C 20.511719 16.851562 20.761719 16.667969 21.003906 16.476562 C 21.347656 17.074219 21.761719 17.617188 22.25 18.105469 C 23.683594 19.542969 25.59375 20.332031 27.625 20.332031 C 29.65625 20.332031 31.566406 19.542969 33 18.105469 C 33.335938 17.773438 33.636719 17.410156 33.90625 17.019531 C 34.097656 17.019531 34.292969 17.011719 34.484375 17.003906 C 34.726562 16.992188 34.96875 16.972656 35.207031 16.949219 C 35.316406 16.941406 35.421875 16.929688 35.53125 16.914062 C 34.027344 19.746094 31.046875 21.675781 27.625 21.675781 C 24.34375 21.675781 21.46875 19.898438 19.910156 17.257812 C 20.027344 17.183594 20.144531 17.105469 20.257812 17.027344 Z M 19.296875 17.632812 C 19.742188 18.390625 20.285156 19.078125 20.921875 19.691406 C 21.554688 20.300781 22.261719 20.816406 23.039062 21.234375 C 23.816406 21.652344 24.632812 21.960938 25.496094 22.152344 C 26.355469 22.347656 27.226562 22.421875 28.105469 22.378906 C 28.988281 22.335938 29.847656 22.175781 30.683594 21.894531 C 31.519531 21.617188 32.304688 21.230469 33.035156 20.738281 C 33.765625 20.242188 34.417969 19.660156 34.988281 18.988281 C 35.5625 18.316406 36.03125 17.582031 36.402344 16.78125 C 36.449219 16.773438 36.492188 16.761719 36.539062 16.753906 C 36.773438 16.707031 37.007812 16.65625 37.238281 16.597656 C 37.5 16.535156 37.753906 16.460938 38.007812 16.382812 C 36.5 20.660156 32.414062 23.734375 27.625 23.734375 C 23.566406 23.734375 20.011719 21.527344 18.101562 18.246094 C 18.511719 18.058594 18.90625 17.855469 19.292969 17.632812 Z M 10.042969 32.761719 C 10.257812 32.546875 10.464844 32.324219 10.667969 32.097656 C 10.847656 31.890625 11.023438 31.683594 11.191406 31.46875 C 11.285156 31.347656 11.378906 31.222656 11.46875 31.097656 C 11.644531 30.859375 11.816406 30.613281 11.976562 30.359375 C 12.085938 30.183594 12.195312 30.007812 12.300781 29.828125 C 12.429688 29.601562 12.554688 29.375 12.671875 29.144531 C 12.683594 29.117188 12.699219 29.089844 12.710938 29.0625 C 12.777344 28.929688 12.84375 28.792969 12.90625 28.65625 C 13.015625 29.0625 13.070312 29.476562 13.066406 29.898438 C 13.066406 32.558594 10.902344 34.722656 8.242188 34.722656 C 8.046875 34.722656 7.847656 34.710938 7.652344 34.6875 C 8.519531 34.132812 9.316406 33.488281 10.042969 32.761719 Z M 5.527344 35.804688 C 5.820312 35.679688 6.109375 35.546875 6.394531 35.402344 C 6.507812 35.347656 6.617188 35.289062 6.726562 35.230469 C 7.222656 35.371094 7.726562 35.441406 8.242188 35.441406 C 8.472656 35.441406 8.699219 35.425781 8.929688 35.398438 C 9.15625 35.371094 9.382812 35.328125 9.605469 35.269531 C 9.828125 35.214844 10.042969 35.144531 10.257812 35.058594 C 10.472656 34.976562 10.679688 34.878906 10.882812 34.769531 C 11.082031 34.660156 11.277344 34.539062 11.464844 34.40625 C 11.652344 34.273438 11.828125 34.128906 11.996094 33.972656 C 12.167969 33.816406 12.324219 33.652344 12.472656 33.476562 C 12.621094 33.300781 12.757812 33.117188 12.882812 32.925781 C 13.007812 32.730469 13.121094 32.53125 13.222656 32.328125 C 13.324219 32.121094 13.410156 31.910156 13.484375 31.691406 C 13.558594 31.472656 13.621094 31.253906 13.667969 31.027344 C 13.714844 30.804688 13.746094 30.578125 13.765625 30.347656 C 13.785156 30.121094 13.789062 29.890625 13.78125 29.660156 C 13.769531 29.433594 13.746094 29.203125 13.710938 28.976562 C 13.671875 28.75 13.621094 28.527344 13.554688 28.308594 C 13.488281 28.089844 13.410156 27.875 13.316406 27.664062 C 13.351562 27.574219 13.382812 27.484375 13.414062 27.394531 C 13.449219 27.296875 13.480469 27.199219 13.515625 27.101562 C 13.558594 26.960938 13.601562 26.820312 13.644531 26.679688 C 13.667969 26.589844 13.695312 26.496094 13.71875 26.40625 C 13.765625 26.238281 13.808594 26.070312 13.847656 25.902344 C 14.703125 27.09375 15.128906 28.429688 15.128906 29.898438 C 15.128906 33.695312 12.039062 36.785156 8.242188 36.785156 C 7.113281 36.785156 6.046875 36.523438 5.050781 35.996094 C 5.207031 35.9375 5.367188 35.871094 5.527344 35.804688 Z M 17.1875 29.898438 C 17.1875 34.832031 13.175781 38.84375 8.242188 38.84375 C 7.179688 38.84375 6.152344 38.664062 5.15625 38.296875 C 4.160156 37.929688 3.257812 37.402344 2.453125 36.710938 C 2.632812 36.679688 2.816406 36.644531 2.996094 36.605469 C 3.382812 36.523438 3.765625 36.421875 4.148438 36.308594 C 5.359375 37.085938 6.769531 37.5 8.242188 37.5 C 10.273438 37.5 12.183594 36.710938 13.617188 35.273438 C 15.054688 33.839844 15.84375 31.929688 15.84375 29.898438 C 15.84375 28.070312 15.203125 26.335938 14.027344 24.960938 C 14.03125 24.933594 14.035156 24.90625 14.039062 24.878906 C 14.066406 24.714844 14.085938 24.546875 14.105469 24.382812 C 14.117188 24.304688 14.125 24.230469 14.132812 24.152344 C 14.164062 23.84375 14.183594 23.535156 14.195312 23.226562 C 16.03125 24.863281 17.1875 27.25 17.1875 29.898438 Z M 17.1875 29.898438 " fill-opacity="1" fill-rule="nonzero"/></g><g clip-path="url(#948d9501e6)"><path fill="#d16aff" d="M 27.199219 1.730469 C 27.140625 2.089844 27.109375 2.449219 27.109375 2.8125 C 27.109375 2.902344 27.113281 2.988281 27.117188 3.078125 C 27.125 3.316406 27.148438 3.558594 27.183594 3.792969 C 27.285156 4.515625 27.503906 5.199219 27.835938 5.847656 C 28.113281 6.386719 28.457031 6.878906 28.867188 7.324219 C 28.929688 7.394531 28.996094 7.464844 29.066406 7.535156 C 29.871094 8.34375 30.824219 8.90625 31.921875 9.226562 C 32.503906 9.394531 33.09375 9.480469 33.699219 9.488281 C 33.726562 9.488281 33.757812 9.488281 33.785156 9.488281 C 34.019531 9.488281 34.257812 9.476562 34.488281 9.453125 C 34.949219 9.40625 35.394531 9.3125 35.832031 9.171875 C 36.0625 9.097656 36.285156 9.011719 36.507812 8.914062 C 36.917969 8.730469 37.308594 8.503906 37.675781 8.242188 C 37.875 8.09375 38.070312 7.941406 38.253906 7.773438 C 38.339844 7.695312 38.421875 7.617188 38.503906 7.535156 C 39.765625 6.273438 40.460938 4.597656 40.460938 2.8125 C 40.460938 1.832031 40.257812 0.894531 39.84375 0.00390625 L 39.039062 0.00390625 C 39.507812 0.882812 39.742188 1.820312 39.742188 2.8125 C 39.742188 4.496094 39.039062 6.019531 37.914062 7.101562 C 37.410156 7.589844 36.835938 7.976562 36.195312 8.261719 C 35.976562 8.359375 35.746094 8.445312 35.515625 8.515625 C 35.058594 8.652344 34.589844 8.734375 34.113281 8.761719 C 34.007812 8.769531 33.894531 8.769531 33.785156 8.769531 C 33.601562 8.769531 33.417969 8.761719 33.238281 8.746094 C 31.324219 8.570312 29.667969 7.484375 28.710938 5.929688 C 28.167969 5.050781 27.878906 4.097656 27.832031 3.066406 C 27.832031 2.984375 27.828125 2.898438 27.828125 2.8125 C 27.828125 2.449219 27.863281 2.085938 27.929688 1.726562 C 27.972656 1.484375 28.03125 1.25 28.105469 1.015625 C 28.21875 0.664062 28.359375 0.328125 28.53125 0.0078125 L 27.726562 0.0078125 C 27.46875 0.558594 27.292969 1.132812 27.195312 1.730469 Z M 27.199219 1.730469 " fill-opacity="1" fill-rule="nonzero"/></g></svg>